<mxfile host="app.diagrams.net" modified="2022-08-22T09:51:59.418Z" agent="5.0 (Windows NT 10.0; WOW64) AppleWebKit/537.36 (KHTML, like Gecko) Chrome/87.0.4280.66 Safari/537.36" etag="Kv_bYvg5sOckFRNjqrHs" version="20.2.3" type="github" pages="4">
  <diagram id="vf1SmXCAN3oc0I7kgqa6" name="向导容器图">
    <mxGraphModel dx="-232" dy="762" grid="1" gridSize="10" guides="1" tooltips="1" connect="1" arrows="1" fold="1" page="1" pageScale="1" pageWidth="827" pageHeight="1169" math="0" shadow="0">
      <root>
        <mxCell id="0" />
        <mxCell id="1" parent="0" />
        <mxCell id="sEEVSyeKvRTLSPbJhOf8-1" style="edgeStyle=orthogonalEdgeStyle;rounded=0;jumpStyle=none;orthogonalLoop=1;jettySize=auto;html=1;exitX=1;exitY=0.75;exitDx=0;exitDy=0;exitPerimeter=0;entryX=0;entryY=0.75;entryDx=0;entryDy=0;entryPerimeter=0;shadow=0;fontSize=15;fontColor=#000000;strokeWidth=3;strokeColor=#FF0000;" parent="1" source="sEEVSyeKvRTLSPbJhOf8-4" target="sEEVSyeKvRTLSPbJhOf8-32" edge="1">
          <mxGeometry relative="1" as="geometry" />
        </mxCell>
        <mxCell id="sEEVSyeKvRTLSPbJhOf8-2" value="查询供应商下的向导信息" style="edgeLabel;html=1;align=center;verticalAlign=middle;resizable=0;points=[];fontSize=18;rounded=0;" parent="sEEVSyeKvRTLSPbJhOf8-1" vertex="1" connectable="0">
          <mxGeometry x="0.0561" y="-5" relative="1" as="geometry">
            <mxPoint x="102" y="-1" as="offset" />
          </mxGeometry>
        </mxCell>
        <mxCell id="sEEVSyeKvRTLSPbJhOf8-3" style="edgeStyle=orthogonalEdgeStyle;rounded=0;orthogonalLoop=1;jettySize=auto;html=1;exitX=0.5;exitY=1;exitDx=0;exitDy=0;exitPerimeter=0;fontSize=18;strokeColor=#000000;strokeWidth=1;entryX=0.972;entryY=-0.004;entryDx=0;entryDy=0;entryPerimeter=0;" parent="1" source="sEEVSyeKvRTLSPbJhOf8-4" edge="1">
          <mxGeometry relative="1" as="geometry">
            <mxPoint x="3020.96" y="1334.56" as="targetPoint" />
          </mxGeometry>
        </mxCell>
        <object placeholders="1" c4Name="数据映射" c4Type="Software System" c4Description="大向导和小向导映射关系" label="&lt;font style=&quot;font-size: 20px;&quot;&gt;&lt;b style=&quot;font-size: 20px;&quot;&gt;%c4Name%&lt;/b&gt;&lt;/font&gt;&lt;div style=&quot;font-size: 20px;&quot;&gt;[%c4Type%]&lt;/div&gt;&lt;br style=&quot;font-size: 20px;&quot;&gt;&lt;div style=&quot;font-size: 20px;&quot;&gt;&lt;font style=&quot;font-size: 20px;&quot;&gt;&lt;font color=&quot;#cccccc&quot; style=&quot;font-size: 20px;&quot;&gt;%c4Description%&lt;/font&gt;&lt;/font&gt;&lt;/div&gt;" id="sEEVSyeKvRTLSPbJhOf8-4">
          <mxCell style="rounded=0;whiteSpace=wrap;html=1;labelBackgroundColor=none;fillColor=#1061B0;fontColor=#ffffff;align=center;arcSize=10;strokeColor=#0D5091;metaEdit=1;resizable=0;points=[[0.25,0,0],[0.5,0,0],[0.75,0,0],[1,0.25,0],[1,0.5,0],[1,0.75,0],[0.75,1,0],[0.5,1,0],[0.25,1,0],[0,0.75,0],[0,0.5,0],[0,0.25,0]];fontSize=20;" parent="1" vertex="1">
            <mxGeometry x="2900" y="1076" width="240" height="120" as="geometry" />
          </mxCell>
        </object>
        <mxCell id="sEEVSyeKvRTLSPbJhOf8-5" style="edgeStyle=orthogonalEdgeStyle;rounded=0;jumpStyle=none;orthogonalLoop=1;jettySize=auto;html=1;exitX=0;exitY=0.5;exitDx=0;exitDy=0;exitPerimeter=0;entryX=0;entryY=0.5;entryDx=0;entryDy=0;entryPerimeter=0;shadow=0;fontSize=15;fontColor=#000000;strokeWidth=2;dashed=1;" parent="1" source="sEEVSyeKvRTLSPbJhOf8-9" target="sEEVSyeKvRTLSPbJhOf8-26" edge="1">
          <mxGeometry relative="1" as="geometry">
            <Array as="points">
              <mxPoint x="2140" y="1136" />
              <mxPoint x="2140" y="825" />
            </Array>
          </mxGeometry>
        </mxCell>
        <mxCell id="sEEVSyeKvRTLSPbJhOf8-6" value="向导上下线消息" style="edgeLabel;html=1;align=center;verticalAlign=middle;resizable=0;points=[];fontSize=18;fontColor=#000000;rounded=0;" parent="sEEVSyeKvRTLSPbJhOf8-5" vertex="1" connectable="0">
          <mxGeometry x="-0.033" y="2" relative="1" as="geometry">
            <mxPoint as="offset" />
          </mxGeometry>
        </mxCell>
        <mxCell id="sEEVSyeKvRTLSPbJhOf8-7" style="rounded=0;orthogonalLoop=1;jettySize=auto;html=1;exitX=0.5;exitY=1;exitDx=0;exitDy=0;exitPerimeter=0;fontSize=18;strokeColor=#000000;strokeWidth=1;edgeStyle=orthogonalEdgeStyle;entryX=0.028;entryY=-0.004;entryDx=0;entryDy=0;entryPerimeter=0;" parent="1" source="sEEVSyeKvRTLSPbJhOf8-9" edge="1">
          <mxGeometry relative="1" as="geometry">
            <mxPoint x="2379.04" y="1334.56" as="targetPoint" />
          </mxGeometry>
        </mxCell>
        <mxCell id="sEEVSyeKvRTLSPbJhOf8-8" style="edgeStyle=orthogonalEdgeStyle;rounded=0;orthogonalLoop=1;jettySize=auto;html=1;exitX=1;exitY=0.5;exitDx=0;exitDy=0;exitPerimeter=0;entryX=0;entryY=0.5;entryDx=0;entryDy=0;entryPerimeter=0;fontSize=18;strokeColor=#000000;strokeWidth=1;" parent="1" source="sEEVSyeKvRTLSPbJhOf8-9" target="sEEVSyeKvRTLSPbJhOf8-4" edge="1">
          <mxGeometry relative="1" as="geometry" />
        </mxCell>
        <object placeholders="1" c4Name="数据同步" c4Type="Software System" c4Description="同步小向导信息到社会化" label="&lt;font style=&quot;font-size: 20px;&quot;&gt;&lt;b style=&quot;font-size: 20px;&quot;&gt;%c4Name%&lt;/b&gt;&lt;/font&gt;&lt;div style=&quot;font-size: 20px;&quot;&gt;[%c4Type%]&lt;/div&gt;&lt;br style=&quot;font-size: 20px;&quot;&gt;&lt;div style=&quot;font-size: 20px;&quot;&gt;&lt;font style=&quot;font-size: 20px;&quot;&gt;&lt;font color=&quot;#cccccc&quot; style=&quot;font-size: 20px;&quot;&gt;%c4Description%&lt;/font&gt;&lt;/font&gt;&lt;/div&gt;" id="sEEVSyeKvRTLSPbJhOf8-9">
          <mxCell style="rounded=0;whiteSpace=wrap;html=1;labelBackgroundColor=none;fillColor=#1061B0;fontColor=#ffffff;align=center;arcSize=10;strokeColor=#0D5091;metaEdit=1;resizable=0;points=[[0.25,0,0],[0.5,0,0],[0.75,0,0],[1,0.25,0],[1,0.5,0],[1,0.75,0],[0.75,1,0],[0.5,1,0],[0.25,1,0],[0,0.75,0],[0,0.5,0],[0,0.25,0]];fontSize=20;" parent="1" vertex="1">
            <mxGeometry x="2260" y="1076" width="240" height="120" as="geometry" />
          </mxCell>
        </object>
        <mxCell id="sEEVSyeKvRTLSPbJhOf8-10" style="edgeStyle=orthogonalEdgeStyle;rounded=0;jumpStyle=none;orthogonalLoop=1;jettySize=auto;html=1;exitX=0.5;exitY=1;exitDx=0;exitDy=0;exitPerimeter=0;shadow=0;fontSize=15;fontColor=#000000;strokeWidth=2;entryX=0;entryY=0.5;entryDx=0;entryDy=0;entryPerimeter=0;" parent="1" source="sEEVSyeKvRTLSPbJhOf8-11" target="sEEVSyeKvRTLSPbJhOf8-14" edge="1">
          <mxGeometry relative="1" as="geometry" />
        </mxCell>
        <object placeholders="1" c4Name="派发Rest" c4Type="Software System" c4Description="" label="&lt;font style=&quot;font-size: 20px;&quot;&gt;&lt;b style=&quot;font-size: 20px;&quot;&gt;%c4Name%&lt;/b&gt;&lt;/font&gt;&lt;div style=&quot;font-size: 20px;&quot;&gt;[%c4Type%]&lt;/div&gt;&lt;br style=&quot;font-size: 20px;&quot;&gt;&lt;div style=&quot;font-size: 20px;&quot;&gt;&lt;font style=&quot;font-size: 20px;&quot;&gt;&lt;font color=&quot;#cccccc&quot; style=&quot;font-size: 20px;&quot;&gt;%c4Description%&lt;/font&gt;&lt;/font&gt;&lt;/div&gt;" id="sEEVSyeKvRTLSPbJhOf8-11">
          <mxCell style="rounded=0;whiteSpace=wrap;html=1;labelBackgroundColor=none;fillColor=#1061B0;fontColor=#ffffff;align=center;arcSize=10;strokeColor=#0D5091;metaEdit=1;resizable=0;points=[[0.25,0,0],[0.5,0,0],[0.75,0,0],[1,0.25,0],[1,0.5,0],[1,0.75,0],[0.75,1,0],[0.5,1,0],[0.25,1,0],[0,0.75,0],[0,0.5,0],[0,0.25,0]];fontSize=20;" parent="1" vertex="1">
            <mxGeometry x="2265" y="380" width="240" height="120" as="geometry" />
          </mxCell>
        </object>
        <mxCell id="sEEVSyeKvRTLSPbJhOf8-12" value="&lt;font style=&quot;font-size: 18px;&quot;&gt;保存派发单&lt;/font&gt;" style="edgeStyle=orthogonalEdgeStyle;rounded=0;jumpStyle=none;orthogonalLoop=1;jettySize=auto;html=1;entryX=0.5;entryY=0;entryDx=0;entryDy=0;entryPerimeter=0;shadow=0;fontSize=15;exitX=0.5;exitY=1;exitDx=0;exitDy=0;exitPerimeter=0;" parent="1" source="sEEVSyeKvRTLSPbJhOf8-14" target="sEEVSyeKvRTLSPbJhOf8-23" edge="1">
          <mxGeometry relative="1" as="geometry">
            <mxPoint x="3020" y="630" as="sourcePoint" />
          </mxGeometry>
        </mxCell>
        <mxCell id="sEEVSyeKvRTLSPbJhOf8-13" value="&lt;font style=&quot;font-size: 18px;&quot;&gt;获取度假订单信息&lt;/font&gt;" style="edgeStyle=orthogonalEdgeStyle;rounded=0;orthogonalLoop=1;jettySize=auto;html=1;exitX=1;exitY=0.75;exitDx=0;exitDy=0;exitPerimeter=0;entryX=0;entryY=0.5;entryDx=0;entryDy=0;entryPerimeter=0;fontSize=16;strokeColor=#000000;strokeWidth=2;" parent="1" source="sEEVSyeKvRTLSPbJhOf8-14" target="sEEVSyeKvRTLSPbJhOf8-36" edge="1">
          <mxGeometry x="0.0037" y="20" relative="1" as="geometry">
            <Array as="points">
              <mxPoint x="3550" y="630" />
              <mxPoint x="3550" y="730" />
            </Array>
            <mxPoint as="offset" />
          </mxGeometry>
        </mxCell>
        <object placeholders="1" c4Name="派发Case" c4Type="Software System" c4Description="" label="&lt;font style=&quot;font-size: 20px;&quot;&gt;&lt;b style=&quot;font-size: 20px;&quot;&gt;%c4Name%&lt;/b&gt;&lt;/font&gt;&lt;div style=&quot;font-size: 20px;&quot;&gt;[%c4Type%]&lt;/div&gt;&lt;br style=&quot;font-size: 20px;&quot;&gt;&lt;div style=&quot;font-size: 20px;&quot;&gt;&lt;font style=&quot;font-size: 20px;&quot;&gt;&lt;font color=&quot;#cccccc&quot; style=&quot;font-size: 20px;&quot;&gt;%c4Description%&lt;/font&gt;&lt;/font&gt;&lt;/div&gt;" id="sEEVSyeKvRTLSPbJhOf8-14">
          <mxCell style="rounded=0;whiteSpace=wrap;html=1;labelBackgroundColor=none;fillColor=#1061B0;fontColor=#ffffff;align=center;arcSize=10;strokeColor=#0D5091;metaEdit=1;resizable=0;points=[[0.25,0,0],[0.5,0,0],[0.75,0,0],[1,0.25,0],[1,0.5,0],[1,0.75,0],[0.75,1,0],[0.5,1,0],[0.25,1,0],[0,0.75,0],[0,0.5,0],[0,0.25,0]];fontSize=20;" parent="1" vertex="1">
            <mxGeometry x="2900" y="540" width="240" height="120" as="geometry" />
          </mxCell>
        </object>
        <mxCell id="sEEVSyeKvRTLSPbJhOf8-15" style="edgeStyle=orthogonalEdgeStyle;rounded=0;jumpStyle=none;orthogonalLoop=1;jettySize=auto;html=1;exitX=0;exitY=0.5;exitDx=0;exitDy=0;exitPerimeter=0;shadow=0;fontSize=15;fontColor=#000000;strokeWidth=2;dashed=1;curved=1;entryX=1;entryY=0.5;entryDx=0;entryDy=0;entryPerimeter=0;" parent="1" source="sEEVSyeKvRTLSPbJhOf8-23" target="sEEVSyeKvRTLSPbJhOf8-26" edge="1">
          <mxGeometry relative="1" as="geometry">
            <Array as="points">
              <mxPoint x="2900" y="825" />
              <mxPoint x="2900" y="750" />
              <mxPoint x="2440" y="750" />
            </Array>
          </mxGeometry>
        </mxCell>
        <mxCell id="sEEVSyeKvRTLSPbJhOf8-16" value="子单变更消息" style="edgeLabel;html=1;align=center;verticalAlign=middle;resizable=0;points=[];fontSize=18;rounded=0;" parent="sEEVSyeKvRTLSPbJhOf8-15" vertex="1" connectable="0">
          <mxGeometry x="0.1159" y="-1" relative="1" as="geometry">
            <mxPoint x="19" y="1" as="offset" />
          </mxGeometry>
        </mxCell>
        <mxCell id="sEEVSyeKvRTLSPbJhOf8-17" style="edgeStyle=orthogonalEdgeStyle;rounded=0;orthogonalLoop=1;jettySize=auto;html=1;exitX=0.5;exitY=1;exitDx=0;exitDy=0;exitPerimeter=0;entryX=0.5;entryY=0;entryDx=0;entryDy=0;entryPerimeter=0;fontSize=18;strokeColor=#000000;strokeWidth=1;" parent="1" source="sEEVSyeKvRTLSPbJhOf8-23" target="sEEVSyeKvRTLSPbJhOf8-4" edge="1">
          <mxGeometry relative="1" as="geometry" />
        </mxCell>
        <mxCell id="sEEVSyeKvRTLSPbJhOf8-18" style="edgeStyle=orthogonalEdgeStyle;curved=1;rounded=0;orthogonalLoop=1;jettySize=auto;html=1;exitX=-0.008;exitY=0.565;exitDx=0;exitDy=0;exitPerimeter=0;entryX=1;entryY=0.5;entryDx=0;entryDy=0;entryPerimeter=0;fontSize=18;strokeColor=#000000;strokeWidth=2;dashed=1;" parent="1" source="sEEVSyeKvRTLSPbJhOf8-23" target="sEEVSyeKvRTLSPbJhOf8-26" edge="1">
          <mxGeometry relative="1" as="geometry">
            <Array as="points">
              <mxPoint x="2898" y="910" />
              <mxPoint x="2440" y="910" />
            </Array>
          </mxGeometry>
        </mxCell>
        <mxCell id="sEEVSyeKvRTLSPbJhOf8-19" value="向导通知消息" style="edgeLabel;html=1;align=center;verticalAlign=middle;resizable=0;points=[];fontSize=18;rounded=0;" parent="sEEVSyeKvRTLSPbJhOf8-18" vertex="1" connectable="0">
          <mxGeometry x="-0.1461" y="-4" relative="1" as="geometry">
            <mxPoint x="-34" y="4" as="offset" />
          </mxGeometry>
        </mxCell>
        <mxCell id="sEEVSyeKvRTLSPbJhOf8-20" style="edgeStyle=orthogonalEdgeStyle;rounded=0;orthogonalLoop=1;jettySize=auto;html=1;exitX=1;exitY=0.5;exitDx=0;exitDy=0;exitPerimeter=0;entryX=0;entryY=0.5;entryDx=0;entryDy=0;entryPerimeter=0;fontSize=18;strokeColor=#000000;strokeWidth=2;" parent="1" source="sEEVSyeKvRTLSPbJhOf8-23" target="sEEVSyeKvRTLSPbJhOf8-36" edge="1">
          <mxGeometry relative="1" as="geometry">
            <Array as="points">
              <mxPoint x="3550" y="825" />
              <mxPoint x="3550" y="730" />
            </Array>
          </mxGeometry>
        </mxCell>
        <mxCell id="sEEVSyeKvRTLSPbJhOf8-21" value="更新度假单的车导派遣信息" style="edgeLabel;html=1;align=center;verticalAlign=middle;resizable=0;points=[];fontSize=18;rounded=0;" parent="sEEVSyeKvRTLSPbJhOf8-20" vertex="1" connectable="0">
          <mxGeometry x="0.0592" y="3" relative="1" as="geometry">
            <mxPoint x="53" y="20" as="offset" />
          </mxGeometry>
        </mxCell>
        <mxCell id="sEEVSyeKvRTLSPbJhOf8-22" style="edgeStyle=orthogonalEdgeStyle;rounded=0;orthogonalLoop=1;jettySize=auto;html=1;exitX=1;exitY=0.5;exitDx=0;exitDy=0;exitPerimeter=0;entryX=0.5;entryY=0;entryDx=0;entryDy=0;entryPerimeter=0;fontSize=18;strokeColor=#000000;strokeWidth=2;" parent="1" source="sEEVSyeKvRTLSPbJhOf8-23" target="sEEVSyeKvRTLSPbJhOf8-37" edge="1">
          <mxGeometry relative="1" as="geometry" />
        </mxCell>
        <object placeholders="1" c4Name="派发Domain" c4Type="Software System" c4Description="" label="&lt;font style=&quot;font-size: 20px;&quot;&gt;&lt;b style=&quot;font-size: 20px;&quot;&gt;%c4Name%&lt;/b&gt;&lt;/font&gt;&lt;div style=&quot;font-size: 20px;&quot;&gt;[%c4Type%]&lt;/div&gt;&lt;br style=&quot;font-size: 20px;&quot;&gt;&lt;div style=&quot;font-size: 20px;&quot;&gt;&lt;font style=&quot;font-size: 20px;&quot;&gt;&lt;font color=&quot;#cccccc&quot; style=&quot;font-size: 20px;&quot;&gt;%c4Description%&lt;/font&gt;&lt;/font&gt;&lt;/div&gt;" id="sEEVSyeKvRTLSPbJhOf8-23">
          <mxCell style="rounded=0;whiteSpace=wrap;html=1;labelBackgroundColor=none;fillColor=#1061B0;fontColor=#ffffff;align=center;arcSize=10;strokeColor=#0D5091;metaEdit=1;resizable=0;points=[[0.25,0,0],[0.5,0,0],[0.75,0,0],[1,0.25,0],[1,0.5,0],[1,0.75,0],[0.75,1,0],[0.5,1,0],[0.25,1,0],[0,0.75,0],[0,0.5,0],[0,0.25,0]];fontSize=20;" parent="1" vertex="1">
            <mxGeometry x="2900" y="765" width="240" height="120" as="geometry" />
          </mxCell>
        </object>
        <mxCell id="sEEVSyeKvRTLSPbJhOf8-24" value="&lt;font style=&quot;font-size: 18px;&quot;&gt;向导信息变更消息&lt;/font&gt;" style="edgeStyle=orthogonalEdgeStyle;rounded=0;jumpStyle=none;orthogonalLoop=1;jettySize=auto;html=1;exitX=0.5;exitY=1;exitDx=0;exitDy=0;exitPerimeter=0;entryX=0.5;entryY=0;entryDx=0;entryDy=0;entryPerimeter=0;shadow=0;fontSize=18;fontColor=#000000;dashed=1;strokeWidth=2;" parent="1" source="sEEVSyeKvRTLSPbJhOf8-26" target="sEEVSyeKvRTLSPbJhOf8-9" edge="1">
          <mxGeometry relative="1" as="geometry" />
        </mxCell>
        <mxCell id="sEEVSyeKvRTLSPbJhOf8-25" style="edgeStyle=orthogonalEdgeStyle;rounded=0;orthogonalLoop=1;jettySize=auto;html=1;exitX=0.5;exitY=0;exitDx=0;exitDy=0;exitPerimeter=0;entryX=0;entryY=0.5;entryDx=0;entryDy=0;entryPerimeter=0;fontSize=18;strokeColor=#000000;strokeWidth=2;dashed=1;" parent="1" source="sEEVSyeKvRTLSPbJhOf8-26" target="sEEVSyeKvRTLSPbJhOf8-14" edge="1">
          <mxGeometry relative="1" as="geometry" />
        </mxCell>
        <mxCell id="sEEVSyeKvRTLSPbJhOf8-26" value="QMQ" style="strokeWidth=2;html=1;shape=mxgraph.flowchart.sequential_data;whiteSpace=wrap;fontSize=24;labelBackgroundColor=#FFE6CC;fillColor=#ffe6cc;strokeColor=#d79b00;rounded=0;" parent="1" vertex="1">
          <mxGeometry x="2330" y="770" width="110" height="110" as="geometry" />
        </mxCell>
        <mxCell id="sEEVSyeKvRTLSPbJhOf8-27" style="edgeStyle=orthogonalEdgeStyle;rounded=0;orthogonalLoop=1;jettySize=auto;html=1;entryX=1;entryY=0.25;entryDx=0;entryDy=0;entryPerimeter=0;fontSize=18;strokeColor=#000000;strokeWidth=2;" parent="1" target="sEEVSyeKvRTLSPbJhOf8-14" edge="1">
          <mxGeometry relative="1" as="geometry">
            <mxPoint x="3810" y="570" as="sourcePoint" />
            <Array as="points">
              <mxPoint x="3857" y="570" />
            </Array>
          </mxGeometry>
        </mxCell>
        <mxCell id="sEEVSyeKvRTLSPbJhOf8-28" value="查询订单信息、完成订单" style="edgeLabel;html=1;align=center;verticalAlign=middle;resizable=0;points=[];fontSize=18;rounded=0;" parent="sEEVSyeKvRTLSPbJhOf8-27" vertex="1" connectable="0">
          <mxGeometry x="-0.0873" y="3" relative="1" as="geometry">
            <mxPoint x="34" y="-3" as="offset" />
          </mxGeometry>
        </mxCell>
        <object placeholders="1" c4Name="100027977" c4Type="后端系统" c4Description="司机端" label="&lt;font style=&quot;font-size: 20px;&quot;&gt;&lt;b style=&quot;font-size: 20px;&quot;&gt;%c4Name%&lt;/b&gt;&lt;/font&gt;&lt;div style=&quot;font-size: 20px;&quot;&gt;[%c4Type%]&lt;/div&gt;&lt;br style=&quot;font-size: 20px;&quot;&gt;&lt;div style=&quot;font-size: 20px;&quot;&gt;&lt;font style=&quot;font-size: 20px;&quot;&gt;&lt;font style=&quot;font-size: 20px;&quot;&gt;%c4Description%&lt;/font&gt;&lt;/font&gt;&lt;/div&gt;" id="sEEVSyeKvRTLSPbJhOf8-29">
          <mxCell style="rounded=0;whiteSpace=wrap;html=1;labelBackgroundColor=none;fillColor=#f5f5f5;align=center;arcSize=10;strokeColor=#666666;metaEdit=1;resizable=0;points=[[0.25,0,0],[0.5,0,0],[0.75,0,0],[1,0.25,0],[1,0.5,0],[1,0.75,0],[0.75,1,0],[0.5,1,0],[0.25,1,0],[0,0.75,0],[0,0.5,0],[0,0.25,0]];fontSize=20;gradientColor=#b3b3b3;fontColor=#000000;" parent="1" vertex="1">
            <mxGeometry x="3857" y="510" width="240" height="120" as="geometry" />
          </mxCell>
        </object>
        <mxCell id="sEEVSyeKvRTLSPbJhOf8-30" style="edgeStyle=orthogonalEdgeStyle;rounded=0;orthogonalLoop=1;jettySize=auto;html=1;entryX=1;entryY=0.25;entryDx=0;entryDy=0;entryPerimeter=0;fontColor=#000000;strokeColor=#FF0000;exitX=0;exitY=0.25;exitDx=0;exitDy=0;exitPerimeter=0;strokeWidth=3;" parent="1" source="sEEVSyeKvRTLSPbJhOf8-32" target="sEEVSyeKvRTLSPbJhOf8-4" edge="1">
          <mxGeometry relative="1" as="geometry">
            <mxPoint x="3850" y="1110" as="sourcePoint" />
          </mxGeometry>
        </mxCell>
        <mxCell id="sEEVSyeKvRTLSPbJhOf8-31" value="查询评分、服务次数、金牌向导" style="edgeLabel;html=1;align=center;verticalAlign=middle;resizable=0;points=[];fontSize=18;rounded=0;" parent="sEEVSyeKvRTLSPbJhOf8-30" vertex="1" connectable="0">
          <mxGeometry x="-0.0881" y="-4" relative="1" as="geometry">
            <mxPoint x="101" as="offset" />
          </mxGeometry>
        </mxCell>
        <object placeholders="1" c4Name="100035542" c4Type="Software System" c4Description="供应链" label="&lt;font style=&quot;font-size: 20px;&quot;&gt;&lt;b style=&quot;font-size: 20px;&quot;&gt;%c4Name%&lt;/b&gt;&lt;/font&gt;&lt;div style=&quot;font-size: 20px;&quot;&gt;[%c4Type%]&lt;/div&gt;&lt;br style=&quot;font-size: 20px;&quot;&gt;&lt;div style=&quot;font-size: 20px;&quot;&gt;&lt;font style=&quot;font-size: 20px;&quot;&gt;&lt;font style=&quot;font-size: 20px;&quot;&gt;%c4Description%&lt;/font&gt;&lt;/font&gt;&lt;/div&gt;" id="sEEVSyeKvRTLSPbJhOf8-32">
          <mxCell style="rounded=0;whiteSpace=wrap;html=1;labelBackgroundColor=none;fillColor=#f5f5f5;align=center;arcSize=10;strokeColor=#666666;metaEdit=1;resizable=0;points=[[0.25,0,0],[0.5,0,0],[0.75,0,0],[1,0.25,0],[1,0.5,0],[1,0.75,0],[0.75,1,0],[0.5,1,0],[0.25,1,0],[0,0.75,0],[0,0.5,0],[0,0.25,0]];fontSize=20;gradientColor=#b3b3b3;fontColor=#000000;" parent="1" vertex="1">
            <mxGeometry x="3855" y="1076" width="240" height="120" as="geometry" />
          </mxCell>
        </object>
        <mxCell id="sEEVSyeKvRTLSPbJhOf8-33" style="edgeStyle=orthogonalEdgeStyle;rounded=0;jumpStyle=none;orthogonalLoop=1;jettySize=auto;html=1;exitX=0.5;exitY=1;exitDx=0;exitDy=0;exitPerimeter=0;entryX=0.5;entryY=0;entryDx=0;entryDy=0;entryPerimeter=0;shadow=0;fontSize=15;fontColor=#000000;strokeWidth=2;strokeColor=#000000;" parent="1" source="sEEVSyeKvRTLSPbJhOf8-35" target="sEEVSyeKvRTLSPbJhOf8-11" edge="1">
          <mxGeometry relative="1" as="geometry" />
        </mxCell>
        <mxCell id="sEEVSyeKvRTLSPbJhOf8-34" value="指派订单" style="edgeLabel;html=1;align=center;verticalAlign=middle;resizable=0;points=[];fontSize=23;fontColor=#000000;rounded=0;" parent="sEEVSyeKvRTLSPbJhOf8-33" vertex="1" connectable="0">
          <mxGeometry x="-0.0709" y="2" relative="1" as="geometry">
            <mxPoint as="offset" />
          </mxGeometry>
        </mxCell>
        <object placeholders="1" c4Name="供应商用户" c4Type="Supplier" c4Description="" label="&lt;font style=&quot;font-size: 23px;&quot;&gt;&lt;b style=&quot;font-size: 23px;&quot;&gt;%c4Name%&lt;/b&gt;&lt;/font&gt;&lt;div style=&quot;font-size: 23px;&quot;&gt;[%c4Type%]&lt;/div&gt;&lt;br style=&quot;font-size: 23px;&quot;&gt;&lt;div style=&quot;font-size: 23px;&quot;&gt;&lt;font style=&quot;font-size: 23px;&quot;&gt;&lt;font color=&quot;#cccccc&quot; style=&quot;font-size: 23px;&quot;&gt;%c4Description%&lt;/font&gt;&lt;/font&gt;&lt;/div&gt;" id="sEEVSyeKvRTLSPbJhOf8-35">
          <mxCell style="html=1;fontSize=23;dashed=0;whitespace=wrap;fillColor=#083F75;strokeColor=#06315C;fontColor=#ffffff;shape=mxgraph.c4.person2;align=center;metaEdit=1;points=[[0.5,0,0],[1,0.5,0],[1,0.75,0],[0.75,1,0],[0.5,1,0],[0.25,1,0],[0,0.75,0],[0,0.5,0]];resizable=0;rounded=0;" parent="1" vertex="1">
            <mxGeometry x="2285" y="20" width="200" height="180" as="geometry" />
          </mxCell>
        </object>
        <object placeholders="1" c4Name="100011437" c4Type="后端系统" c4Description=" 玩乐_供应商_订单处理服务" label="&lt;font style=&quot;font-size: 20px;&quot;&gt;&lt;b style=&quot;font-size: 20px;&quot;&gt;%c4Name%&lt;/b&gt;&lt;/font&gt;&lt;div style=&quot;font-size: 20px;&quot;&gt;[%c4Type%]&lt;/div&gt;&lt;br style=&quot;font-size: 20px;&quot;&gt;&lt;div style=&quot;font-size: 20px;&quot;&gt;&lt;font style=&quot;font-size: 20px;&quot;&gt;&lt;font style=&quot;font-size: 20px;&quot;&gt;%c4Description%&lt;/font&gt;&lt;/font&gt;&lt;/div&gt;" id="sEEVSyeKvRTLSPbJhOf8-36">
          <mxCell style="rounded=0;whiteSpace=wrap;html=1;labelBackgroundColor=none;fillColor=#f5f5f5;align=center;arcSize=10;strokeColor=#666666;metaEdit=1;resizable=0;points=[[0.25,0,0],[0.5,0,0],[0.75,0,0],[1,0.25,0],[1,0.5,0],[1,0.75,0],[0.75,1,0],[0.5,1,0],[0.25,1,0],[0,0.75,0],[0,0.5,0],[0,0.25,0]];fontSize=20;gradientColor=#b3b3b3;fontColor=#000000;" parent="1" vertex="1">
            <mxGeometry x="3857" y="670" width="240" height="120" as="geometry" />
          </mxCell>
        </object>
        <object placeholders="1" c4Type="dcsguidedspdb" c4Container="Container " c4Technology="MySQL" c4Description="向导派发库" label="&lt;font style=&quot;font-size: 20px;&quot;&gt;&lt;b style=&quot;font-size: 20px;&quot;&gt;%c4Type%&lt;/b&gt;&lt;/font&gt;&lt;div style=&quot;font-size: 20px;&quot;&gt;&lt;b style=&quot;font-size: 20px;&quot;&gt;[%c4Container%:&amp;nbsp;%c4Technology%]&lt;/b&gt;&lt;/div&gt;&lt;b style=&quot;font-size: 20px;&quot;&gt;&lt;br style=&quot;font-size: 20px;&quot;&gt;&lt;div style=&quot;font-size: 20px;&quot;&gt;&lt;font style=&quot;font-size: 20px;&quot;&gt;&lt;font style=&quot;font-size: 20px;&quot;&gt;%c4Description%&lt;/font&gt;&lt;/font&gt;&lt;/div&gt;&lt;/b&gt;" remark="存储订单信息" id="sEEVSyeKvRTLSPbJhOf8-37">
          <mxCell style="shape=cylinder3;size=15;whiteSpace=wrap;html=1;boundedLbl=1;rounded=0;labelBackgroundColor=none;fillColor=#23A2D9;fontSize=20;fontColor=#FFFFFF;align=center;strokeColor=#0E7DAD;metaEdit=1;points=[[0.5,0,0],[1,0.25,0],[1,0.5,0],[1,0.75,0],[0.5,1,0],[0,0.75,0],[0,0.5,0],[0,0.25,0]];resizable=0;" parent="1" vertex="1">
            <mxGeometry x="3150" y="1470" width="240" height="120" as="geometry" />
          </mxCell>
        </object>
        <mxCell id="sEEVSyeKvRTLSPbJhOf8-38" value="" style="swimlane;startSize=0;labelBackgroundColor=#FFE6CC;fontSize=18;dashed=1;strokeWidth=3;rounded=0;strokeColor=#3399FF;" parent="1" vertex="1">
          <mxGeometry x="2010" y="300" width="1450" height="1470" as="geometry" />
        </mxCell>
        <mxCell id="sEEVSyeKvRTLSPbJhOf8-39" value="" style="swimlane;startSize=0;rounded=0;shadow=0;glass=0;labelBackgroundColor=none;labelBorderColor=none;fontSize=15;fontColor=default;strokeColor=#000000;strokeWidth=1;" parent="sEEVSyeKvRTLSPbJhOf8-38" vertex="1">
          <mxGeometry x="275" y="1035" width="820" height="385" as="geometry" />
        </mxCell>
        <object placeholders="1" c4Type="igtbidb" c4Container="Container " c4Technology="MySQL" c4Description="BI 数据库" label="&lt;font style=&quot;font-size: 20px;&quot;&gt;&lt;b style=&quot;font-size: 20px;&quot;&gt;%c4Type%&lt;/b&gt;&lt;/font&gt;&lt;div style=&quot;font-size: 20px;&quot;&gt;&lt;b style=&quot;font-size: 20px;&quot;&gt;[%c4Container%:&amp;nbsp;%c4Technology%]&lt;/b&gt;&lt;/div&gt;&lt;b style=&quot;font-size: 20px;&quot;&gt;&lt;br style=&quot;font-size: 20px;&quot;&gt;&lt;div style=&quot;font-size: 20px;&quot;&gt;&lt;font style=&quot;font-size: 20px;&quot;&gt;&lt;font color=&quot;#E6E6E6&quot; style=&quot;font-size: 20px;&quot;&gt;%c4Description%&lt;/font&gt;&lt;/font&gt;&lt;/div&gt;&lt;/b&gt;" remark="向导归一化和服务次数" id="sEEVSyeKvRTLSPbJhOf8-40">
          <mxCell style="shape=cylinder3;size=15;whiteSpace=wrap;html=1;boundedLbl=1;rounded=0;labelBackgroundColor=none;fillColor=#23A2D9;fontSize=20;fontColor=#ffffff;align=center;strokeColor=#0E7DAD;metaEdit=1;points=[[0.5,0,0],[1,0.25,0],[1,0.5,0],[1,0.75,0],[0.5,1,0],[0,0.75,0],[0,0.5,0],[0,0.25,0]];resizable=0;" parent="sEEVSyeKvRTLSPbJhOf8-39" vertex="1">
            <mxGeometry x="475" y="40" width="240" height="120" as="geometry" />
          </mxCell>
        </object>
        <object placeholders="1" c4Type="dcsguidesupplydb" c4Container="Container " c4Technology="MySQL" c4Description="运力组数据库" label="&lt;font style=&quot;font-size: 20px;&quot;&gt;&lt;b style=&quot;font-size: 20px;&quot;&gt;%c4Type%&lt;/b&gt;&lt;/font&gt;&lt;div style=&quot;font-size: 20px;&quot;&gt;&lt;b style=&quot;font-size: 20px;&quot;&gt;[%c4Container%:&amp;nbsp;%c4Technology%]&lt;/b&gt;&lt;/div&gt;&lt;b style=&quot;font-size: 20px;&quot;&gt;&lt;br style=&quot;font-size: 20px;&quot;&gt;&lt;div style=&quot;font-size: 20px;&quot;&gt;&lt;font style=&quot;font-size: 20px;&quot;&gt;&lt;font color=&quot;#E6E6E6&quot; style=&quot;font-size: 20px;&quot;&gt;%c4Description%&lt;/font&gt;&lt;/font&gt;&lt;/div&gt;&lt;/b&gt;" remark="保存大向导和小向导的映射信息" id="sEEVSyeKvRTLSPbJhOf8-41">
          <mxCell style="shape=cylinder3;size=15;whiteSpace=wrap;html=1;boundedLbl=1;rounded=0;labelBackgroundColor=none;fillColor=#23A2D9;fontSize=20;fontColor=#ffffff;align=center;strokeColor=#0E7DAD;metaEdit=1;points=[[0.5,0,0],[1,0.25,0],[1,0.5,0],[1,0.75,0],[0.5,1,0],[0,0.75,0],[0,0.5,0],[0,0.25,0]];resizable=0;" parent="sEEVSyeKvRTLSPbJhOf8-39" vertex="1">
            <mxGeometry x="475" y="205" width="240" height="120" as="geometry" />
          </mxCell>
        </object>
        <object placeholders="1" c4Type="bifrtreportdb" c4Container="Container " c4Technology="MySQL" c4Description="社会化BI数据" label="&lt;font style=&quot;font-size: 20px;&quot;&gt;&lt;b style=&quot;font-size: 20px;&quot;&gt;%c4Type%&lt;/b&gt;&lt;/font&gt;&lt;div style=&quot;font-size: 20px;&quot;&gt;&lt;b style=&quot;font-size: 20px;&quot;&gt;[%c4Container%:&amp;nbsp;%c4Technology%]&lt;/b&gt;&lt;/div&gt;&lt;b style=&quot;font-size: 20px;&quot;&gt;&lt;br style=&quot;font-size: 20px;&quot;&gt;&lt;div style=&quot;font-size: 20px;&quot;&gt;&lt;font style=&quot;font-size: 20px;&quot;&gt;&lt;font color=&quot;#E6E6E6&quot; style=&quot;font-size: 20px;&quot;&gt;%c4Description%&lt;/font&gt;&lt;/font&gt;&lt;/div&gt;&lt;/b&gt;" remark="只用于查询金牌向导" id="sEEVSyeKvRTLSPbJhOf8-42">
          <mxCell style="shape=cylinder3;size=15;whiteSpace=wrap;html=1;boundedLbl=1;rounded=0;labelBackgroundColor=none;fillColor=#23A2D9;fontSize=20;fontColor=#ffffff;align=center;strokeColor=#0E7DAD;metaEdit=1;points=[[0.5,0,0],[1,0.25,0],[1,0.5,0],[1,0.75,0],[0.5,1,0],[0,0.75,0],[0,0.5,0],[0,0.25,0]];resizable=0;" parent="sEEVSyeKvRTLSPbJhOf8-39" vertex="1">
            <mxGeometry x="105" y="40" width="240" height="120" as="geometry" />
          </mxCell>
        </object>
        <object placeholders="1" c4Type="actproductdb" c4Container="Container " c4Technology="MySQL" c4Description="社会化商品库" label="&lt;font style=&quot;font-size: 20px;&quot;&gt;&lt;b style=&quot;font-size: 20px;&quot;&gt;%c4Type%&lt;/b&gt;&lt;/font&gt;&lt;div style=&quot;font-size: 20px;&quot;&gt;&lt;b style=&quot;font-size: 20px;&quot;&gt;[%c4Container%:&amp;nbsp;%c4Technology%]&lt;/b&gt;&lt;/div&gt;&lt;b style=&quot;font-size: 20px;&quot;&gt;&lt;br style=&quot;font-size: 20px;&quot;&gt;&lt;div style=&quot;font-size: 20px;&quot;&gt;&lt;font style=&quot;font-size: 20px;&quot;&gt;&lt;font color=&quot;#E6E6E6&quot; style=&quot;font-size: 20px;&quot;&gt;%c4Description%&lt;/font&gt;&lt;/font&gt;&lt;/div&gt;&lt;/b&gt;" remark="旧向导数据" id="sEEVSyeKvRTLSPbJhOf8-43">
          <mxCell style="shape=cylinder3;size=15;whiteSpace=wrap;html=1;boundedLbl=1;rounded=0;labelBackgroundColor=none;fillColor=#23A2D9;fontSize=20;fontColor=#ffffff;align=center;strokeColor=#0E7DAD;metaEdit=1;points=[[0.5,0,0],[1,0.25,0],[1,0.5,0],[1,0.75,0],[0.5,1,0],[0,0.75,0],[0,0.5,0],[0,0.25,0]];resizable=0;" parent="sEEVSyeKvRTLSPbJhOf8-39" vertex="1">
            <mxGeometry x="105" y="205" width="240" height="120" as="geometry" />
          </mxCell>
        </object>
      </root>
    </mxGraphModel>
  </diagram>
  <diagram id="3tJabSeaPJYnv-jOo_W9" name="向导容器图梳理">
    <mxGraphModel dx="-232" dy="762" grid="1" gridSize="10" guides="1" tooltips="1" connect="1" arrows="1" fold="1" page="1" pageScale="1" pageWidth="827" pageHeight="1169" math="0" shadow="0">
      <root>
        <mxCell id="0" />
        <mxCell id="1" parent="0" />
        <mxCell id="e9M98Qfh6EJku2T9XBrh-33" style="edgeStyle=orthogonalEdgeStyle;rounded=0;jumpStyle=none;orthogonalLoop=1;jettySize=auto;html=1;exitX=0.5;exitY=1;exitDx=0;exitDy=0;exitPerimeter=0;entryX=0.5;entryY=0;entryDx=0;entryDy=0;entryPerimeter=0;shadow=0;fontSize=15;fontColor=#000000;strokeWidth=2;strokeColor=#000000;" parent="1" source="e9M98Qfh6EJku2T9XBrh-35" target="e9M98Qfh6EJku2T9XBrh-11" edge="1">
          <mxGeometry relative="1" as="geometry" />
        </mxCell>
        <mxCell id="e9M98Qfh6EJku2T9XBrh-34" value="指派订单" style="edgeLabel;html=1;align=center;verticalAlign=middle;resizable=0;points=[];fontSize=23;fontColor=#000000;rounded=0;" parent="e9M98Qfh6EJku2T9XBrh-33" vertex="1" connectable="0">
          <mxGeometry x="-0.0709" y="2" relative="1" as="geometry">
            <mxPoint as="offset" />
          </mxGeometry>
        </mxCell>
        <object placeholders="1" c4Name="供应商用户" c4Type="Supplier" c4Description="" label="&lt;font style=&quot;font-size: 23px;&quot;&gt;&lt;b style=&quot;font-size: 23px;&quot;&gt;%c4Name%&lt;/b&gt;&lt;/font&gt;&lt;div style=&quot;font-size: 23px;&quot;&gt;[%c4Type%]&lt;/div&gt;&lt;br style=&quot;font-size: 23px;&quot;&gt;&lt;div style=&quot;font-size: 23px;&quot;&gt;&lt;font style=&quot;font-size: 23px;&quot;&gt;&lt;font color=&quot;#cccccc&quot; style=&quot;font-size: 23px;&quot;&gt;%c4Description%&lt;/font&gt;&lt;/font&gt;&lt;/div&gt;" id="e9M98Qfh6EJku2T9XBrh-35">
          <mxCell style="html=1;fontSize=23;dashed=0;whitespace=wrap;fillColor=#083F75;strokeColor=#06315C;fontColor=#ffffff;shape=mxgraph.c4.person2;align=center;metaEdit=1;points=[[0.5,0,0],[1,0.5,0],[1,0.75,0],[0.75,1,0],[0.5,1,0],[0.25,1,0],[0,0.75,0],[0,0.5,0]];resizable=0;rounded=0;" parent="1" vertex="1">
            <mxGeometry x="2915" y="180" width="200" height="180" as="geometry" />
          </mxCell>
        </object>
        <object placeholders="1" c4Name="100011437" c4Type="后端系统" c4Description=" 玩乐_供应商_订单处理服务" label="&lt;font style=&quot;font-size: 20px;&quot;&gt;&lt;b style=&quot;font-size: 20px;&quot;&gt;%c4Name%&lt;/b&gt;&lt;/font&gt;&lt;div style=&quot;font-size: 20px;&quot;&gt;[%c4Type%]&lt;/div&gt;&lt;br style=&quot;font-size: 20px;&quot;&gt;&lt;div style=&quot;font-size: 20px;&quot;&gt;&lt;font style=&quot;font-size: 20px;&quot;&gt;&lt;font style=&quot;font-size: 20px;&quot;&gt;%c4Description%&lt;/font&gt;&lt;/font&gt;&lt;/div&gt;" id="e9M98Qfh6EJku2T9XBrh-36">
          <mxCell style="rounded=0;whiteSpace=wrap;html=1;labelBackgroundColor=none;fillColor=#f5f5f5;align=center;arcSize=10;strokeColor=#666666;metaEdit=1;resizable=0;points=[[0.25,0,0],[0.5,0,0],[0.75,0,0],[1,0.25,0],[1,0.5,0],[1,0.75,0],[0.75,1,0],[0.5,1,0],[0.25,1,0],[0,0.75,0],[0,0.5,0],[0,0.25,0]];fontSize=20;gradientColor=#b3b3b3;fontColor=#000000;" parent="1" vertex="1">
            <mxGeometry x="1710" y="660" width="240" height="120" as="geometry" />
          </mxCell>
        </object>
        <object placeholders="1" c4Name="供应链" c4Type="SystemScopeBoundary" c4Application="" label="&lt;font style=&quot;font-size: 16px&quot;&gt;&lt;b&gt;&lt;div style=&quot;text-align: left&quot;&gt;%c4Name%&lt;/div&gt;&lt;/b&gt;&lt;/font&gt;&lt;div style=&quot;text-align: left&quot;&gt;[%c4Application%]&lt;/div&gt;" id="e9M98Qfh6EJku2T9XBrh-45">
          <mxCell style="rounded=1;fontSize=11;whiteSpace=wrap;html=1;dashed=1;arcSize=20;fillColor=none;strokeColor=#666666;fontColor=#333333;labelBackgroundColor=none;align=left;verticalAlign=bottom;labelBorderColor=none;spacingTop=0;spacing=10;dashPattern=8 4;metaEdit=1;rotatable=0;perimeter=rectanglePerimeter;noLabel=0;labelPadding=0;allowArrows=0;connectable=0;expand=0;recursiveResize=0;editable=1;pointerEvents=0;absoluteArcSize=1;points=[[0.25,0,0],[0.5,0,0],[0.75,0,0],[1,0.25,0],[1,0.5,0],[1,0.75,0],[0.75,1,0],[0.5,1,0],[0.25,1,0],[0,0.75,0],[0,0.5,0],[0,0.25,0]];" parent="1" vertex="1">
            <mxGeometry x="3230" y="760" width="1330" height="920" as="geometry" />
          </mxCell>
        </object>
        <mxCell id="e9M98Qfh6EJku2T9XBrh-58" style="edgeStyle=orthogonalEdgeStyle;rounded=0;orthogonalLoop=1;jettySize=auto;html=1;fontColor=#FF0000;" parent="1" source="e9M98Qfh6EJku2T9XBrh-46" target="e9M98Qfh6EJku2T9XBrh-57" edge="1">
          <mxGeometry relative="1" as="geometry" />
        </mxCell>
        <mxCell id="e9M98Qfh6EJku2T9XBrh-87" style="edgeStyle=orthogonalEdgeStyle;rounded=0;orthogonalLoop=1;jettySize=auto;html=1;entryX=1;entryY=0.5;entryDx=0;entryDy=0;entryPerimeter=0;fontSize=15;fontColor=#000000;" parent="1" source="e9M98Qfh6EJku2T9XBrh-46" target="e9M98Qfh6EJku2T9XBrh-65" edge="1">
          <mxGeometry relative="1" as="geometry" />
        </mxCell>
        <mxCell id="e9M98Qfh6EJku2T9XBrh-88" value="向导查询" style="edgeLabel;html=1;align=center;verticalAlign=middle;resizable=0;points=[];fontSize=15;fontColor=#000000;" parent="e9M98Qfh6EJku2T9XBrh-87" vertex="1" connectable="0">
          <mxGeometry x="0.3896" y="-1" relative="1" as="geometry">
            <mxPoint as="offset" />
          </mxGeometry>
        </mxCell>
        <object placeholders="1" c4Name="供应链系统" c4Type="100035542" c4Description="向导供应链运力管理DOMIAN服务" label="&lt;font style=&quot;font-size: 16px&quot;&gt;&lt;b&gt;%c4Name%&lt;/b&gt;&lt;/font&gt;&lt;div&gt;[%c4Type%]&lt;/div&gt;&lt;br&gt;&lt;div&gt;&lt;font style=&quot;font-size: 11px&quot;&gt;&lt;font color=&quot;#cccccc&quot;&gt;%c4Description%&lt;/font&gt;&lt;/div&gt;" id="e9M98Qfh6EJku2T9XBrh-46">
          <mxCell style="rounded=1;whiteSpace=wrap;html=1;labelBackgroundColor=none;fillColor=#8C8496;fontColor=#ffffff;align=center;arcSize=10;strokeColor=#736782;metaEdit=1;resizable=0;points=[[0.25,0,0],[0.5,0,0],[0.75,0,0],[1,0.25,0],[1,0.5,0],[1,0.75,0],[0.75,1,0],[0.5,1,0],[0.25,1,0],[0,0.75,0],[0,0.5,0],[0,0.25,0]];" parent="1" vertex="1">
            <mxGeometry x="3690" y="1079.53" width="240" height="120" as="geometry" />
          </mxCell>
        </object>
        <mxCell id="e9M98Qfh6EJku2T9XBrh-53" style="edgeStyle=orthogonalEdgeStyle;rounded=0;orthogonalLoop=1;jettySize=auto;html=1;fontColor=#FF0000;" parent="1" source="e9M98Qfh6EJku2T9XBrh-52" target="e9M98Qfh6EJku2T9XBrh-46" edge="1">
          <mxGeometry relative="1" as="geometry">
            <Array as="points">
              <mxPoint x="4030" y="1136" />
              <mxPoint x="4030" y="1136" />
            </Array>
          </mxGeometry>
        </mxCell>
        <mxCell id="e9M98Qfh6EJku2T9XBrh-54" value="&lt;font color=&quot;#000000&quot; style=&quot;font-size: 15px;&quot;&gt;&lt;b&gt;&amp;nbsp;入驻审核通过&lt;/b&gt;&lt;/font&gt;" style="edgeLabel;html=1;align=center;verticalAlign=middle;resizable=0;points=[];fontColor=#FF0000;" parent="e9M98Qfh6EJku2T9XBrh-53" vertex="1" connectable="0">
          <mxGeometry x="0.3122" y="1" relative="1" as="geometry">
            <mxPoint x="29" y="-1" as="offset" />
          </mxGeometry>
        </mxCell>
        <mxCell id="e9M98Qfh6EJku2T9XBrh-56" style="edgeStyle=orthogonalEdgeStyle;rounded=0;orthogonalLoop=1;jettySize=auto;html=1;entryX=0.5;entryY=0;entryDx=0;entryDy=0;entryPerimeter=0;fontColor=#FF0000;" parent="1" source="e9M98Qfh6EJku2T9XBrh-52" target="e9M98Qfh6EJku2T9XBrh-55" edge="1">
          <mxGeometry relative="1" as="geometry" />
        </mxCell>
        <object placeholders="1" c4Name="供应链入驻审核系统" c4Type="100036322" c4Description="向导供应链运力入驻DOMIAN服务" label="&lt;font style=&quot;font-size: 16px&quot;&gt;&lt;b&gt;%c4Name%&lt;/b&gt;&lt;/font&gt;&lt;div&gt;[%c4Type%]&lt;/div&gt;&lt;br&gt;&lt;div&gt;&lt;font style=&quot;font-size: 11px&quot;&gt;&lt;font color=&quot;#cccccc&quot;&gt;%c4Description%&lt;/font&gt;&lt;/div&gt;" id="e9M98Qfh6EJku2T9XBrh-52">
          <mxCell style="rounded=1;whiteSpace=wrap;html=1;labelBackgroundColor=none;fillColor=#8C8496;fontColor=#ffffff;align=center;arcSize=10;strokeColor=#736782;metaEdit=1;resizable=0;points=[[0.25,0,0],[0.5,0,0],[0.75,0,0],[1,0.25,0],[1,0.5,0],[1,0.75,0],[0.75,1,0],[0.5,1,0],[0.25,1,0],[0,0.75,0],[0,0.5,0],[0,0.25,0]];" parent="1" vertex="1">
            <mxGeometry x="4090" y="1076" width="240" height="120" as="geometry" />
          </mxCell>
        </object>
        <object placeholders="1" c4Type="dcsguideenterdb" c4Container="Container " c4Technology="MySQL" c4Description="供应链入驻库" label="&lt;font style=&quot;font-size: 20px;&quot;&gt;&lt;b style=&quot;font-size: 20px;&quot;&gt;%c4Type%&lt;/b&gt;&lt;/font&gt;&lt;div style=&quot;font-size: 20px;&quot;&gt;&lt;b style=&quot;font-size: 20px;&quot;&gt;[%c4Container%:&amp;nbsp;%c4Technology%]&lt;/b&gt;&lt;/div&gt;&lt;b style=&quot;font-size: 20px;&quot;&gt;&lt;br style=&quot;font-size: 20px;&quot;&gt;&lt;div style=&quot;font-size: 20px;&quot;&gt;&lt;font style=&quot;font-size: 20px;&quot;&gt;&lt;font style=&quot;font-size: 20px;&quot;&gt;%c4Description%&lt;/font&gt;&lt;/font&gt;&lt;/div&gt;&lt;/b&gt;" remark="供应链入驻库" id="e9M98Qfh6EJku2T9XBrh-55">
          <mxCell style="shape=cylinder3;size=15;whiteSpace=wrap;html=1;boundedLbl=1;rounded=0;labelBackgroundColor=none;fillColor=#23A2D9;fontSize=20;fontColor=#FFFFFF;align=center;strokeColor=#0E7DAD;metaEdit=1;points=[[0.5,0,0],[1,0.25,0],[1,0.5,0],[1,0.75,0],[0.5,1,0],[0,0.75,0],[0,0.5,0],[0,0.25,0]];resizable=0;" parent="1" vertex="1">
            <mxGeometry x="4090" y="1330" width="240" height="120" as="geometry" />
          </mxCell>
        </object>
        <mxCell id="e9M98Qfh6EJku2T9XBrh-70" style="edgeStyle=orthogonalEdgeStyle;rounded=0;orthogonalLoop=1;jettySize=auto;html=1;fontColor=#FF0000;" parent="1" source="e9M98Qfh6EJku2T9XBrh-57" target="e9M98Qfh6EJku2T9XBrh-69" edge="1">
          <mxGeometry relative="1" as="geometry">
            <mxPoint x="3400" y="1560" as="targetPoint" />
            <Array as="points">
              <mxPoint x="3820" y="1560" />
            </Array>
          </mxGeometry>
        </mxCell>
        <mxCell id="e9M98Qfh6EJku2T9XBrh-71" value="&lt;div style=&quot;text-align: left;&quot;&gt;&lt;b style=&quot;color: rgb(0, 0, 0); font-size: 15px;&quot;&gt;Cannel 消息&lt;/b&gt;&lt;/div&gt;&lt;font color=&quot;#000000&quot;&gt;&lt;div style=&quot;text-align: left;&quot;&gt;&lt;span style=&quot;font-size: 15px;&quot;&gt;&lt;b&gt;&lt;br&gt;&lt;/b&gt;&lt;/span&gt;&lt;/div&gt;&lt;b style=&quot;font-size: 15px;&quot;&gt;&lt;div style=&quot;text-align: left;&quot;&gt;&lt;b&gt;1. 向导下线&lt;/b&gt;&lt;/div&gt;&lt;div style=&quot;text-align: left;&quot;&gt;&lt;b&gt;2. 向导上线&lt;/b&gt;&lt;/div&gt;&lt;div style=&quot;text-align: left;&quot;&gt;&lt;b&gt;3. 创建向导，UID变更&lt;/b&gt;&lt;/div&gt;&lt;div style=&quot;text-align: left;&quot;&gt;&lt;b&gt;4. 向导基础数据变更&lt;/b&gt;&lt;/div&gt;&lt;/b&gt;&lt;/font&gt;" style="edgeLabel;html=1;align=center;verticalAlign=middle;resizable=0;points=[];fontColor=#FF0000;" parent="e9M98Qfh6EJku2T9XBrh-70" vertex="1" connectable="0">
          <mxGeometry x="-0.242" y="4" relative="1" as="geometry">
            <mxPoint x="-94" y="-4" as="offset" />
          </mxGeometry>
        </mxCell>
        <mxCell id="e9M98Qfh6EJku2T9XBrh-91" style="edgeStyle=orthogonalEdgeStyle;rounded=0;orthogonalLoop=1;jettySize=auto;html=1;fontSize=15;fontColor=#000000;" parent="1" source="e9M98Qfh6EJku2T9XBrh-57" target="e9M98Qfh6EJku2T9XBrh-65" edge="1">
          <mxGeometry relative="1" as="geometry" />
        </mxCell>
        <mxCell id="e9M98Qfh6EJku2T9XBrh-92" value="映射查询" style="edgeLabel;html=1;align=center;verticalAlign=middle;resizable=0;points=[];fontSize=15;fontColor=#000000;" parent="e9M98Qfh6EJku2T9XBrh-91" vertex="1" connectable="0">
          <mxGeometry x="0.2746" y="-3" relative="1" as="geometry">
            <mxPoint as="offset" />
          </mxGeometry>
        </mxCell>
        <object placeholders="1" c4Type="dcsguidesupplydb" c4Container="Container " c4Technology="MySQL" c4Description="向导核心库" label="&lt;font style=&quot;font-size: 20px;&quot;&gt;&lt;b style=&quot;font-size: 20px;&quot;&gt;%c4Type%&lt;/b&gt;&lt;/font&gt;&lt;div style=&quot;font-size: 20px;&quot;&gt;&lt;b style=&quot;font-size: 20px;&quot;&gt;[%c4Container%:&amp;nbsp;%c4Technology%]&lt;/b&gt;&lt;/div&gt;&lt;b style=&quot;font-size: 20px;&quot;&gt;&lt;br style=&quot;font-size: 20px;&quot;&gt;&lt;div style=&quot;font-size: 20px;&quot;&gt;&lt;font style=&quot;font-size: 20px;&quot;&gt;&lt;font color=&quot;#E6E6E6&quot; style=&quot;font-size: 20px;&quot;&gt;%c4Description%&lt;/font&gt;&lt;/font&gt;&lt;/div&gt;&lt;/b&gt;" remark="保存大向导和小向导的映射信息" id="e9M98Qfh6EJku2T9XBrh-57">
          <mxCell style="shape=cylinder3;size=15;whiteSpace=wrap;html=1;boundedLbl=1;rounded=0;labelBackgroundColor=none;fillColor=#23A2D9;fontSize=20;fontColor=#ffffff;align=center;strokeColor=#0E7DAD;metaEdit=1;points=[[0.5,0,0],[1,0.25,0],[1,0.5,0],[1,0.75,0],[0.5,1,0],[0,0.75,0],[0,0.5,0],[0,0.25,0]];resizable=0;" parent="1" vertex="1">
            <mxGeometry x="3690" y="1260" width="240" height="120" as="geometry" />
          </mxCell>
        </object>
        <mxCell id="e9M98Qfh6EJku2T9XBrh-60" style="edgeStyle=orthogonalEdgeStyle;rounded=0;orthogonalLoop=1;jettySize=auto;html=1;fontColor=#FF0000;" parent="1" source="e9M98Qfh6EJku2T9XBrh-59" target="e9M98Qfh6EJku2T9XBrh-52" edge="1">
          <mxGeometry relative="1" as="geometry" />
        </mxCell>
        <object placeholders="1" c4Name="H5 Rest 服务" c4Type="100033234" c4Description="入驻" label="&lt;font style=&quot;font-size: 16px&quot;&gt;&lt;b&gt;%c4Name%&lt;/b&gt;&lt;/font&gt;&lt;div&gt;[%c4Type%]&lt;/div&gt;&lt;br&gt;&lt;div&gt;&lt;font style=&quot;font-size: 11px&quot;&gt;&lt;font color=&quot;#cccccc&quot;&gt;%c4Description%&lt;/font&gt;&lt;/div&gt;" id="e9M98Qfh6EJku2T9XBrh-59">
          <mxCell style="rounded=1;whiteSpace=wrap;html=1;labelBackgroundColor=none;fillColor=#8C8496;fontColor=#ffffff;align=center;arcSize=10;strokeColor=#736782;metaEdit=1;resizable=0;points=[[0.25,0,0],[0.5,0,0],[0.75,0,0],[1,0.25,0],[1,0.5,0],[1,0.75,0],[0.75,1,0],[0.5,1,0],[0.25,1,0],[0,0.75,0],[0,0.5,0],[0,0.25,0]];" parent="1" vertex="1">
            <mxGeometry x="4230" y="830" width="240" height="120" as="geometry" />
          </mxCell>
        </object>
        <mxCell id="e9M98Qfh6EJku2T9XBrh-62" style="edgeStyle=orthogonalEdgeStyle;rounded=0;orthogonalLoop=1;jettySize=auto;html=1;entryX=0.5;entryY=0;entryDx=0;entryDy=0;entryPerimeter=0;fontColor=#FF0000;" parent="1" source="e9M98Qfh6EJku2T9XBrh-61" target="e9M98Qfh6EJku2T9XBrh-52" edge="1">
          <mxGeometry relative="1" as="geometry" />
        </mxCell>
        <object placeholders="1" c4Name="工作台 Rest 服务" c4Type="100035546" c4Description="入驻" label="&lt;font style=&quot;font-size: 16px&quot;&gt;&lt;b&gt;%c4Name%&lt;/b&gt;&lt;/font&gt;&lt;div&gt;[%c4Type%]&lt;/div&gt;&lt;br&gt;&lt;div&gt;&lt;font style=&quot;font-size: 11px&quot;&gt;&lt;font color=&quot;#cccccc&quot;&gt;%c4Description%&lt;/font&gt;&lt;/div&gt;" id="e9M98Qfh6EJku2T9XBrh-61">
          <mxCell style="rounded=1;whiteSpace=wrap;html=1;labelBackgroundColor=none;fillColor=#8C8496;fontColor=#ffffff;align=center;arcSize=10;strokeColor=#736782;metaEdit=1;resizable=0;points=[[0.25,0,0],[0.5,0,0],[0.75,0,0],[1,0.25,0],[1,0.5,0],[1,0.75,0],[0.75,1,0],[0.5,1,0],[0.25,1,0],[0,0.75,0],[0,0.5,0],[0,0.25,0]];" parent="1" vertex="1">
            <mxGeometry x="3950" y="830" width="240" height="120" as="geometry" />
          </mxCell>
        </object>
        <mxCell id="e9M98Qfh6EJku2T9XBrh-79" style="edgeStyle=orthogonalEdgeStyle;rounded=0;orthogonalLoop=1;jettySize=auto;html=1;entryX=0.5;entryY=0;entryDx=0;entryDy=0;entryPerimeter=0;fontSize=15;fontColor=#000000;" parent="1" source="e9M98Qfh6EJku2T9XBrh-14" target="e9M98Qfh6EJku2T9XBrh-63" edge="1">
          <mxGeometry relative="1" as="geometry" />
        </mxCell>
        <mxCell id="e9M98Qfh6EJku2T9XBrh-99" style="edgeStyle=orthogonalEdgeStyle;rounded=0;orthogonalLoop=1;jettySize=auto;html=1;exitX=1;exitY=0.75;exitDx=0;exitDy=0;exitPerimeter=0;fontSize=15;fontColor=#000000;" parent="1" source="e9M98Qfh6EJku2T9XBrh-14" edge="1">
          <mxGeometry relative="1" as="geometry">
            <mxPoint x="3430" y="1080" as="targetPoint" />
            <Array as="points">
              <mxPoint x="3430" y="740" />
            </Array>
          </mxGeometry>
        </mxCell>
        <object placeholders="1" c4Name="派发Case" c4Type="100035782" c4Description="" label="&lt;font style=&quot;font-size: 20px;&quot;&gt;&lt;b style=&quot;font-size: 20px;&quot;&gt;%c4Name%&lt;/b&gt;&lt;/font&gt;&lt;div style=&quot;font-size: 20px;&quot;&gt;[%c4Type%]&lt;/div&gt;&lt;br style=&quot;font-size: 20px;&quot;&gt;&lt;div style=&quot;font-size: 20px;&quot;&gt;&lt;font style=&quot;font-size: 20px;&quot;&gt;&lt;font color=&quot;#cccccc&quot; style=&quot;font-size: 20px;&quot;&gt;%c4Description%&lt;/font&gt;&lt;/font&gt;&lt;/div&gt;" id="e9M98Qfh6EJku2T9XBrh-14">
          <mxCell style="rounded=0;whiteSpace=wrap;html=1;labelBackgroundColor=none;fillColor=#1061B0;fontColor=#ffffff;align=center;arcSize=10;strokeColor=#0D5091;metaEdit=1;resizable=0;points=[[0.25,0,0],[0.5,0,0],[0.75,0,0],[1,0.25,0],[1,0.5,0],[1,0.75,0],[0.75,1,0],[0.5,1,0],[0.25,1,0],[0,0.75,0],[0,0.5,0],[0,0.25,0]];fontSize=20;" parent="1" vertex="1">
            <mxGeometry x="2895" y="650.0000000000001" width="240" height="120" as="geometry" />
          </mxCell>
        </object>
        <mxCell id="e9M98Qfh6EJku2T9XBrh-64" style="edgeStyle=orthogonalEdgeStyle;rounded=0;orthogonalLoop=1;jettySize=auto;html=1;fontColor=#FF0000;" parent="1" source="e9M98Qfh6EJku2T9XBrh-63" target="e9M98Qfh6EJku2T9XBrh-37" edge="1">
          <mxGeometry relative="1" as="geometry" />
        </mxCell>
        <mxCell id="e9M98Qfh6EJku2T9XBrh-83" style="edgeStyle=orthogonalEdgeStyle;rounded=0;orthogonalLoop=1;jettySize=auto;html=1;entryX=1;entryY=0.5;entryDx=0;entryDy=0;entryPerimeter=0;fontSize=15;fontColor=#000000;" parent="1" source="e9M98Qfh6EJku2T9XBrh-63" target="e9M98Qfh6EJku2T9XBrh-81" edge="1">
          <mxGeometry relative="1" as="geometry" />
        </mxCell>
        <mxCell id="e9M98Qfh6EJku2T9XBrh-84" value="订单向导关系" style="edgeLabel;html=1;align=center;verticalAlign=middle;resizable=0;points=[];fontSize=15;fontColor=#000000;" parent="e9M98Qfh6EJku2T9XBrh-83" vertex="1" connectable="0">
          <mxGeometry x="-0.2227" relative="1" as="geometry">
            <mxPoint x="-19" as="offset" />
          </mxGeometry>
        </mxCell>
        <object placeholders="1" c4Name="派发Domain" c4Type="100035784" c4Description="" label="&lt;font style=&quot;font-size: 16px&quot;&gt;&lt;b&gt;%c4Name%&lt;/b&gt;&lt;/font&gt;&lt;div&gt;[%c4Type%]&lt;/div&gt;&lt;br&gt;&lt;div&gt;&lt;font style=&quot;font-size: 11px&quot;&gt;&lt;font color=&quot;#cccccc&quot;&gt;%c4Description%&lt;/font&gt;&lt;/div&gt;" id="e9M98Qfh6EJku2T9XBrh-63">
          <mxCell style="rounded=1;whiteSpace=wrap;html=1;labelBackgroundColor=none;fillColor=#1061B0;fontColor=#ffffff;align=center;arcSize=10;strokeColor=#0D5091;metaEdit=1;resizable=0;points=[[0.25,0,0],[0.5,0,0],[0.75,0,0],[1,0.25,0],[1,0.5,0],[1,0.75,0],[0.75,1,0],[0.5,1,0],[0.25,1,0],[0,0.75,0],[0,0.5,0],[0,0.25,0]];" parent="1" vertex="1">
            <mxGeometry x="2895" y="820.0000000000001" width="240" height="120" as="geometry" />
          </mxCell>
        </object>
        <object placeholders="1" c4Type="dcsguidedspdb" c4Container="Container " c4Technology="MySQL" c4Description="向导派发库" label="&lt;font style=&quot;font-size: 20px;&quot;&gt;&lt;b style=&quot;font-size: 20px;&quot;&gt;%c4Type%&lt;/b&gt;&lt;/font&gt;&lt;div style=&quot;font-size: 20px;&quot;&gt;&lt;b style=&quot;font-size: 20px;&quot;&gt;[%c4Container%:&amp;nbsp;%c4Technology%]&lt;/b&gt;&lt;/div&gt;&lt;b style=&quot;font-size: 20px;&quot;&gt;&lt;br style=&quot;font-size: 20px;&quot;&gt;&lt;div style=&quot;font-size: 20px;&quot;&gt;&lt;font style=&quot;font-size: 20px;&quot;&gt;&lt;font style=&quot;font-size: 20px;&quot;&gt;%c4Description%&lt;/font&gt;&lt;/font&gt;&lt;/div&gt;&lt;/b&gt;" remark="存储订单信息" id="e9M98Qfh6EJku2T9XBrh-37">
          <mxCell style="shape=cylinder3;size=15;whiteSpace=wrap;html=1;boundedLbl=1;rounded=0;labelBackgroundColor=none;fillColor=#23A2D9;fontSize=20;fontColor=#FFFFFF;align=center;strokeColor=#0E7DAD;metaEdit=1;points=[[0.5,0,0],[1,0.25,0],[1,0.5,0],[1,0.75,0],[0.5,1,0],[0,0.75,0],[0,0.5,0],[0,0.25,0]];resizable=0;" parent="1" vertex="1">
            <mxGeometry x="2895" y="1040" width="240" height="120" as="geometry" />
          </mxCell>
        </object>
        <mxCell id="e9M98Qfh6EJku2T9XBrh-85" style="edgeStyle=orthogonalEdgeStyle;rounded=0;orthogonalLoop=1;jettySize=auto;html=1;fontSize=15;fontColor=#000000;entryX=0.75;entryY=1;entryDx=0;entryDy=0;entryPerimeter=0;" parent="1" source="e9M98Qfh6EJku2T9XBrh-65" target="e9M98Qfh6EJku2T9XBrh-63" edge="1">
          <mxGeometry relative="1" as="geometry">
            <mxPoint x="3135" y="1020" as="targetPoint" />
            <Array as="points">
              <mxPoint x="3410" y="1020" />
              <mxPoint x="3075" y="1020" />
            </Array>
          </mxGeometry>
        </mxCell>
        <mxCell id="e9M98Qfh6EJku2T9XBrh-86" value="取供应商信息" style="edgeLabel;html=1;align=center;verticalAlign=middle;resizable=0;points=[];fontSize=15;fontColor=#000000;" parent="e9M98Qfh6EJku2T9XBrh-85" vertex="1" connectable="0">
          <mxGeometry x="-0.0171" y="4" relative="1" as="geometry">
            <mxPoint y="-4" as="offset" />
          </mxGeometry>
        </mxCell>
        <mxCell id="e9M98Qfh6EJku2T9XBrh-94" style="edgeStyle=orthogonalEdgeStyle;rounded=0;orthogonalLoop=1;jettySize=auto;html=1;entryX=1;entryY=0.75;entryDx=0;entryDy=0;entryPerimeter=0;fontSize=15;fontColor=#000000;" parent="1" source="e9M98Qfh6EJku2T9XBrh-65" target="e9M98Qfh6EJku2T9XBrh-93" edge="1">
          <mxGeometry relative="1" as="geometry">
            <Array as="points">
              <mxPoint x="2760" y="1170" />
            </Array>
          </mxGeometry>
        </mxCell>
        <mxCell id="RQQ6BSriDlIgb6jZDKkk-1" value="跟据大向导，小向导查询关系" style="edgeLabel;html=1;align=center;verticalAlign=middle;resizable=0;points=[];" parent="e9M98Qfh6EJku2T9XBrh-94" vertex="1" connectable="0">
          <mxGeometry x="-0.6491" relative="1" as="geometry">
            <mxPoint as="offset" />
          </mxGeometry>
        </mxCell>
        <mxCell id="e9M98Qfh6EJku2T9XBrh-95" style="edgeStyle=orthogonalEdgeStyle;rounded=0;orthogonalLoop=1;jettySize=auto;html=1;exitX=0.75;exitY=0;exitDx=0;exitDy=0;exitPerimeter=0;entryX=0.25;entryY=0;entryDx=0;entryDy=0;entryPerimeter=0;fontSize=15;fontColor=#000000;" parent="1" source="e9M98Qfh6EJku2T9XBrh-65" target="e9M98Qfh6EJku2T9XBrh-52" edge="1">
          <mxGeometry relative="1" as="geometry">
            <Array as="points">
              <mxPoint x="3470" y="1030" />
              <mxPoint x="4150" y="1030" />
            </Array>
          </mxGeometry>
        </mxCell>
        <mxCell id="e9M98Qfh6EJku2T9XBrh-96" value="为什么依赖" style="edgeLabel;html=1;align=center;verticalAlign=middle;resizable=0;points=[];fontSize=15;fontColor=#000000;fontStyle=1" parent="e9M98Qfh6EJku2T9XBrh-95" vertex="1" connectable="0">
          <mxGeometry x="-0.5558" y="4" relative="1" as="geometry">
            <mxPoint as="offset" />
          </mxGeometry>
        </mxCell>
        <mxCell id="e9M98Qfh6EJku2T9XBrh-97" style="edgeStyle=orthogonalEdgeStyle;rounded=0;orthogonalLoop=1;jettySize=auto;html=1;entryX=0.25;entryY=1;entryDx=0;entryDy=0;entryPerimeter=0;fontSize=15;fontColor=#000000;" parent="1" source="e9M98Qfh6EJku2T9XBrh-65" target="e9M98Qfh6EJku2T9XBrh-46" edge="1">
          <mxGeometry relative="1" as="geometry">
            <Array as="points">
              <mxPoint x="3470" y="1230" />
              <mxPoint x="3750" y="1230" />
            </Array>
          </mxGeometry>
        </mxCell>
        <mxCell id="e9M98Qfh6EJku2T9XBrh-98" value="错误依赖" style="edgeLabel;html=1;align=center;verticalAlign=middle;resizable=0;points=[];fontSize=15;fontColor=#000000;fontStyle=1" parent="e9M98Qfh6EJku2T9XBrh-97" vertex="1" connectable="0">
          <mxGeometry x="-0.366" y="-3" relative="1" as="geometry">
            <mxPoint x="62" y="-3" as="offset" />
          </mxGeometry>
        </mxCell>
        <mxCell id="e9M98Qfh6EJku2T9XBrh-102" style="edgeStyle=orthogonalEdgeStyle;rounded=0;orthogonalLoop=1;jettySize=auto;html=1;exitX=0.25;exitY=1;exitDx=0;exitDy=0;exitPerimeter=0;entryX=1;entryY=0.5;entryDx=0;entryDy=0;entryPerimeter=0;fontSize=15;fontColor=#000000;" parent="1" source="e9M98Qfh6EJku2T9XBrh-65" target="e9M98Qfh6EJku2T9XBrh-101" edge="1">
          <mxGeometry relative="1" as="geometry" />
        </mxCell>
        <object placeholders="1" c4Name="向导映射服务" c4Type="100036158" c4Description="大向导和小向导映射关系" label="&lt;font style=&quot;font-size: 16px&quot;&gt;&lt;b&gt;%c4Name%&lt;/b&gt;&lt;/font&gt;&lt;div&gt;[%c4Type%]&lt;/div&gt;&lt;br&gt;&lt;div&gt;&lt;font style=&quot;font-size: 11px&quot;&gt;&lt;font color=&quot;#cccccc&quot;&gt;%c4Description%&lt;/font&gt;&lt;/div&gt;" id="e9M98Qfh6EJku2T9XBrh-65">
          <mxCell style="rounded=1;whiteSpace=wrap;html=1;labelBackgroundColor=none;fillColor=#1061B0;fontColor=#ffffff;align=center;arcSize=10;strokeColor=#0D5091;metaEdit=1;resizable=0;points=[[0.25,0,0],[0.5,0,0],[0.75,0,0],[1,0.25,0],[1,0.5,0],[1,0.75,0],[0.75,1,0],[0.5,1,0],[0.25,1,0],[0,0.75,0],[0,0.5,0],[0,0.25,0]];" parent="1" vertex="1">
            <mxGeometry x="3290" y="1079.53" width="240" height="120" as="geometry" />
          </mxCell>
        </object>
        <mxCell id="e9M98Qfh6EJku2T9XBrh-80" style="edgeStyle=orthogonalEdgeStyle;rounded=0;orthogonalLoop=1;jettySize=auto;html=1;fontSize=15;fontColor=#000000;" parent="1" source="e9M98Qfh6EJku2T9XBrh-69" target="e9M98Qfh6EJku2T9XBrh-75" edge="1">
          <mxGeometry relative="1" as="geometry">
            <Array as="points">
              <mxPoint x="3110" y="1530" />
              <mxPoint x="3110" y="1530" />
            </Array>
          </mxGeometry>
        </mxCell>
        <mxCell id="RQQ6BSriDlIgb6jZDKkk-2" value="&lt;span style=&quot;font-family: -apple-system, BlinkMacSystemFont, &amp;quot;Microsoft Yahei&amp;quot;, emoji-one, sans-serif; font-size: 14px; text-align: left;&quot;&gt;数据同步roleId=28的逻辑优化&amp;nbsp;&lt;br&gt;改成查询 status&amp;nbsp;&lt;br&gt;&lt;/span&gt;" style="edgeLabel;html=1;align=center;verticalAlign=middle;resizable=0;points=[];" parent="e9M98Qfh6EJku2T9XBrh-80" vertex="1" connectable="0">
          <mxGeometry x="0.3444" y="2" relative="1" as="geometry">
            <mxPoint as="offset" />
          </mxGeometry>
        </mxCell>
        <mxCell id="RQQ6BSriDlIgb6jZDKkk-7" style="edgeStyle=orthogonalEdgeStyle;rounded=0;orthogonalLoop=1;jettySize=auto;html=1;exitX=0;exitY=0.75;exitDx=0;exitDy=0;exitPerimeter=0;entryX=1;entryY=0.75;entryDx=0;entryDy=0;entryPerimeter=0;" parent="1" source="e9M98Qfh6EJku2T9XBrh-69" target="e9M98Qfh6EJku2T9XBrh-75" edge="1">
          <mxGeometry relative="1" as="geometry" />
        </mxCell>
        <mxCell id="RQQ6BSriDlIgb6jZDKkk-8" value="自动审核" style="edgeLabel;html=1;align=center;verticalAlign=middle;resizable=0;points=[];" parent="RQQ6BSriDlIgb6jZDKkk-7" vertex="1" connectable="0">
          <mxGeometry x="0.3407" y="-2" relative="1" as="geometry">
            <mxPoint as="offset" />
          </mxGeometry>
        </mxCell>
        <object placeholders="1" c4Name="数据同步服务" c4Type="100036176" c4Description="同步数据到社会化" label="&lt;font style=&quot;font-size: 16px&quot;&gt;&lt;b&gt;%c4Name%&lt;/b&gt;&lt;/font&gt;&lt;div&gt;[%c4Type%]&lt;/div&gt;&lt;br&gt;&lt;div&gt;&lt;font style=&quot;font-size: 11px&quot;&gt;&lt;font color=&quot;#cccccc&quot;&gt;%c4Description%&lt;/font&gt;&lt;/div&gt;" id="e9M98Qfh6EJku2T9XBrh-69">
          <mxCell style="rounded=1;whiteSpace=wrap;html=1;labelBackgroundColor=none;fillColor=#1061B0;fontColor=#ffffff;align=center;arcSize=10;strokeColor=#0D5091;metaEdit=1;resizable=0;points=[[0.25,0,0],[0.5,0,0],[0.75,0,0],[1,0.25,0],[1,0.5,0],[1,0.75,0],[0.75,1,0],[0.5,1,0],[0.25,1,0],[0,0.75,0],[0,0.5,0],[0,0.25,0]];" parent="1" vertex="1">
            <mxGeometry x="3290" y="1503.53" width="240" height="120" as="geometry" />
          </mxCell>
        </object>
        <mxCell id="e9M98Qfh6EJku2T9XBrh-72" style="edgeStyle=orthogonalEdgeStyle;rounded=0;orthogonalLoop=1;jettySize=auto;html=1;entryX=0.5;entryY=0;entryDx=0;entryDy=0;entryPerimeter=0;fontSize=15;fontColor=#000000;" parent="1" source="e9M98Qfh6EJku2T9XBrh-11" target="e9M98Qfh6EJku2T9XBrh-14" edge="1">
          <mxGeometry relative="1" as="geometry" />
        </mxCell>
        <object placeholders="1" c4Name="派发Rest" c4Type="100035780" c4Description="" label="&lt;font style=&quot;font-size: 20px;&quot;&gt;&lt;b style=&quot;font-size: 20px;&quot;&gt;%c4Name%&lt;/b&gt;&lt;/font&gt;&lt;div style=&quot;font-size: 20px;&quot;&gt;[%c4Type%]&lt;/div&gt;&lt;br style=&quot;font-size: 20px;&quot;&gt;&lt;div style=&quot;font-size: 20px;&quot;&gt;&lt;font style=&quot;font-size: 20px;&quot;&gt;&lt;font color=&quot;#cccccc&quot; style=&quot;font-size: 20px;&quot;&gt;%c4Description%&lt;/font&gt;&lt;/font&gt;&lt;/div&gt;" id="e9M98Qfh6EJku2T9XBrh-11">
          <mxCell style="rounded=0;whiteSpace=wrap;html=1;labelBackgroundColor=none;fillColor=#1061B0;fontColor=#ffffff;align=center;arcSize=10;strokeColor=#0D5091;metaEdit=1;resizable=0;points=[[0.25,0,0],[0.5,0,0],[0.75,0,0],[1,0.25,0],[1,0.5,0],[1,0.75,0],[0.75,1,0],[0.5,1,0],[0.25,1,0],[0,0.75,0],[0,0.5,0],[0,0.25,0]];fontSize=20;" parent="1" vertex="1">
            <mxGeometry x="2895" y="490" width="240" height="120" as="geometry" />
          </mxCell>
        </object>
        <object placeholders="1" c4Name="派发系统" c4Type="" c4Application="" label="&lt;font style=&quot;font-size: 16px&quot;&gt;&lt;b&gt;&lt;div style=&quot;text-align: left&quot;&gt;%c4Name%&lt;/div&gt;&lt;/b&gt;&lt;/font&gt;&lt;div style=&quot;text-align: left&quot;&gt;[%c4Application%]&lt;/div&gt;" id="e9M98Qfh6EJku2T9XBrh-73">
          <mxCell style="rounded=1;fontSize=11;whiteSpace=wrap;html=1;dashed=1;arcSize=20;fillColor=none;strokeColor=#666666;fontColor=#333333;labelBackgroundColor=none;align=left;verticalAlign=bottom;labelBorderColor=none;spacingTop=0;spacing=10;dashPattern=8 4;metaEdit=1;rotatable=0;perimeter=rectanglePerimeter;noLabel=0;labelPadding=0;allowArrows=0;connectable=0;expand=0;recursiveResize=0;editable=1;pointerEvents=0;absoluteArcSize=1;points=[[0.25,0,0],[0.5,0,0],[0.75,0,0],[1,0.25,0],[1,0.5,0],[1,0.75,0],[0.75,1,0],[0.5,1,0],[0.25,1,0],[0,0.75,0],[0,0.5,0],[0,0.25,0]];" parent="1" vertex="1">
            <mxGeometry x="2820" y="430" width="350" height="1000" as="geometry" />
          </mxCell>
        </object>
        <object placeholders="1" c4Name="社会化系统" c4Type="" c4Application="" label="&lt;font style=&quot;font-size: 16px&quot;&gt;&lt;b&gt;&lt;div style=&quot;text-align: left&quot;&gt;%c4Name%&lt;/div&gt;&lt;/b&gt;&lt;/font&gt;&lt;div style=&quot;text-align: left&quot;&gt;[%c4Application%]&lt;/div&gt;" id="e9M98Qfh6EJku2T9XBrh-74">
          <mxCell style="rounded=1;fontSize=11;whiteSpace=wrap;html=1;dashed=1;arcSize=20;fillColor=none;strokeColor=#666666;fontColor=#333333;labelBackgroundColor=none;align=left;verticalAlign=bottom;labelBorderColor=none;spacingTop=0;spacing=10;dashPattern=8 4;metaEdit=1;rotatable=0;perimeter=rectanglePerimeter;noLabel=0;labelPadding=0;allowArrows=0;connectable=0;expand=0;recursiveResize=0;editable=1;pointerEvents=0;absoluteArcSize=1;points=[[0.25,0,0],[0.5,0,0],[0.75,0,0],[1,0.25,0],[1,0.5,0],[1,0.75,0],[0.75,1,0],[0.5,1,0],[0.25,1,0],[0,0.75,0],[0,0.5,0],[0,0.25,0]];" parent="1" vertex="1">
            <mxGeometry x="2460" y="1290" width="339" height="380" as="geometry" />
          </mxCell>
        </object>
        <mxCell id="RQQ6BSriDlIgb6jZDKkk-5" style="edgeStyle=orthogonalEdgeStyle;rounded=0;orthogonalLoop=1;jettySize=auto;html=1;" parent="1" source="e9M98Qfh6EJku2T9XBrh-75" target="e9M98Qfh6EJku2T9XBrh-69" edge="1">
          <mxGeometry relative="1" as="geometry" />
        </mxCell>
        <mxCell id="RQQ6BSriDlIgb6jZDKkk-6" value="&amp;nbsp;回调，创建成功" style="edgeLabel;html=1;align=center;verticalAlign=middle;resizable=0;points=[];" parent="RQQ6BSriDlIgb6jZDKkk-5" vertex="1" connectable="0">
          <mxGeometry x="0.2963" y="-3" relative="1" as="geometry">
            <mxPoint as="offset" />
          </mxGeometry>
        </mxCell>
        <mxCell id="RQQ6BSriDlIgb6jZDKkk-9" style="edgeStyle=orthogonalEdgeStyle;rounded=0;orthogonalLoop=1;jettySize=auto;html=1;entryX=0.25;entryY=1;entryDx=0;entryDy=0;entryPerimeter=0;" parent="1" source="e9M98Qfh6EJku2T9XBrh-75" target="e9M98Qfh6EJku2T9XBrh-69" edge="1">
          <mxGeometry relative="1" as="geometry">
            <Array as="points">
              <mxPoint x="2630" y="1700" />
              <mxPoint x="3350" y="1700" />
            </Array>
          </mxGeometry>
        </mxCell>
        <mxCell id="RQQ6BSriDlIgb6jZDKkk-10" value="审核结果&amp;nbsp;" style="edgeLabel;html=1;align=center;verticalAlign=middle;resizable=0;points=[];" parent="RQQ6BSriDlIgb6jZDKkk-9" vertex="1" connectable="0">
          <mxGeometry x="-0.1603" y="2" relative="1" as="geometry">
            <mxPoint as="offset" />
          </mxGeometry>
        </mxCell>
        <object placeholders="1" c4Name="社会化平台" c4Type="100002591" c4Description="" label="&lt;font style=&quot;font-size: 16px&quot;&gt;&lt;b&gt;%c4Name%&lt;/b&gt;&lt;/font&gt;&lt;div&gt;[%c4Type%]&lt;/div&gt;&lt;br&gt;&lt;div&gt;&lt;font style=&quot;font-size: 11px&quot;&gt;&lt;font color=&quot;#cccccc&quot;&gt;%c4Description%&lt;/font&gt;&lt;/div&gt;" id="e9M98Qfh6EJku2T9XBrh-75">
          <mxCell style="rounded=1;whiteSpace=wrap;html=1;labelBackgroundColor=none;fillColor=#8C8496;fontColor=#ffffff;align=center;arcSize=10;strokeColor=#736782;metaEdit=1;resizable=0;points=[[0.25,0,0],[0.5,0,0],[0.75,0,0],[1,0.25,0],[1,0.5,0],[1,0.75,0],[0.75,1,0],[0.5,1,0],[0.25,1,0],[0,0.75,0],[0,0.5,0],[0,0.25,0]];" parent="1" vertex="1">
            <mxGeometry x="2510" y="1503.53" width="240" height="120" as="geometry" />
          </mxCell>
        </object>
        <mxCell id="u_817gdeLGDi_4dvMe4v-2" style="edgeStyle=orthogonalEdgeStyle;rounded=0;orthogonalLoop=1;jettySize=auto;html=1;" parent="1" source="e9M98Qfh6EJku2T9XBrh-81" edge="1">
          <mxGeometry relative="1" as="geometry">
            <mxPoint x="2630.0000000000005" y="1510" as="targetPoint" />
            <Array as="points">
              <mxPoint x="2630" y="1030" />
              <mxPoint x="2630" y="1030" />
            </Array>
          </mxGeometry>
        </mxCell>
        <object placeholders="1" c4Name="玩乐_供应商_订单处理服务" c4Type="100011437" c4Description="" label="&lt;font style=&quot;font-size: 16px&quot;&gt;&lt;b&gt;%c4Name%&lt;/b&gt;&lt;/font&gt;&lt;div&gt;[%c4Type%]&lt;/div&gt;&lt;br&gt;&lt;div&gt;&lt;font style=&quot;font-size: 11px&quot;&gt;&lt;font color=&quot;#cccccc&quot;&gt;%c4Description%&lt;/font&gt;&lt;/div&gt;" id="e9M98Qfh6EJku2T9XBrh-81">
          <mxCell style="rounded=1;whiteSpace=wrap;html=1;labelBackgroundColor=none;fillColor=#8C8496;fontColor=#ffffff;align=center;arcSize=10;strokeColor=#736782;metaEdit=1;resizable=0;points=[[0.25,0,0],[0.5,0,0],[0.75,0,0],[1,0.25,0],[1,0.5,0],[1,0.75,0],[0.75,1,0],[0.5,1,0],[0.25,1,0],[0,0.75,0],[0,0.5,0],[0,0.25,0]];" parent="1" vertex="1">
            <mxGeometry x="2520" y="820" width="240" height="120" as="geometry" />
          </mxCell>
        </object>
        <object placeholders="1" c4Name="玩乐订单" c4Type="" c4Application="" label="&lt;font style=&quot;font-size: 16px&quot;&gt;&lt;b&gt;&lt;div style=&quot;text-align: left&quot;&gt;%c4Name%&lt;/div&gt;&lt;/b&gt;&lt;/font&gt;&lt;div style=&quot;text-align: left&quot;&gt;[%c4Application%]&lt;/div&gt;" id="e9M98Qfh6EJku2T9XBrh-82">
          <mxCell style="rounded=1;fontSize=11;whiteSpace=wrap;html=1;dashed=1;arcSize=20;fillColor=none;strokeColor=#666666;fontColor=#333333;labelBackgroundColor=none;align=left;verticalAlign=bottom;labelBorderColor=none;spacingTop=0;spacing=10;dashPattern=8 4;metaEdit=1;rotatable=0;perimeter=rectanglePerimeter;noLabel=0;labelPadding=0;allowArrows=0;connectable=0;expand=0;recursiveResize=0;editable=1;pointerEvents=0;absoluteArcSize=1;points=[[0.25,0,0],[0.5,0,0],[0.75,0,0],[1,0.25,0],[1,0.5,0],[1,0.75,0],[0.75,1,0],[0.5,1,0],[0.25,1,0],[0,0.75,0],[0,0.5,0],[0,0.25,0]];" parent="1" vertex="1">
            <mxGeometry x="2090" y="430" width="710" height="820" as="geometry" />
          </mxCell>
        </object>
        <mxCell id="e9M98Qfh6EJku2T9XBrh-90" style="edgeStyle=orthogonalEdgeStyle;rounded=0;orthogonalLoop=1;jettySize=auto;html=1;entryX=1;entryY=0.5;entryDx=0;entryDy=0;entryPerimeter=0;fontSize=15;fontColor=#000000;" parent="1" source="e9M98Qfh6EJku2T9XBrh-89" target="e9M98Qfh6EJku2T9XBrh-14" edge="1">
          <mxGeometry relative="1" as="geometry" />
        </mxCell>
        <object placeholders="1" c4Name="司机端" c4Type="100027977" c4Description="订单信息查询" label="&lt;font style=&quot;font-size: 16px&quot;&gt;&lt;b&gt;%c4Name%&lt;/b&gt;&lt;/font&gt;&lt;div&gt;[%c4Type%]&lt;/div&gt;&lt;br&gt;&lt;div&gt;&lt;font style=&quot;font-size: 11px&quot;&gt;&lt;font color=&quot;#cccccc&quot;&gt;%c4Description%&lt;/font&gt;&lt;/div&gt;" id="e9M98Qfh6EJku2T9XBrh-89">
          <mxCell style="rounded=1;whiteSpace=wrap;html=1;labelBackgroundColor=none;fillColor=#8C8496;fontColor=#ffffff;align=center;arcSize=10;strokeColor=#736782;metaEdit=1;resizable=0;points=[[0.25,0,0],[0.5,0,0],[0.75,0,0],[1,0.25,0],[1,0.5,0],[1,0.75,0],[0.75,1,0],[0.5,1,0],[0.25,1,0],[0,0.75,0],[0,0.5,0],[0,0.25,0]];" parent="1" vertex="1">
            <mxGeometry x="3270" y="540" width="240" height="120" as="geometry" />
          </mxCell>
        </object>
        <mxCell id="u_817gdeLGDi_4dvMe4v-1" style="edgeStyle=orthogonalEdgeStyle;rounded=0;orthogonalLoop=1;jettySize=auto;html=1;" parent="1" source="e9M98Qfh6EJku2T9XBrh-93" target="e9M98Qfh6EJku2T9XBrh-75" edge="1">
          <mxGeometry relative="1" as="geometry">
            <Array as="points">
              <mxPoint x="2361" y="1250" />
              <mxPoint x="2590" y="1250" />
            </Array>
          </mxGeometry>
        </mxCell>
        <object placeholders="1" c4Name="玩乐_商品_向导信息服务" c4Type="100025854" c4Description="" label="&lt;font style=&quot;font-size: 16px&quot;&gt;&lt;b&gt;%c4Name%&lt;/b&gt;&lt;/font&gt;&lt;div&gt;[%c4Type%]&lt;/div&gt;&lt;br&gt;&lt;div&gt;&lt;font style=&quot;font-size: 11px&quot;&gt;&lt;font color=&quot;#cccccc&quot;&gt;%c4Description%&lt;/font&gt;&lt;/div&gt;" id="e9M98Qfh6EJku2T9XBrh-93">
          <mxCell style="rounded=1;whiteSpace=wrap;html=1;labelBackgroundColor=none;fillColor=#8C8496;fontColor=#ffffff;align=center;arcSize=10;strokeColor=#736782;metaEdit=1;resizable=0;points=[[0.25,0,0],[0.5,0,0],[0.75,0,0],[1,0.25,0],[1,0.5,0],[1,0.75,0],[0.75,1,0],[0.5,1,0],[0.25,1,0],[0,0.75,0],[0,0.5,0],[0,0.25,0]];" parent="1" vertex="1">
            <mxGeometry x="2241" y="1079.53" width="240" height="120" as="geometry" />
          </mxCell>
        </object>
        <mxCell id="u_817gdeLGDi_4dvMe4v-3" style="edgeStyle=orthogonalEdgeStyle;rounded=0;orthogonalLoop=1;jettySize=auto;html=1;" parent="1" source="e9M98Qfh6EJku2T9XBrh-101" target="e9M98Qfh6EJku2T9XBrh-75" edge="1">
          <mxGeometry relative="1" as="geometry">
            <Array as="points">
              <mxPoint x="2550" y="1380" />
            </Array>
          </mxGeometry>
        </mxCell>
        <object placeholders="1" c4Name="点评系统" c4Type="100013930" c4Description="" label="&lt;font style=&quot;font-size: 16px&quot;&gt;&lt;b&gt;%c4Name%&lt;/b&gt;&lt;/font&gt;&lt;div&gt;[%c4Type%]&lt;/div&gt;&lt;br&gt;&lt;div&gt;&lt;font style=&quot;font-size: 11px&quot;&gt;&lt;font color=&quot;#cccccc&quot;&gt;%c4Description%&lt;/font&gt;&lt;/div&gt;" id="e9M98Qfh6EJku2T9XBrh-101">
          <mxCell style="rounded=1;whiteSpace=wrap;html=1;labelBackgroundColor=none;fillColor=#8C8496;fontColor=#ffffff;align=center;arcSize=10;strokeColor=#736782;metaEdit=1;resizable=0;points=[[0.25,0,0],[0.5,0,0],[0.75,0,0],[1,0.25,0],[1,0.5,0],[1,0.75,0],[0.75,1,0],[0.5,1,0],[0.25,1,0],[0,0.75,0],[0,0.5,0],[0,0.25,0]];" parent="1" vertex="1">
            <mxGeometry x="2170" y="1290" width="240" height="120" as="geometry" />
          </mxCell>
        </object>
        <mxCell id="u_817gdeLGDi_4dvMe4v-5" style="edgeStyle=orthogonalEdgeStyle;rounded=0;orthogonalLoop=1;jettySize=auto;html=1;entryX=0;entryY=0.5;entryDx=0;entryDy=0;entryPerimeter=0;" parent="1" source="u_817gdeLGDi_4dvMe4v-4" target="e9M98Qfh6EJku2T9XBrh-75" edge="1">
          <mxGeometry relative="1" as="geometry" />
        </mxCell>
        <object placeholders="1" c4Name="BI系统" c4Type="" c4Description="" label="&lt;font style=&quot;font-size: 16px&quot;&gt;&lt;b&gt;%c4Name%&lt;/b&gt;&lt;/font&gt;&lt;div&gt;[%c4Type%]&lt;/div&gt;&lt;br&gt;&lt;div&gt;&lt;font style=&quot;font-size: 11px&quot;&gt;&lt;font color=&quot;#cccccc&quot;&gt;%c4Description%&lt;/font&gt;&lt;/div&gt;" id="u_817gdeLGDi_4dvMe4v-4">
          <mxCell style="rounded=1;whiteSpace=wrap;html=1;labelBackgroundColor=none;fillColor=#8C8496;fontColor=#ffffff;align=center;arcSize=10;strokeColor=#736782;metaEdit=1;resizable=0;points=[[0.25,0,0],[0.5,0,0],[0.75,0,0],[1,0.25,0],[1,0.5,0],[1,0.75,0],[0.75,1,0],[0.5,1,0],[0.25,1,0],[0,0.75,0],[0,0.5,0],[0,0.25,0]];" parent="1" vertex="1">
            <mxGeometry x="2180" y="1503.53" width="240" height="120" as="geometry" />
          </mxCell>
        </object>
      </root>
    </mxGraphModel>
  </diagram>
  <diagram name="同步流程" id="VspJAKAj1OK4_T3elFzN">
    <mxGraphModel dx="716" dy="1270" grid="1" gridSize="10" guides="1" tooltips="1" connect="1" arrows="1" fold="1" page="1" pageScale="1" pageWidth="827" pageHeight="1169" math="0" shadow="0">
      <root>
        <mxCell id="x-pTX9JRFWX3ikGhAZka-0" />
        <mxCell id="x-pTX9JRFWX3ikGhAZka-1" parent="x-pTX9JRFWX3ikGhAZka-0" />
        <object placeholders="1" c4Name="供应链" c4Type="SystemScopeBoundary" c4Application="" label="&lt;font style=&quot;font-size: 16px&quot;&gt;&lt;b&gt;&lt;div style=&quot;text-align: left&quot;&gt;%c4Name%&lt;/div&gt;&lt;/b&gt;&lt;/font&gt;&lt;div style=&quot;text-align: left&quot;&gt;[%c4Application%]&lt;/div&gt;" id="x-pTX9JRFWX3ikGhAZka-6">
          <mxCell style="rounded=1;fontSize=11;whiteSpace=wrap;html=1;dashed=1;arcSize=20;fillColor=none;strokeColor=#666666;fontColor=#333333;labelBackgroundColor=none;align=left;verticalAlign=bottom;labelBorderColor=none;spacingTop=0;spacing=10;dashPattern=8 4;metaEdit=1;rotatable=0;perimeter=rectanglePerimeter;noLabel=0;labelPadding=0;allowArrows=0;connectable=0;expand=0;recursiveResize=0;editable=1;pointerEvents=0;absoluteArcSize=1;points=[[0.25,0,0],[0.5,0,0],[0.75,0,0],[1,0.25,0],[1,0.5,0],[1,0.75,0],[0.75,1,0],[0.5,1,0],[0.25,1,0],[0,0.75,0],[0,0.5,0],[0,0.25,0]];" parent="x-pTX9JRFWX3ikGhAZka-1" vertex="1">
            <mxGeometry x="2870" y="760" width="1320" height="920" as="geometry" />
          </mxCell>
        </object>
        <mxCell id="x-pTX9JRFWX3ikGhAZka-7" style="edgeStyle=orthogonalEdgeStyle;rounded=0;orthogonalLoop=1;jettySize=auto;html=1;fontColor=#FF0000;" parent="x-pTX9JRFWX3ikGhAZka-1" source="x-pTX9JRFWX3ikGhAZka-10" target="x-pTX9JRFWX3ikGhAZka-20" edge="1">
          <mxGeometry relative="1" as="geometry" />
        </mxCell>
        <mxCell id="x-pTX9JRFWX3ikGhAZka-8" style="edgeStyle=orthogonalEdgeStyle;rounded=0;orthogonalLoop=1;jettySize=auto;html=1;fontSize=15;fontColor=#000000;entryX=1;entryY=0.25;entryDx=0;entryDy=0;entryPerimeter=0;" parent="x-pTX9JRFWX3ikGhAZka-1" source="x-pTX9JRFWX3ikGhAZka-10" target="x-pTX9JRFWX3ikGhAZka-42" edge="1">
          <mxGeometry relative="1" as="geometry">
            <mxPoint x="3260" y="1140" as="targetPoint" />
            <Array as="points">
              <mxPoint x="3560" y="1130" />
              <mxPoint x="3560" y="1130" />
            </Array>
          </mxGeometry>
        </mxCell>
        <mxCell id="x-pTX9JRFWX3ikGhAZka-9" value="向导查询" style="edgeLabel;html=1;align=center;verticalAlign=middle;resizable=0;points=[];fontSize=15;fontColor=#000000;" parent="x-pTX9JRFWX3ikGhAZka-8" vertex="1" connectable="0">
          <mxGeometry x="0.3896" y="-1" relative="1" as="geometry">
            <mxPoint as="offset" />
          </mxGeometry>
        </mxCell>
        <mxCell id="w_mObqgdP6rZqERFC7Pm-2" style="edgeStyle=orthogonalEdgeStyle;rounded=0;orthogonalLoop=1;jettySize=auto;html=1;exitX=0.25;exitY=0;exitDx=0;exitDy=0;exitPerimeter=0;fontSize=15;" edge="1" parent="x-pTX9JRFWX3ikGhAZka-1" source="x-pTX9JRFWX3ikGhAZka-10" target="w_mObqgdP6rZqERFC7Pm-0">
          <mxGeometry relative="1" as="geometry">
            <Array as="points">
              <mxPoint x="3390" y="1000" />
              <mxPoint x="3390" y="1000" />
            </Array>
          </mxGeometry>
        </mxCell>
        <object placeholders="1" c4Name="供应链系统" c4Type="100035542" c4Description="向导供应链运力管理DOMIAN服务" label="&lt;font style=&quot;font-size: 16px&quot;&gt;&lt;b&gt;%c4Name%&lt;/b&gt;&lt;/font&gt;&lt;div&gt;[%c4Type%]&lt;/div&gt;&lt;br&gt;&lt;div&gt;&lt;font style=&quot;font-size: 11px&quot;&gt;&lt;font color=&quot;#cccccc&quot;&gt;%c4Description%&lt;/font&gt;&lt;/div&gt;" id="x-pTX9JRFWX3ikGhAZka-10">
          <mxCell style="rounded=1;whiteSpace=wrap;html=1;labelBackgroundColor=none;fillColor=#8C8496;fontColor=#ffffff;align=center;arcSize=10;strokeColor=#736782;metaEdit=1;resizable=0;points=[[0.25,0,0],[0.5,0,0],[0.75,0,0],[1,0.25,0],[1,0.5,0],[1,0.75,0],[0.75,1,0],[0.5,1,0],[0.25,1,0],[0,0.75,0],[0,0.5,0],[0,0.25,0]];" parent="x-pTX9JRFWX3ikGhAZka-1" vertex="1">
            <mxGeometry x="3330" y="1100" width="240" height="120" as="geometry" />
          </mxCell>
        </object>
        <mxCell id="x-pTX9JRFWX3ikGhAZka-11" style="edgeStyle=orthogonalEdgeStyle;rounded=0;orthogonalLoop=1;jettySize=auto;html=1;fontColor=#FF0000;" parent="x-pTX9JRFWX3ikGhAZka-1" source="x-pTX9JRFWX3ikGhAZka-14" target="x-pTX9JRFWX3ikGhAZka-10" edge="1">
          <mxGeometry relative="1" as="geometry">
            <Array as="points">
              <mxPoint x="3770" y="1139.53" />
              <mxPoint x="3770" y="1139.53" />
            </Array>
          </mxGeometry>
        </mxCell>
        <mxCell id="x-pTX9JRFWX3ikGhAZka-12" value="&lt;font color=&quot;#000000&quot; style=&quot;font-size: 15px;&quot;&gt;&lt;b&gt;&amp;nbsp;入驻审核通过&lt;/b&gt;&lt;/font&gt;" style="edgeLabel;html=1;align=center;verticalAlign=middle;resizable=0;points=[];fontColor=#FF0000;" parent="x-pTX9JRFWX3ikGhAZka-11" vertex="1" connectable="0">
          <mxGeometry x="0.3122" y="1" relative="1" as="geometry">
            <mxPoint x="29" y="-1" as="offset" />
          </mxGeometry>
        </mxCell>
        <mxCell id="x-pTX9JRFWX3ikGhAZka-13" style="edgeStyle=orthogonalEdgeStyle;rounded=0;orthogonalLoop=1;jettySize=auto;html=1;entryX=0.5;entryY=0;entryDx=0;entryDy=0;entryPerimeter=0;fontColor=#FF0000;" parent="x-pTX9JRFWX3ikGhAZka-1" source="x-pTX9JRFWX3ikGhAZka-14" target="x-pTX9JRFWX3ikGhAZka-15" edge="1">
          <mxGeometry relative="1" as="geometry" />
        </mxCell>
        <object placeholders="1" c4Name="供应链入驻审核系统" c4Type="100036322" c4Description="向导供应链运力入驻DOMIAN服务" label="&lt;font style=&quot;font-size: 16px&quot;&gt;&lt;b&gt;%c4Name%&lt;/b&gt;&lt;/font&gt;&lt;div&gt;[%c4Type%]&lt;/div&gt;&lt;br&gt;&lt;div&gt;&lt;font style=&quot;font-size: 11px&quot;&gt;&lt;font color=&quot;#cccccc&quot;&gt;%c4Description%&lt;/font&gt;&lt;/div&gt;" id="x-pTX9JRFWX3ikGhAZka-14">
          <mxCell style="rounded=1;whiteSpace=wrap;html=1;labelBackgroundColor=none;fillColor=#8C8496;fontColor=#ffffff;align=center;arcSize=10;strokeColor=#736782;metaEdit=1;resizable=0;points=[[0.25,0,0],[0.5,0,0],[0.75,0,0],[1,0.25,0],[1,0.5,0],[1,0.75,0],[0.75,1,0],[0.5,1,0],[0.25,1,0],[0,0.75,0],[0,0.5,0],[0,0.25,0]];" parent="x-pTX9JRFWX3ikGhAZka-1" vertex="1">
            <mxGeometry x="3710" y="1100" width="240" height="120" as="geometry" />
          </mxCell>
        </object>
        <object placeholders="1" c4Type="dcsguideenterdb" c4Container="Container " c4Technology="MySQL" c4Description="供应链入驻库" label="&lt;font style=&quot;font-size: 20px;&quot;&gt;&lt;b style=&quot;font-size: 20px;&quot;&gt;%c4Type%&lt;/b&gt;&lt;/font&gt;&lt;div style=&quot;font-size: 20px;&quot;&gt;&lt;b style=&quot;font-size: 20px;&quot;&gt;[%c4Container%:&amp;nbsp;%c4Technology%]&lt;/b&gt;&lt;/div&gt;&lt;b style=&quot;font-size: 20px;&quot;&gt;&lt;br style=&quot;font-size: 20px;&quot;&gt;&lt;div style=&quot;font-size: 20px;&quot;&gt;&lt;font style=&quot;font-size: 20px;&quot;&gt;&lt;font style=&quot;font-size: 20px;&quot;&gt;%c4Description%&lt;/font&gt;&lt;/font&gt;&lt;/div&gt;&lt;/b&gt;" remark="供应链入驻库" id="x-pTX9JRFWX3ikGhAZka-15">
          <mxCell style="shape=cylinder3;size=15;whiteSpace=wrap;html=1;boundedLbl=1;rounded=0;labelBackgroundColor=none;fillColor=#23A2D9;fontSize=20;fontColor=#FFFFFF;align=center;strokeColor=#0E7DAD;metaEdit=1;points=[[0.5,0,0],[1,0.25,0],[1,0.5,0],[1,0.75,0],[0.5,1,0],[0,0.75,0],[0,0.5,0],[0,0.25,0]];resizable=0;" parent="x-pTX9JRFWX3ikGhAZka-1" vertex="1">
            <mxGeometry x="3710" y="1263.53" width="240" height="120" as="geometry" />
          </mxCell>
        </object>
        <mxCell id="x-pTX9JRFWX3ikGhAZka-16" style="edgeStyle=orthogonalEdgeStyle;rounded=0;orthogonalLoop=1;jettySize=auto;html=1;fontColor=#FF0000;" parent="x-pTX9JRFWX3ikGhAZka-1" source="x-pTX9JRFWX3ikGhAZka-20" target="x-pTX9JRFWX3ikGhAZka-47" edge="1">
          <mxGeometry relative="1" as="geometry">
            <mxPoint x="3400" y="1560" as="targetPoint" />
            <Array as="points">
              <mxPoint x="3450" y="1560" />
            </Array>
          </mxGeometry>
        </mxCell>
        <mxCell id="aI-8wu7EIYuoCbQiQyFy-6" value="1. 创建向导&lt;br&gt;2. 更新向导信息&lt;br&gt;3. 更新向导状态" style="edgeLabel;html=1;align=center;verticalAlign=middle;resizable=0;points=[];fontSize=20;" parent="x-pTX9JRFWX3ikGhAZka-16" vertex="1" connectable="0">
          <mxGeometry x="-0.4159" y="-1" relative="1" as="geometry">
            <mxPoint x="1" y="21" as="offset" />
          </mxGeometry>
        </mxCell>
        <mxCell id="x-pTX9JRFWX3ikGhAZka-18" style="edgeStyle=orthogonalEdgeStyle;rounded=0;orthogonalLoop=1;jettySize=auto;html=1;fontSize=15;fontColor=#000000;" parent="x-pTX9JRFWX3ikGhAZka-1" source="x-pTX9JRFWX3ikGhAZka-20" target="x-pTX9JRFWX3ikGhAZka-42" edge="1">
          <mxGeometry relative="1" as="geometry" />
        </mxCell>
        <mxCell id="x-pTX9JRFWX3ikGhAZka-19" value="映射查询" style="edgeLabel;html=1;align=center;verticalAlign=middle;resizable=0;points=[];fontSize=15;fontColor=#000000;" parent="x-pTX9JRFWX3ikGhAZka-18" vertex="1" connectable="0">
          <mxGeometry x="0.2746" y="-3" relative="1" as="geometry">
            <mxPoint as="offset" />
          </mxGeometry>
        </mxCell>
        <object placeholders="1" c4Type="dcsguidesupplydb" c4Container="Container " c4Technology="MySQL" c4Description="向导核心库" label="&lt;font style=&quot;font-size: 20px;&quot;&gt;&lt;b style=&quot;font-size: 20px;&quot;&gt;%c4Type%&lt;/b&gt;&lt;/font&gt;&lt;div style=&quot;font-size: 20px;&quot;&gt;&lt;b style=&quot;font-size: 20px;&quot;&gt;[%c4Container%:&amp;nbsp;%c4Technology%]&lt;/b&gt;&lt;/div&gt;&lt;b style=&quot;font-size: 20px;&quot;&gt;&lt;br style=&quot;font-size: 20px;&quot;&gt;&lt;div style=&quot;font-size: 20px;&quot;&gt;&lt;font style=&quot;font-size: 20px;&quot;&gt;&lt;font color=&quot;#E6E6E6&quot; style=&quot;font-size: 20px;&quot;&gt;%c4Description%&lt;/font&gt;&lt;/font&gt;&lt;/div&gt;&lt;/b&gt;" remark="保存大向导和小向导的映射信息" id="x-pTX9JRFWX3ikGhAZka-20">
          <mxCell style="shape=cylinder3;size=15;whiteSpace=wrap;html=1;boundedLbl=1;rounded=0;labelBackgroundColor=none;fillColor=#23A2D9;fontSize=20;fontColor=#ffffff;align=center;strokeColor=#0E7DAD;metaEdit=1;points=[[0.5,0,0],[1,0.25,0],[1,0.5,0],[1,0.75,0],[0.5,1,0],[0,0.75,0],[0,0.5,0],[0,0.25,0]];resizable=0;" parent="x-pTX9JRFWX3ikGhAZka-1" vertex="1">
            <mxGeometry x="3330" y="1263.53" width="240" height="120" as="geometry" />
          </mxCell>
        </object>
        <object placeholders="1" c4Name="派发Domain" c4Type="100035784" c4Description="" label="&lt;font style=&quot;font-size: 16px&quot;&gt;&lt;b&gt;%c4Name%&lt;/b&gt;&lt;/font&gt;&lt;div&gt;[%c4Type%]&lt;/div&gt;&lt;br&gt;&lt;div&gt;&lt;font style=&quot;font-size: 11px&quot;&gt;&lt;font color=&quot;#cccccc&quot;&gt;%c4Description%&lt;/font&gt;&lt;/div&gt;" id="x-pTX9JRFWX3ikGhAZka-31">
          <mxCell style="rounded=1;whiteSpace=wrap;html=1;labelBackgroundColor=none;fillColor=#8C8496;fontColor=#ffffff;align=center;arcSize=10;strokeColor=#0D5091;metaEdit=1;resizable=0;points=[[0.25,0,0],[0.5,0,0],[0.75,0,0],[1,0.25,0],[1,0.5,0],[1,0.75,0],[0.75,1,0],[0.5,1,0],[0.25,1,0],[0,0.75,0],[0,0.5,0],[0,0.25,0]];" parent="x-pTX9JRFWX3ikGhAZka-1" vertex="1">
            <mxGeometry x="2930" y="820.0000000000001" width="240" height="120" as="geometry" />
          </mxCell>
        </object>
        <mxCell id="x-pTX9JRFWX3ikGhAZka-33" style="edgeStyle=orthogonalEdgeStyle;rounded=0;orthogonalLoop=1;jettySize=auto;html=1;fontSize=15;fontColor=#000000;" parent="x-pTX9JRFWX3ikGhAZka-1" source="x-pTX9JRFWX3ikGhAZka-42" edge="1">
          <mxGeometry relative="1" as="geometry">
            <mxPoint x="3070" y="940" as="targetPoint" />
            <Array as="points">
              <mxPoint x="3070" y="970" />
              <mxPoint x="3070" y="970" />
            </Array>
          </mxGeometry>
        </mxCell>
        <mxCell id="x-pTX9JRFWX3ikGhAZka-34" value="取供应商信息" style="edgeLabel;html=1;align=center;verticalAlign=middle;resizable=0;points=[];fontSize=15;fontColor=#000000;" parent="x-pTX9JRFWX3ikGhAZka-33" vertex="1" connectable="0">
          <mxGeometry x="-0.0171" y="4" relative="1" as="geometry">
            <mxPoint y="-4" as="offset" />
          </mxGeometry>
        </mxCell>
        <mxCell id="x-pTX9JRFWX3ikGhAZka-35" style="edgeStyle=orthogonalEdgeStyle;rounded=0;orthogonalLoop=1;jettySize=auto;html=1;entryX=1;entryY=0.75;entryDx=0;entryDy=0;entryPerimeter=0;fontSize=15;fontColor=#000000;" parent="x-pTX9JRFWX3ikGhAZka-1" source="x-pTX9JRFWX3ikGhAZka-42" target="x-pTX9JRFWX3ikGhAZka-63" edge="1">
          <mxGeometry relative="1" as="geometry">
            <Array as="points">
              <mxPoint x="2760" y="1170" />
            </Array>
          </mxGeometry>
        </mxCell>
        <mxCell id="x-pTX9JRFWX3ikGhAZka-36" value="跟据大向导，小向导查询关系" style="edgeLabel;html=1;align=center;verticalAlign=middle;resizable=0;points=[];" parent="x-pTX9JRFWX3ikGhAZka-35" vertex="1" connectable="0">
          <mxGeometry x="-0.6491" relative="1" as="geometry">
            <mxPoint x="-61" as="offset" />
          </mxGeometry>
        </mxCell>
        <mxCell id="x-pTX9JRFWX3ikGhAZka-41" style="edgeStyle=orthogonalEdgeStyle;rounded=0;orthogonalLoop=1;jettySize=auto;html=1;exitX=0.25;exitY=1;exitDx=0;exitDy=0;exitPerimeter=0;entryX=1;entryY=0.5;entryDx=0;entryDy=0;entryPerimeter=0;fontSize=15;fontColor=#000000;" parent="x-pTX9JRFWX3ikGhAZka-1" source="x-pTX9JRFWX3ikGhAZka-42" target="x-pTX9JRFWX3ikGhAZka-65" edge="1">
          <mxGeometry relative="1" as="geometry" />
        </mxCell>
        <mxCell id="w_mObqgdP6rZqERFC7Pm-7" style="edgeStyle=orthogonalEdgeStyle;rounded=0;orthogonalLoop=1;jettySize=auto;html=1;fontSize=15;shape=flexArrow;" edge="1" parent="x-pTX9JRFWX3ikGhAZka-1" source="x-pTX9JRFWX3ikGhAZka-42" target="x-pTX9JRFWX3ikGhAZka-10">
          <mxGeometry relative="1" as="geometry" />
        </mxCell>
        <object placeholders="1" c4Name="向导映射服务" c4Type="100036158" c4Description="大向导和小向导映射关系" label="&lt;font style=&quot;font-size: 16px&quot;&gt;&lt;b&gt;%c4Name%&lt;/b&gt;&lt;/font&gt;&lt;div&gt;[%c4Type%]&lt;/div&gt;&lt;br&gt;&lt;div&gt;&lt;font style=&quot;font-size: 11px&quot;&gt;&lt;font color=&quot;#cccccc&quot;&gt;%c4Description%&lt;/font&gt;&lt;/div&gt;" id="x-pTX9JRFWX3ikGhAZka-42">
          <mxCell style="rounded=1;whiteSpace=wrap;html=1;labelBackgroundColor=none;fillColor=#1061B0;fontColor=#ffffff;align=center;arcSize=10;strokeColor=#0D5091;metaEdit=1;resizable=0;points=[[0.25,0,0],[0.5,0,0],[0.75,0,0],[1,0.25,0],[1,0.5,0],[1,0.75,0],[0.75,1,0],[0.5,1,0],[0.25,1,0],[0,0.75,0],[0,0.5,0],[0,0.25,0]];" parent="x-pTX9JRFWX3ikGhAZka-1" vertex="1">
            <mxGeometry x="2930" y="1100" width="240" height="120" as="geometry" />
          </mxCell>
        </object>
        <mxCell id="DzJkCCDdVtBD5MfeYgPF-0" style="edgeStyle=orthogonalEdgeStyle;rounded=0;orthogonalLoop=1;jettySize=auto;html=1;entryX=1;entryY=0.5;entryDx=0;entryDy=0;entryPerimeter=0;" parent="x-pTX9JRFWX3ikGhAZka-1" source="x-pTX9JRFWX3ikGhAZka-47" target="x-pTX9JRFWX3ikGhAZka-56" edge="1">
          <mxGeometry relative="1" as="geometry" />
        </mxCell>
        <mxCell id="xyFt9KeundDomZeV_dPs-3" value="&lt;span style=&quot;font-size: 20px;&quot;&gt;异常job重试+ 邮件人工介入&lt;/span&gt;" style="edgeLabel;html=1;align=center;verticalAlign=middle;resizable=0;points=[];fontSize=15;" vertex="1" connectable="0" parent="DzJkCCDdVtBD5MfeYgPF-0">
          <mxGeometry x="0.37" y="2" relative="1" as="geometry">
            <mxPoint x="85" y="-6" as="offset" />
          </mxGeometry>
        </mxCell>
        <object placeholders="1" c4Name="数据同步服务" c4Type="100036176" c4Description="同步数据到社会化" label="&lt;font style=&quot;font-size: 16px&quot;&gt;&lt;b&gt;%c4Name%&lt;/b&gt;&lt;/font&gt;&lt;div&gt;[%c4Type%]&lt;/div&gt;&lt;br&gt;&lt;div&gt;&lt;font style=&quot;font-size: 11px&quot;&gt;&lt;font color=&quot;#cccccc&quot;&gt;%c4Description%&lt;/font&gt;&lt;/div&gt;" id="x-pTX9JRFWX3ikGhAZka-47">
          <mxCell style="rounded=1;whiteSpace=wrap;html=1;labelBackgroundColor=none;fillColor=#1061B0;fontColor=#ffffff;align=center;arcSize=10;strokeColor=#0D5091;metaEdit=1;resizable=0;points=[[0.25,0,0],[0.5,0,0],[0.75,0,0],[1,0.25,0],[1,0.5,0],[1,0.75,0],[0.75,1,0],[0.5,1,0],[0.25,1,0],[0,0.75,0],[0,0.5,0],[0,0.25,0]];" parent="x-pTX9JRFWX3ikGhAZka-1" vertex="1">
            <mxGeometry x="3308" y="1503.53" width="240" height="120" as="geometry" />
          </mxCell>
        </object>
        <object placeholders="1" c4Name="社会化系统" c4Type="" c4Application="" label="&lt;font style=&quot;font-size: 16px&quot;&gt;&lt;b&gt;&lt;div style=&quot;text-align: left&quot;&gt;%c4Name%&lt;/div&gt;&lt;/b&gt;&lt;/font&gt;&lt;div style=&quot;text-align: left&quot;&gt;[%c4Application%]&lt;/div&gt;" id="x-pTX9JRFWX3ikGhAZka-51">
          <mxCell style="rounded=1;fontSize=11;whiteSpace=wrap;html=1;dashed=1;arcSize=20;fillColor=none;strokeColor=#666666;fontColor=#333333;labelBackgroundColor=none;align=left;verticalAlign=bottom;labelBorderColor=none;spacingTop=0;spacing=10;dashPattern=8 4;metaEdit=1;rotatable=0;perimeter=rectanglePerimeter;noLabel=0;labelPadding=0;allowArrows=0;connectable=0;expand=0;recursiveResize=0;editable=1;pointerEvents=0;absoluteArcSize=1;points=[[0.25,0,0],[0.5,0,0],[0.75,0,0],[1,0.25,0],[1,0.5,0],[1,0.75,0],[0.75,1,0],[0.5,1,0],[0.25,1,0],[0,0.75,0],[0,0.5,0],[0,0.25,0]];" parent="x-pTX9JRFWX3ikGhAZka-1" vertex="1">
            <mxGeometry x="2460" y="1290" width="339" height="590" as="geometry" />
          </mxCell>
        </object>
        <mxCell id="xyFt9KeundDomZeV_dPs-5" style="edgeStyle=orthogonalEdgeStyle;rounded=0;orthogonalLoop=1;jettySize=auto;html=1;entryX=0.5;entryY=0;entryDx=0;entryDy=0;entryPerimeter=0;fontSize=15;" edge="1" parent="x-pTX9JRFWX3ikGhAZka-1" source="x-pTX9JRFWX3ikGhAZka-56" target="xyFt9KeundDomZeV_dPs-4">
          <mxGeometry relative="1" as="geometry" />
        </mxCell>
        <object placeholders="1" c4Name="社会化平台" c4Type="100002591" c4Description="" label="&lt;font style=&quot;font-size: 16px&quot;&gt;&lt;b&gt;%c4Name%&lt;/b&gt;&lt;/font&gt;&lt;div&gt;[%c4Type%]&lt;/div&gt;&lt;br&gt;&lt;div&gt;&lt;font style=&quot;font-size: 11px&quot;&gt;&lt;font color=&quot;#cccccc&quot;&gt;%c4Description%&lt;/font&gt;&lt;/div&gt;" id="x-pTX9JRFWX3ikGhAZka-56">
          <mxCell style="rounded=1;whiteSpace=wrap;html=1;labelBackgroundColor=none;fillColor=#1061B0;fontColor=#ffffff;align=center;arcSize=10;strokeColor=#736782;metaEdit=1;resizable=0;points=[[0.25,0,0],[0.5,0,0],[0.75,0,0],[1,0.25,0],[1,0.5,0],[1,0.75,0],[0.75,1,0],[0.5,1,0],[0.25,1,0],[0,0.75,0],[0,0.5,0],[0,0.25,0]];" parent="x-pTX9JRFWX3ikGhAZka-1" vertex="1">
            <mxGeometry x="2510" y="1503.53" width="240" height="120" as="geometry" />
          </mxCell>
        </object>
        <mxCell id="x-pTX9JRFWX3ikGhAZka-57" style="edgeStyle=orthogonalEdgeStyle;rounded=0;orthogonalLoop=1;jettySize=auto;html=1;" parent="x-pTX9JRFWX3ikGhAZka-1" source="x-pTX9JRFWX3ikGhAZka-58" edge="1">
          <mxGeometry relative="1" as="geometry">
            <mxPoint x="2630.0000000000005" y="1510" as="targetPoint" />
            <Array as="points">
              <mxPoint x="2630" y="1030" />
              <mxPoint x="2630" y="1030" />
            </Array>
          </mxGeometry>
        </mxCell>
        <object placeholders="1" c4Name="玩乐_供应商_订单处理服务" c4Type="100011437" c4Description="" label="&lt;font style=&quot;font-size: 16px&quot;&gt;&lt;b&gt;%c4Name%&lt;/b&gt;&lt;/font&gt;&lt;div&gt;[%c4Type%]&lt;/div&gt;&lt;br&gt;&lt;div&gt;&lt;font style=&quot;font-size: 11px&quot;&gt;&lt;font color=&quot;#cccccc&quot;&gt;%c4Description%&lt;/font&gt;&lt;/div&gt;" id="x-pTX9JRFWX3ikGhAZka-58">
          <mxCell style="rounded=1;whiteSpace=wrap;html=1;labelBackgroundColor=none;fillColor=#8C8496;fontColor=#ffffff;align=center;arcSize=10;strokeColor=#736782;metaEdit=1;resizable=0;points=[[0.25,0,0],[0.5,0,0],[0.75,0,0],[1,0.25,0],[1,0.5,0],[1,0.75,0],[0.75,1,0],[0.5,1,0],[0.25,1,0],[0,0.75,0],[0,0.5,0],[0,0.25,0]];" parent="x-pTX9JRFWX3ikGhAZka-1" vertex="1">
            <mxGeometry x="2520" y="945" width="240" height="120" as="geometry" />
          </mxCell>
        </object>
        <object placeholders="1" c4Name="玩乐订单" c4Type="" c4Application="" label="&lt;font style=&quot;font-size: 16px&quot;&gt;&lt;b&gt;&lt;div style=&quot;text-align: left&quot;&gt;%c4Name%&lt;/div&gt;&lt;/b&gt;&lt;/font&gt;&lt;div style=&quot;text-align: left&quot;&gt;[%c4Application%]&lt;/div&gt;" id="x-pTX9JRFWX3ikGhAZka-59">
          <mxCell style="rounded=1;fontSize=11;whiteSpace=wrap;html=1;dashed=1;arcSize=20;fillColor=none;strokeColor=#666666;fontColor=#333333;labelBackgroundColor=none;align=left;verticalAlign=bottom;labelBorderColor=none;spacingTop=0;spacing=10;dashPattern=8 4;metaEdit=1;rotatable=0;perimeter=rectanglePerimeter;noLabel=0;labelPadding=0;allowArrows=0;connectable=0;expand=0;recursiveResize=0;editable=1;pointerEvents=0;absoluteArcSize=1;points=[[0.25,0,0],[0.5,0,0],[0.75,0,0],[1,0.25,0],[1,0.5,0],[1,0.75,0],[0.75,1,0],[0.5,1,0],[0.25,1,0],[0,0.75,0],[0,0.5,0],[0,0.25,0]];" parent="x-pTX9JRFWX3ikGhAZka-1" vertex="1">
            <mxGeometry x="2090" y="880" width="710" height="370" as="geometry" />
          </mxCell>
        </object>
        <mxCell id="x-pTX9JRFWX3ikGhAZka-62" style="edgeStyle=orthogonalEdgeStyle;rounded=0;orthogonalLoop=1;jettySize=auto;html=1;" parent="x-pTX9JRFWX3ikGhAZka-1" source="x-pTX9JRFWX3ikGhAZka-63" target="x-pTX9JRFWX3ikGhAZka-56" edge="1">
          <mxGeometry relative="1" as="geometry">
            <Array as="points">
              <mxPoint x="2361" y="1250" />
              <mxPoint x="2590" y="1250" />
            </Array>
          </mxGeometry>
        </mxCell>
        <object placeholders="1" c4Name="玩乐_商品_向导信息服务" c4Type="100025854" c4Description="" label="&lt;font style=&quot;font-size: 16px&quot;&gt;&lt;b&gt;%c4Name%&lt;/b&gt;&lt;/font&gt;&lt;div&gt;[%c4Type%]&lt;/div&gt;&lt;br&gt;&lt;div&gt;&lt;font style=&quot;font-size: 11px&quot;&gt;&lt;font color=&quot;#cccccc&quot;&gt;%c4Description%&lt;/font&gt;&lt;/div&gt;" id="x-pTX9JRFWX3ikGhAZka-63">
          <mxCell style="rounded=1;whiteSpace=wrap;html=1;labelBackgroundColor=none;fillColor=#8C8496;fontColor=#ffffff;align=center;arcSize=10;strokeColor=#736782;metaEdit=1;resizable=0;points=[[0.25,0,0],[0.5,0,0],[0.75,0,0],[1,0.25,0],[1,0.5,0],[1,0.75,0],[0.75,1,0],[0.5,1,0],[0.25,1,0],[0,0.75,0],[0,0.5,0],[0,0.25,0]];" parent="x-pTX9JRFWX3ikGhAZka-1" vertex="1">
            <mxGeometry x="2241" y="1079.53" width="240" height="120" as="geometry" />
          </mxCell>
        </object>
        <mxCell id="x-pTX9JRFWX3ikGhAZka-64" style="edgeStyle=orthogonalEdgeStyle;rounded=0;orthogonalLoop=1;jettySize=auto;html=1;" parent="x-pTX9JRFWX3ikGhAZka-1" source="x-pTX9JRFWX3ikGhAZka-65" target="x-pTX9JRFWX3ikGhAZka-56" edge="1">
          <mxGeometry relative="1" as="geometry">
            <Array as="points">
              <mxPoint x="2550" y="1380" />
            </Array>
          </mxGeometry>
        </mxCell>
        <object placeholders="1" c4Name="点评系统" c4Type="100013930" c4Description="" label="&lt;font style=&quot;font-size: 16px&quot;&gt;&lt;b&gt;%c4Name%&lt;/b&gt;&lt;/font&gt;&lt;div&gt;[%c4Type%]&lt;/div&gt;&lt;br&gt;&lt;div&gt;&lt;font style=&quot;font-size: 11px&quot;&gt;&lt;font color=&quot;#cccccc&quot;&gt;%c4Description%&lt;/font&gt;&lt;/div&gt;" id="x-pTX9JRFWX3ikGhAZka-65">
          <mxCell style="rounded=1;whiteSpace=wrap;html=1;labelBackgroundColor=none;fillColor=#8C8496;fontColor=#ffffff;align=center;arcSize=10;strokeColor=#736782;metaEdit=1;resizable=0;points=[[0.25,0,0],[0.5,0,0],[0.75,0,0],[1,0.25,0],[1,0.5,0],[1,0.75,0],[0.75,1,0],[0.5,1,0],[0.25,1,0],[0,0.75,0],[0,0.5,0],[0,0.25,0]];" parent="x-pTX9JRFWX3ikGhAZka-1" vertex="1">
            <mxGeometry x="2140" y="1290" width="240" height="120" as="geometry" />
          </mxCell>
        </object>
        <mxCell id="x-pTX9JRFWX3ikGhAZka-66" style="edgeStyle=orthogonalEdgeStyle;rounded=0;orthogonalLoop=1;jettySize=auto;html=1;entryX=0;entryY=0.5;entryDx=0;entryDy=0;entryPerimeter=0;" parent="x-pTX9JRFWX3ikGhAZka-1" source="x-pTX9JRFWX3ikGhAZka-67" target="x-pTX9JRFWX3ikGhAZka-56" edge="1">
          <mxGeometry relative="1" as="geometry" />
        </mxCell>
        <object placeholders="1" c4Name="BI系统" c4Type="" c4Description="" label="&lt;font style=&quot;font-size: 16px&quot;&gt;&lt;b&gt;%c4Name%&lt;/b&gt;&lt;/font&gt;&lt;div&gt;[%c4Type%]&lt;/div&gt;&lt;br&gt;&lt;div&gt;&lt;font style=&quot;font-size: 11px&quot;&gt;&lt;font color=&quot;#cccccc&quot;&gt;%c4Description%&lt;/font&gt;&lt;/div&gt;" id="x-pTX9JRFWX3ikGhAZka-67">
          <mxCell style="rounded=1;whiteSpace=wrap;html=1;labelBackgroundColor=none;fillColor=#8C8496;fontColor=#ffffff;align=center;arcSize=10;strokeColor=#736782;metaEdit=1;resizable=0;points=[[0.25,0,0],[0.5,0,0],[0.75,0,0],[1,0.25,0],[1,0.5,0],[1,0.75,0],[0.75,1,0],[0.5,1,0],[0.25,1,0],[0,0.75,0],[0,0.5,0],[0,0.25,0]];" parent="x-pTX9JRFWX3ikGhAZka-1" vertex="1">
            <mxGeometry x="2140" y="1503.53" width="240" height="120" as="geometry" />
          </mxCell>
        </object>
        <mxCell id="xyFt9KeundDomZeV_dPs-2" value="&lt;h1&gt;问题点：&amp;nbsp;&lt;/h1&gt;&lt;div style=&quot;font-size: 15px;&quot;&gt;&lt;span style=&quot;&quot;&gt;1. 业务点是根据数据库消息触发&lt;/span&gt;&lt;/div&gt;&lt;div style=&quot;font-size: 15px;&quot;&gt;&lt;span style=&quot;&quot;&gt;2. 重发逻辑是我们根据消息字段来进行判断得&lt;/span&gt;&lt;/div&gt;&lt;div style=&quot;font-size: 15px;&quot;&gt;&lt;span style=&quot;&quot;&gt;3. 数据源分散，有2个核心域，不够内聚，迭代流程长&lt;/span&gt;&lt;/div&gt;" style="text;html=1;strokeColor=none;fillColor=none;spacing=5;spacingTop=-20;whiteSpace=wrap;overflow=hidden;rounded=0;" vertex="1" parent="x-pTX9JRFWX3ikGhAZka-1">
          <mxGeometry x="3340" y="1814" width="380" height="120" as="geometry" />
        </mxCell>
        <mxCell id="w_mObqgdP6rZqERFC7Pm-4" style="edgeStyle=orthogonalEdgeStyle;rounded=0;orthogonalLoop=1;jettySize=auto;html=1;fontSize=15;shape=flexArrow;" edge="1" parent="x-pTX9JRFWX3ikGhAZka-1" source="xyFt9KeundDomZeV_dPs-4" target="w_mObqgdP6rZqERFC7Pm-3">
          <mxGeometry relative="1" as="geometry" />
        </mxCell>
        <object placeholders="1" c4Type="pkgadvisordb" c4Container="Container " c4Technology="MySQL" c4Description="" label="&lt;font style=&quot;font-size: 20px;&quot;&gt;&lt;b style=&quot;font-size: 20px;&quot;&gt;%c4Type%&lt;/b&gt;&lt;/font&gt;&lt;div style=&quot;font-size: 20px;&quot;&gt;&lt;b style=&quot;font-size: 20px;&quot;&gt;[%c4Container%:&amp;nbsp;%c4Technology%]&lt;/b&gt;&lt;/div&gt;&lt;b style=&quot;font-size: 20px;&quot;&gt;&lt;br style=&quot;font-size: 20px;&quot;&gt;&lt;div style=&quot;font-size: 20px;&quot;&gt;&lt;font style=&quot;font-size: 20px;&quot;&gt;&lt;font color=&quot;#E6E6E6&quot; style=&quot;font-size: 20px;&quot;&gt;%c4Description%&lt;/font&gt;&lt;/font&gt;&lt;/div&gt;&lt;/b&gt;" remark="社会化数据库" id="xyFt9KeundDomZeV_dPs-4">
          <mxCell style="shape=cylinder3;size=15;whiteSpace=wrap;html=1;boundedLbl=1;rounded=0;labelBackgroundColor=none;fillColor=#23A2D9;fontSize=20;fontColor=#ffffff;align=center;strokeColor=#0E7DAD;metaEdit=1;points=[[0.5,0,0],[1,0.25,0],[1,0.5,0],[1,0.75,0],[0.5,1,0],[0,0.75,0],[0,0.5,0],[0,0.25,0]];resizable=0;" vertex="1" parent="x-pTX9JRFWX3ikGhAZka-1">
            <mxGeometry x="2510" y="1694" width="240" height="120" as="geometry" />
          </mxCell>
        </object>
        <mxCell id="w_mObqgdP6rZqERFC7Pm-1" style="edgeStyle=orthogonalEdgeStyle;rounded=0;orthogonalLoop=1;jettySize=auto;html=1;entryX=0.529;entryY=0.017;entryDx=0;entryDy=0;entryPerimeter=0;fontSize=15;" edge="1" parent="x-pTX9JRFWX3ikGhAZka-1" source="w_mObqgdP6rZqERFC7Pm-0" target="x-pTX9JRFWX3ikGhAZka-10">
          <mxGeometry relative="1" as="geometry">
            <Array as="points">
              <mxPoint x="3457" y="990" />
              <mxPoint x="3457" y="990" />
            </Array>
          </mxGeometry>
        </mxCell>
        <object placeholders="1" c4Name="工作台 Rest 服务" c4Type="100035546" c4Description="向导工作台" label="&lt;font style=&quot;font-size: 16px&quot;&gt;&lt;b&gt;%c4Name%&lt;/b&gt;&lt;/font&gt;&lt;div&gt;[%c4Type%]&lt;/div&gt;&lt;br&gt;&lt;div&gt;&lt;font style=&quot;font-size: 11px&quot;&gt;&lt;font color=&quot;#cccccc&quot;&gt;%c4Description%&lt;/font&gt;&lt;/div&gt;" id="w_mObqgdP6rZqERFC7Pm-0">
          <mxCell style="rounded=1;whiteSpace=wrap;html=1;labelBackgroundColor=none;fillColor=#8C8496;fontColor=#ffffff;align=center;arcSize=10;strokeColor=#736782;metaEdit=1;resizable=0;points=[[0.25,0,0],[0.5,0,0],[0.75,0,0],[1,0.25,0],[1,0.5,0],[1,0.75,0],[0.75,1,0],[0.5,1,0],[0.25,1,0],[0,0.75,0],[0,0.5,0],[0,0.25,0]];" vertex="1" parent="x-pTX9JRFWX3ikGhAZka-1">
            <mxGeometry x="3340" y="850" width="240" height="120" as="geometry" />
          </mxCell>
        </object>
        <mxCell id="w_mObqgdP6rZqERFC7Pm-6" style="edgeStyle=orthogonalEdgeStyle;rounded=0;orthogonalLoop=1;jettySize=auto;html=1;fontSize=15;shape=flexArrow;" edge="1" parent="x-pTX9JRFWX3ikGhAZka-1" source="w_mObqgdP6rZqERFC7Pm-3" target="x-pTX9JRFWX3ikGhAZka-42">
          <mxGeometry relative="1" as="geometry">
            <Array as="points">
              <mxPoint x="3030" y="1490" />
              <mxPoint x="3030" y="1490" />
            </Array>
          </mxGeometry>
        </mxCell>
        <object placeholders="1" c4Type="igtbidb" c4Container="Container " c4Technology="MySQL" c4Description="向导评分" label="&lt;font style=&quot;font-size: 20px;&quot;&gt;&lt;b style=&quot;font-size: 20px;&quot;&gt;%c4Type%&lt;/b&gt;&lt;/font&gt;&lt;div style=&quot;font-size: 20px;&quot;&gt;&lt;b style=&quot;font-size: 20px;&quot;&gt;[%c4Container%:&amp;nbsp;%c4Technology%]&lt;/b&gt;&lt;/div&gt;&lt;b style=&quot;font-size: 20px;&quot;&gt;&lt;br style=&quot;font-size: 20px;&quot;&gt;&lt;div style=&quot;font-size: 20px;&quot;&gt;&lt;font style=&quot;font-size: 20px;&quot;&gt;&lt;font style=&quot;font-size: 20px;&quot;&gt;%c4Description%&lt;/font&gt;&lt;/font&gt;&lt;/div&gt;&lt;/b&gt;" remark="向导评分" id="w_mObqgdP6rZqERFC7Pm-3">
          <mxCell style="shape=cylinder3;size=15;whiteSpace=wrap;html=1;boundedLbl=1;rounded=0;labelBackgroundColor=none;fillColor=#23A2D9;fontSize=20;fontColor=#FFFFFF;align=center;strokeColor=#0E7DAD;metaEdit=1;points=[[0.5,0,0],[1,0.25,0],[1,0.5,0],[1,0.75,0],[0.5,1,0],[0,0.75,0],[0,0.5,0],[0,0.25,0]];resizable=0;" vertex="1" parent="x-pTX9JRFWX3ikGhAZka-1">
            <mxGeometry x="2920" y="1694" width="240" height="120" as="geometry" />
          </mxCell>
        </object>
      </root>
    </mxGraphModel>
  </diagram>
  <diagram id="6hfH_-JZLqbJIW6MapLq" name="具体流程">
    <mxGraphModel dx="2500" dy="896" grid="1" gridSize="10" guides="1" tooltips="1" connect="1" arrows="1" fold="1" page="1" pageScale="1" pageWidth="827" pageHeight="1169" math="0" shadow="0">
      <root>
        <mxCell id="0" />
        <mxCell id="1" parent="0" />
        <mxCell id="juF5vXDWfetMW0yKtIsb-1" value="&lt;pre style=&quot;background-color:#ffffff;color:#000000;font-family:&#39;Consolas&#39;,monospace;font-size:8.3pt;&quot;&gt;&lt;pre style=&quot;font-family: Consolas; font-size: 9pt;&quot;&gt;&lt;span style=&quot;color:#008000;font-weight:bold;&quot;&gt;dcs.guideinfo.change.event.orderly&lt;/span&gt;&lt;/pre&gt;&lt;/pre&gt;" style="edgeStyle=orthogonalEdgeStyle;rounded=0;orthogonalLoop=1;jettySize=auto;html=1;" edge="1" parent="1" source="juF5vXDWfetMW0yKtIsb-2">
          <mxGeometry relative="1" as="geometry">
            <mxPoint x="220" y="150" as="targetPoint" />
          </mxGeometry>
        </mxCell>
        <mxCell id="juF5vXDWfetMW0yKtIsb-2" value="修改向导信息&lt;br&gt;向导信息审核通过" style="rounded=1;whiteSpace=wrap;html=1;" vertex="1" parent="1">
          <mxGeometry x="160" y="10" width="120" height="60" as="geometry" />
        </mxCell>
        <mxCell id="juF5vXDWfetMW0yKtIsb-3" style="edgeStyle=orthogonalEdgeStyle;rounded=0;orthogonalLoop=1;jettySize=auto;html=1;exitX=0.5;exitY=1;exitDx=0;exitDy=0;exitPerimeter=0;" edge="1" parent="1" source="juF5vXDWfetMW0yKtIsb-8" target="juF5vXDWfetMW0yKtIsb-16">
          <mxGeometry relative="1" as="geometry" />
        </mxCell>
        <mxCell id="juF5vXDWfetMW0yKtIsb-4" value="创建向导时，&lt;br&gt;如果是从社会化同步过来的向导，&lt;br&gt;需要重新注册，并发送UID变更消息" style="edgeLabel;html=1;align=center;verticalAlign=middle;resizable=0;points=[];" vertex="1" connectable="0" parent="juF5vXDWfetMW0yKtIsb-3">
          <mxGeometry x="0.5676" y="2" relative="1" as="geometry">
            <mxPoint x="-72" y="33" as="offset" />
          </mxGeometry>
        </mxCell>
        <mxCell id="juF5vXDWfetMW0yKtIsb-5" value="向导信息变更" style="edgeStyle=orthogonalEdgeStyle;rounded=0;orthogonalLoop=1;jettySize=auto;html=1;exitX=0.5;exitY=1;exitDx=0;exitDy=0;exitPerimeter=0;entryX=0.5;entryY=0;entryDx=0;entryDy=0;" edge="1" parent="1" source="juF5vXDWfetMW0yKtIsb-8" target="juF5vXDWfetMW0yKtIsb-18">
          <mxGeometry x="0.7419" relative="1" as="geometry">
            <mxPoint as="offset" />
          </mxGeometry>
        </mxCell>
        <mxCell id="juF5vXDWfetMW0yKtIsb-6" value="下线向导" style="edgeStyle=orthogonalEdgeStyle;rounded=0;orthogonalLoop=1;jettySize=auto;html=1;exitX=0.5;exitY=1;exitDx=0;exitDy=0;exitPerimeter=0;" edge="1" parent="1" source="juF5vXDWfetMW0yKtIsb-8" target="juF5vXDWfetMW0yKtIsb-13">
          <mxGeometry x="0.9021" relative="1" as="geometry">
            <mxPoint as="offset" />
          </mxGeometry>
        </mxCell>
        <mxCell id="juF5vXDWfetMW0yKtIsb-7" value="上线向导" style="edgeStyle=orthogonalEdgeStyle;rounded=0;orthogonalLoop=1;jettySize=auto;html=1;exitX=0.5;exitY=1;exitDx=0;exitDy=0;exitPerimeter=0;entryX=0.5;entryY=0;entryDx=0;entryDy=0;" edge="1" parent="1" source="juF5vXDWfetMW0yKtIsb-8" target="juF5vXDWfetMW0yKtIsb-10">
          <mxGeometry x="0.8222" relative="1" as="geometry">
            <mxPoint y="1" as="offset" />
          </mxGeometry>
        </mxCell>
        <mxCell id="juF5vXDWfetMW0yKtIsb-8" value="QMQ" style="strokeWidth=2;html=1;shape=mxgraph.flowchart.sequential_data;whiteSpace=wrap;" vertex="1" parent="1">
          <mxGeometry x="170" y="150" width="100" height="100" as="geometry" />
        </mxCell>
        <mxCell id="juF5vXDWfetMW0yKtIsb-9" value="" style="edgeStyle=orthogonalEdgeStyle;rounded=0;orthogonalLoop=1;jettySize=auto;html=1;fontColor=#000000;" edge="1" parent="1" source="juF5vXDWfetMW0yKtIsb-10" target="juF5vXDWfetMW0yKtIsb-24">
          <mxGeometry relative="1" as="geometry" />
        </mxCell>
        <mxCell id="juF5vXDWfetMW0yKtIsb-10" value="上线消息" style="whiteSpace=wrap;html=1;strokeWidth=2;" vertex="1" parent="1">
          <mxGeometry x="460" y="400" width="120" height="60" as="geometry" />
        </mxCell>
        <mxCell id="juF5vXDWfetMW0yKtIsb-11" value="" style="edgeStyle=orthogonalEdgeStyle;rounded=0;orthogonalLoop=1;jettySize=auto;html=1;dashed=1;fontColor=#000000;" edge="1" parent="1" source="juF5vXDWfetMW0yKtIsb-13" target="juF5vXDWfetMW0yKtIsb-52">
          <mxGeometry relative="1" as="geometry" />
        </mxCell>
        <mxCell id="juF5vXDWfetMW0yKtIsb-12" value="" style="edgeStyle=orthogonalEdgeStyle;rounded=0;orthogonalLoop=1;jettySize=auto;html=1;dashed=1;" edge="1" parent="1" source="juF5vXDWfetMW0yKtIsb-13" target="juF5vXDWfetMW0yKtIsb-59">
          <mxGeometry relative="1" as="geometry" />
        </mxCell>
        <mxCell id="juF5vXDWfetMW0yKtIsb-13" value="下线消息" style="whiteSpace=wrap;html=1;strokeWidth=2;" vertex="1" parent="1">
          <mxGeometry x="827" y="400" width="120" height="60" as="geometry" />
        </mxCell>
        <mxCell id="juF5vXDWfetMW0yKtIsb-14" value="" style="edgeStyle=orthogonalEdgeStyle;rounded=0;orthogonalLoop=1;jettySize=auto;html=1;" edge="1" parent="1" source="juF5vXDWfetMW0yKtIsb-16" target="juF5vXDWfetMW0yKtIsb-20">
          <mxGeometry relative="1" as="geometry" />
        </mxCell>
        <mxCell id="juF5vXDWfetMW0yKtIsb-15" value="" style="edgeStyle=orthogonalEdgeStyle;rounded=0;orthogonalLoop=1;jettySize=auto;html=1;" edge="1" parent="1" source="juF5vXDWfetMW0yKtIsb-16" target="juF5vXDWfetMW0yKtIsb-80">
          <mxGeometry relative="1" as="geometry" />
        </mxCell>
        <mxCell id="juF5vXDWfetMW0yKtIsb-16" value="UID变更消息" style="whiteSpace=wrap;html=1;strokeWidth=2;" vertex="1" parent="1">
          <mxGeometry x="-370" y="400" width="120" height="60" as="geometry" />
        </mxCell>
        <mxCell id="juF5vXDWfetMW0yKtIsb-17" value="" style="edgeStyle=orthogonalEdgeStyle;rounded=0;orthogonalLoop=1;jettySize=auto;html=1;fontColor=#000000;" edge="1" parent="1" source="juF5vXDWfetMW0yKtIsb-18" target="juF5vXDWfetMW0yKtIsb-22">
          <mxGeometry relative="1" as="geometry" />
        </mxCell>
        <mxCell id="juF5vXDWfetMW0yKtIsb-18" value="基础信息变更消息" style="whiteSpace=wrap;html=1;strokeWidth=2;" vertex="1" parent="1">
          <mxGeometry y="400" width="120" height="60" as="geometry" />
        </mxCell>
        <mxCell id="juF5vXDWfetMW0yKtIsb-19" value="" style="edgeStyle=orthogonalEdgeStyle;rounded=0;orthogonalLoop=1;jettySize=auto;html=1;fontColor=#000000;" edge="1" parent="1" source="juF5vXDWfetMW0yKtIsb-20" target="juF5vXDWfetMW0yKtIsb-26">
          <mxGeometry relative="1" as="geometry" />
        </mxCell>
        <mxCell id="juF5vXDWfetMW0yKtIsb-20" value="&lt;pre style=&quot;background-color: rgb(255, 255, 255); font-family: Consolas, monospace; font-size: 8.3pt;&quot;&gt;&lt;span style=&quot;color:#008000;font-weight:bold;&quot;&gt;100036176&lt;/span&gt;&lt;/pre&gt;&lt;pre style=&quot;background-color: rgb(255, 255, 255); font-family: Consolas, monospace; font-size: 8.3pt;&quot;&gt;&lt;b style=&quot;&quot;&gt;&lt;u style=&quot;&quot;&gt;guide-sync-case&lt;/u&gt;&lt;/b&gt;&lt;/pre&gt;" style="whiteSpace=wrap;html=1;strokeWidth=2;" vertex="1" parent="1">
          <mxGeometry x="-370" y="540" width="120" height="60" as="geometry" />
        </mxCell>
        <mxCell id="juF5vXDWfetMW0yKtIsb-21" value="" style="edgeStyle=orthogonalEdgeStyle;rounded=0;orthogonalLoop=1;jettySize=auto;html=1;fontColor=#000000;" edge="1" parent="1" source="juF5vXDWfetMW0yKtIsb-22" target="juF5vXDWfetMW0yKtIsb-29">
          <mxGeometry relative="1" as="geometry" />
        </mxCell>
        <mxCell id="juF5vXDWfetMW0yKtIsb-22" value="&lt;pre style=&quot;background-color: rgb(255, 255, 255); font-family: Consolas, monospace; font-size: 8.3pt;&quot;&gt;&lt;span style=&quot;color:#008000;font-weight:bold;&quot;&gt;100036176&lt;/span&gt;&lt;/pre&gt;&lt;pre style=&quot;background-color: rgb(255, 255, 255); font-family: Consolas, monospace; font-size: 8.3pt;&quot;&gt;&lt;b style=&quot;&quot;&gt;&lt;u style=&quot;&quot;&gt;guide-sync-case&lt;/u&gt;&lt;/b&gt;&lt;/pre&gt;" style="whiteSpace=wrap;html=1;strokeWidth=2;" vertex="1" parent="1">
          <mxGeometry y="540" width="120" height="60" as="geometry" />
        </mxCell>
        <mxCell id="juF5vXDWfetMW0yKtIsb-23" value="" style="edgeStyle=orthogonalEdgeStyle;rounded=0;orthogonalLoop=1;jettySize=auto;html=1;fontColor=#000000;" edge="1" parent="1" source="juF5vXDWfetMW0yKtIsb-24">
          <mxGeometry relative="1" as="geometry">
            <mxPoint x="520" y="690" as="targetPoint" />
          </mxGeometry>
        </mxCell>
        <mxCell id="juF5vXDWfetMW0yKtIsb-24" value="&lt;pre style=&quot;background-color: rgb(255, 255, 255); font-family: Consolas, monospace; font-size: 8.3pt;&quot;&gt;&lt;span style=&quot;color:#008000;font-weight:bold;&quot;&gt;100036176&lt;/span&gt;&lt;/pre&gt;&lt;pre style=&quot;background-color: rgb(255, 255, 255); font-family: Consolas, monospace; font-size: 8.3pt;&quot;&gt;&lt;b style=&quot;&quot;&gt;&lt;u style=&quot;&quot;&gt;guide-sync-case&lt;/u&gt;&lt;/b&gt;&lt;/pre&gt;" style="whiteSpace=wrap;html=1;strokeWidth=2;" vertex="1" parent="1">
          <mxGeometry x="460" y="550" width="120" height="60" as="geometry" />
        </mxCell>
        <mxCell id="juF5vXDWfetMW0yKtIsb-25" value="" style="edgeStyle=orthogonalEdgeStyle;rounded=0;orthogonalLoop=1;jettySize=auto;html=1;fontColor=#000000;" edge="1" parent="1" source="juF5vXDWfetMW0yKtIsb-26" target="juF5vXDWfetMW0yKtIsb-27">
          <mxGeometry relative="1" as="geometry" />
        </mxCell>
        <mxCell id="juF5vXDWfetMW0yKtIsb-26" value="同步UID到社会化" style="whiteSpace=wrap;html=1;strokeWidth=2;" vertex="1" parent="1">
          <mxGeometry x="-370" y="680" width="120" height="60" as="geometry" />
        </mxCell>
        <mxCell id="juF5vXDWfetMW0yKtIsb-27" value="创建大向导、小向导关联关系&lt;br&gt;（仅存储向导ID，UID，状态为不可用）" style="whiteSpace=wrap;html=1;strokeWidth=2;" vertex="1" parent="1">
          <mxGeometry x="-370" y="820" width="120" height="60" as="geometry" />
        </mxCell>
        <mxCell id="juF5vXDWfetMW0yKtIsb-28" value="" style="edgeStyle=orthogonalEdgeStyle;rounded=0;orthogonalLoop=1;jettySize=auto;html=1;fontColor=#000000;" edge="1" parent="1" source="juF5vXDWfetMW0yKtIsb-29" target="juF5vXDWfetMW0yKtIsb-31">
          <mxGeometry relative="1" as="geometry" />
        </mxCell>
        <mxCell id="juF5vXDWfetMW0yKtIsb-29" value="反查向导信息" style="whiteSpace=wrap;html=1;strokeWidth=2;" vertex="1" parent="1">
          <mxGeometry y="680" width="120" height="60" as="geometry" />
        </mxCell>
        <mxCell id="juF5vXDWfetMW0yKtIsb-30" value="" style="edgeStyle=orthogonalEdgeStyle;rounded=0;orthogonalLoop=1;jettySize=auto;html=1;fontColor=#000000;" edge="1" parent="1" source="juF5vXDWfetMW0yKtIsb-31" target="juF5vXDWfetMW0yKtIsb-33">
          <mxGeometry relative="1" as="geometry" />
        </mxCell>
        <mxCell id="juF5vXDWfetMW0yKtIsb-31" value="根据供应商ID查询大向导ID&lt;br&gt;masterAdvisorId" style="whiteSpace=wrap;html=1;strokeWidth=2;" vertex="1" parent="1">
          <mxGeometry y="820" width="120" height="60" as="geometry" />
        </mxCell>
        <mxCell id="juF5vXDWfetMW0yKtIsb-32" value="" style="edgeStyle=orthogonalEdgeStyle;curved=1;rounded=0;orthogonalLoop=1;jettySize=auto;html=1;fontColor=#FF6666;" edge="1" parent="1" source="juF5vXDWfetMW0yKtIsb-33" target="juF5vXDWfetMW0yKtIsb-79">
          <mxGeometry relative="1" as="geometry" />
        </mxCell>
        <mxCell id="juF5vXDWfetMW0yKtIsb-33" value="根据UID&lt;br&gt;生成社会化ID&lt;br&gt;advisorId" style="whiteSpace=wrap;html=1;strokeWidth=2;" vertex="1" parent="1">
          <mxGeometry y="950" width="120" height="60" as="geometry" />
        </mxCell>
        <mxCell id="juF5vXDWfetMW0yKtIsb-34" value="&lt;pre style=&quot;background-color:#ffffff;color:#000000;font-family:&#39;Consolas&#39;,monospace;font-size:8.3pt;&quot;&gt;&lt;span style=&quot;color:#008000;font-weight:bold;&quot;&gt;告知语言资料审核结果&lt;/span&gt;&lt;/pre&gt;&lt;pre style=&quot;background-color:#ffffff;color:#000000;font-family:&#39;Consolas&#39;,monospace;font-size:8.3pt;&quot;&gt;&lt;span style=&quot;color:#008000;font-weight:bold;&quot;&gt;tour.crm.advisor.profileLan&lt;/span&gt;&lt;/pre&gt;" style="edgeStyle=orthogonalEdgeStyle;rounded=0;orthogonalLoop=1;jettySize=auto;html=1;exitX=0;exitY=0.5;exitDx=0;exitDy=0;entryX=0.5;entryY=0;entryDx=0;entryDy=0;fontColor=#000000;dashed=1;" edge="1" parent="1" source="juF5vXDWfetMW0yKtIsb-37" target="juF5vXDWfetMW0yKtIsb-39">
          <mxGeometry x="0.1321" y="-20" relative="1" as="geometry">
            <mxPoint x="10" y="1550" as="targetPoint" />
            <Array as="points">
              <mxPoint x="-100" y="1285" />
            </Array>
            <mxPoint as="offset" />
          </mxGeometry>
        </mxCell>
        <mxCell id="juF5vXDWfetMW0yKtIsb-35" style="edgeStyle=orthogonalEdgeStyle;rounded=0;orthogonalLoop=1;jettySize=auto;html=1;exitX=1;exitY=0.5;exitDx=0;exitDy=0;fontColor=#000000;dashed=1;entryX=0.5;entryY=0;entryDx=0;entryDy=0;" edge="1" parent="1" source="juF5vXDWfetMW0yKtIsb-37" target="juF5vXDWfetMW0yKtIsb-72">
          <mxGeometry relative="1" as="geometry">
            <mxPoint x="220" y="1800" as="targetPoint" />
          </mxGeometry>
        </mxCell>
        <mxCell id="juF5vXDWfetMW0yKtIsb-36" style="edgeStyle=orthogonalEdgeStyle;rounded=0;orthogonalLoop=1;jettySize=auto;html=1;exitX=0.5;exitY=1;exitDx=0;exitDy=0;entryX=0.5;entryY=0;entryDx=0;entryDy=0;" edge="1" parent="1" source="juF5vXDWfetMW0yKtIsb-37" target="juF5vXDWfetMW0yKtIsb-70">
          <mxGeometry relative="1" as="geometry" />
        </mxCell>
        <mxCell id="juF5vXDWfetMW0yKtIsb-37" value="调用社会化接口&lt;br&gt;同步向导数据&lt;br&gt;&lt;br&gt;如果是新增的向导，设置advisorRole=28" style="whiteSpace=wrap;html=1;strokeWidth=2;" vertex="1" parent="1">
          <mxGeometry y="1240" width="120" height="90" as="geometry" />
        </mxCell>
        <mxCell id="juF5vXDWfetMW0yKtIsb-38" value="如果不是发布状态" style="edgeStyle=orthogonalEdgeStyle;rounded=0;orthogonalLoop=1;jettySize=auto;html=1;fontColor=#000000;" edge="1" parent="1" source="juF5vXDWfetMW0yKtIsb-39" target="juF5vXDWfetMW0yKtIsb-43">
          <mxGeometry relative="1" as="geometry" />
        </mxCell>
        <mxCell id="juF5vXDWfetMW0yKtIsb-39" value="&lt;pre style=&quot;background-color: rgb(255, 255, 255); font-family: Consolas, monospace; font-size: 8.3pt;&quot;&gt;&lt;span style=&quot;color:#008000;font-weight:bold;&quot;&gt;100036176&lt;/span&gt;&lt;/pre&gt;&lt;pre style=&quot;background-color: rgb(255, 255, 255); font-family: Consolas, monospace; font-size: 8.3pt;&quot;&gt;&lt;b style=&quot;&quot;&gt;&lt;u style=&quot;&quot;&gt;guide-sync-case&lt;/u&gt;&lt;/b&gt;&lt;/pre&gt;" style="whiteSpace=wrap;html=1;strokeWidth=2;" vertex="1" parent="1">
          <mxGeometry x="-160" y="1540" width="120" height="60" as="geometry" />
        </mxCell>
        <mxCell id="juF5vXDWfetMW0yKtIsb-40" style="edgeStyle=orthogonalEdgeStyle;rounded=0;orthogonalLoop=1;jettySize=auto;html=1;exitX=1;exitY=0.5;exitDx=0;exitDy=0;fontColor=#000000;dashed=1;" edge="1" parent="1" source="juF5vXDWfetMW0yKtIsb-43">
          <mxGeometry relative="1" as="geometry">
            <mxPoint x="220" y="1820" as="targetPoint" />
            <Array as="points">
              <mxPoint x="220" y="1724" />
            </Array>
          </mxGeometry>
        </mxCell>
        <mxCell id="juF5vXDWfetMW0yKtIsb-41" value="&lt;pre style=&quot;font-family: Consolas, monospace; font-size: 8.3pt;&quot;&gt;&lt;span style=&quot;color:#008000;font-weight:bold;&quot;&gt;vacation.advisor.auditstatuschanged&lt;/span&gt;&lt;/pre&gt;" style="edgeLabel;html=1;align=center;verticalAlign=middle;resizable=0;points=[];fontColor=#000000;" vertex="1" connectable="0" parent="juF5vXDWfetMW0yKtIsb-40">
          <mxGeometry x="0.7143" y="-3" relative="1" as="geometry">
            <mxPoint y="-75" as="offset" />
          </mxGeometry>
        </mxCell>
        <mxCell id="juF5vXDWfetMW0yKtIsb-42" value="" style="edgeStyle=orthogonalEdgeStyle;rounded=0;orthogonalLoop=1;jettySize=auto;html=1;fontColor=#000000;dashed=1;" edge="1" parent="1" source="juF5vXDWfetMW0yKtIsb-43" target="juF5vXDWfetMW0yKtIsb-50">
          <mxGeometry relative="1" as="geometry" />
        </mxCell>
        <mxCell id="juF5vXDWfetMW0yKtIsb-43" value="调用社会化更新资料状态接口，将资料设置为发布状态" style="whiteSpace=wrap;html=1;strokeWidth=2;" vertex="1" parent="1">
          <mxGeometry x="-160" y="1694" width="120" height="60" as="geometry" />
        </mxCell>
        <mxCell id="juF5vXDWfetMW0yKtIsb-44" value="Y" style="edgeStyle=orthogonalEdgeStyle;rounded=0;orthogonalLoop=1;jettySize=auto;html=1;fontColor=#000000;" edge="1" parent="1" source="juF5vXDWfetMW0yKtIsb-46" target="juF5vXDWfetMW0yKtIsb-47">
          <mxGeometry relative="1" as="geometry" />
        </mxCell>
        <mxCell id="juF5vXDWfetMW0yKtIsb-45" style="edgeStyle=orthogonalEdgeStyle;curved=1;rounded=0;orthogonalLoop=1;jettySize=auto;html=1;exitX=1;exitY=0.5;exitDx=0;exitDy=0;entryX=0;entryY=0.5;entryDx=0;entryDy=0;fontColor=#FF6666;" edge="1" parent="1" source="juF5vXDWfetMW0yKtIsb-46" target="juF5vXDWfetMW0yKtIsb-74">
          <mxGeometry relative="1" as="geometry" />
        </mxCell>
        <mxCell id="juF5vXDWfetMW0yKtIsb-46" value="全部资料&lt;br&gt;已审核通过" style="rhombus;whiteSpace=wrap;html=1;strokeWidth=2;" vertex="1" parent="1">
          <mxGeometry x="180" y="1960" width="80" height="80" as="geometry" />
        </mxCell>
        <mxCell id="juF5vXDWfetMW0yKtIsb-47" value="更新关联关系表中的转态为可用" style="whiteSpace=wrap;html=1;strokeWidth=2;" vertex="1" parent="1">
          <mxGeometry x="160" y="2100" width="120" height="60" as="geometry" />
        </mxCell>
        <mxCell id="juF5vXDWfetMW0yKtIsb-48" value="" style="edgeStyle=orthogonalEdgeStyle;rounded=0;orthogonalLoop=1;jettySize=auto;html=1;dashed=1;fontColor=#000000;exitX=0.5;exitY=1;exitDx=0;exitDy=0;" edge="1" parent="1" source="juF5vXDWfetMW0yKtIsb-49" target="juF5vXDWfetMW0yKtIsb-55">
          <mxGeometry relative="1" as="geometry" />
        </mxCell>
        <mxCell id="juF5vXDWfetMW0yKtIsb-49" value="发送上线消息&lt;br&gt;tour.crm.&lt;br&gt;advisor.isValid" style="whiteSpace=wrap;html=1;strokeWidth=2;" vertex="1" parent="1">
          <mxGeometry x="460" y="690" width="120" height="60" as="geometry" />
        </mxCell>
        <mxCell id="juF5vXDWfetMW0yKtIsb-50" value="需要考虑调用失败情况的处理，否则社会化的向导状态不会变化" style="ellipse;whiteSpace=wrap;html=1;strokeWidth=2;fillColor=#f8cecc;strokeColor=#b85450;" vertex="1" parent="1">
          <mxGeometry x="-160" y="1834" width="120" height="60" as="geometry" />
        </mxCell>
        <mxCell id="juF5vXDWfetMW0yKtIsb-51" value="" style="edgeStyle=orthogonalEdgeStyle;rounded=0;orthogonalLoop=1;jettySize=auto;html=1;fontColor=#000000;" edge="1" parent="1" source="juF5vXDWfetMW0yKtIsb-52">
          <mxGeometry relative="1" as="geometry">
            <mxPoint x="887" y="690" as="targetPoint" />
          </mxGeometry>
        </mxCell>
        <mxCell id="juF5vXDWfetMW0yKtIsb-52" value="&lt;pre style=&quot;background-color: rgb(255, 255, 255); font-family: Consolas, monospace; font-size: 8.3pt;&quot;&gt;&lt;span style=&quot;color:#008000;font-weight:bold;&quot;&gt;100036176&lt;/span&gt;&lt;/pre&gt;&lt;pre style=&quot;background-color: rgb(255, 255, 255); font-family: Consolas, monospace; font-size: 8.3pt;&quot;&gt;&lt;b style=&quot;&quot;&gt;&lt;u style=&quot;&quot;&gt;guide-sync-case&lt;/u&gt;&lt;/b&gt;&lt;/pre&gt;" style="whiteSpace=wrap;html=1;strokeWidth=2;" vertex="1" parent="1">
          <mxGeometry x="827" y="550" width="120" height="60" as="geometry" />
        </mxCell>
        <mxCell id="juF5vXDWfetMW0yKtIsb-53" style="edgeStyle=orthogonalEdgeStyle;rounded=0;orthogonalLoop=1;jettySize=auto;html=1;exitX=0.5;exitY=1;exitDx=0;exitDy=0;entryX=0.5;entryY=0;entryDx=0;entryDy=0;dashed=1;fontColor=#000000;" edge="1" parent="1" source="juF5vXDWfetMW0yKtIsb-54" target="juF5vXDWfetMW0yKtIsb-55">
          <mxGeometry relative="1" as="geometry" />
        </mxCell>
        <mxCell id="juF5vXDWfetMW0yKtIsb-54" value="发送下线消息&lt;br&gt;tour.crm.&lt;br&gt;advisor.isValid" style="whiteSpace=wrap;html=1;strokeWidth=2;" vertex="1" parent="1">
          <mxGeometry x="827" y="690" width="120" height="60" as="geometry" />
        </mxCell>
        <mxCell id="juF5vXDWfetMW0yKtIsb-55" value="社会化修改向导的isValid字段" style="whiteSpace=wrap;html=1;strokeWidth=2;" vertex="1" parent="1">
          <mxGeometry x="640" y="880" width="120" height="60" as="geometry" />
        </mxCell>
        <mxCell id="juF5vXDWfetMW0yKtIsb-56" value="" style="shape=image;verticalLabelPosition=bottom;labelBackgroundColor=default;verticalAlign=top;aspect=fixed;imageAspect=0;image=data:image/png,iVBORw0KGgoAAAANSUhEUgAAAfgAAACLCAYAAACN6YukAAAgAElEQVR4Ae1dvY7kuLUuP9Ji/BgG+j6Dg90N5j7ABnuDSSqZwBvMA2xyO3GyAwOTOmsDDsaYB7gTOOhgY2Oz1cUh9YmHR4c/UqmqpO6vgB6S54/kJ5EfKWmk0/BCf7//Xu6Yp6uYlwNRQwSIABHYAAFvTkJYT8f5CugwrSFwqin3pJMTGn897fIGhfjZGBwoPWjShggQgSUIYJ7pnV84Xy1Bl7a9CByC4PUgwcCpdbBlA72OW4tHHREgAkSgFwE9r2Cuqfm2bKDXcWvxqCMCQGD3BI+TGw2W1JNl+sZIaKh1KOaJABEgAt0IeHOTJ9MBS7t32HC+AhJMlyJwCIL3OlUaNCW5F4MyIkAEiMCWCJTIuDQvleRbtomxXi8CxyZ4ZzQ5orDjf72HmD0nAkTgVgh484/UHYjcUToizle3OlivoJ7dEHwYAONA0LhDrmXIezo7YGwZvkyJABEgAmsRwNxj5xfIvbiezvP3fCkjAmsQuDvBeye4viflDQrd0Zn/7+179NqfeSJABIhALwKz+UY2JUrI+aoXSdrdAoHdEbx02g4SGUBqDGW46MEFRckWeqZEgAgQgTUIeHML56s1SNLnFgjcneC9TtoBIzbewKrJvbiUEQEiQAS2RoDz1daIMt5WCHQT/Nf/fN2qzmac0oDxSN6TNSsoGEgf8VcwWS3eGr/XFq8X+K1xuVe99+oH+9uLQLLrna/kmP7fOMck721yW58vry1e71HYGpdr19tN8L0N2cLOu+wuccNAUoyusltUyxhEgAgQgcUIcL5aDBkdboTAPgm+0XlvxdxwoZoIEAEicBUEWhsNzldXgZ1BOxDYHcG3BktHn2hCBIgAEbgJApyvbgIzK1mJwK4IPqx0OWJWHkq6EQEicEsEOF/dEm3WtQaB3RM8+X7NYaUPESAC10bAI3jOV9dGnfGXIFAm+OfH4eF0Gk6nh+HxeUnI9bZhwIzuHCjrcaQnESAC10eA89X1MWYNlyFQIPjn4fHhNDzcitlVH2ovtVFmzBIBIkAE7o4A56u7HwI2oIJAgeCfhvMNd+6V9lFFBIgAESACRIAIrECABL8CNLoQASJABIgAEdg7At0Ef683+OwdwF5c9m63Nc69/e2ttzder11vvb12W9e7dbyt+7F1+7aO19vfvdv14rJ3u61x7u1vb7298XrteuvttVtbr0/w4QG78/DUWzvtiAARIAJEgAgQgV0hYAhe7r2fhtPD43CjB+d3BQYbQwSIABEgAkTgpSBgCH7sFnfwL+X4sh9EgAgQASLwShHwCX7gU/TXPB/4f/yviS5jEwEisCUCnK+2RPO2sUjwt8U71KZfkHGH6lklESACRKAbAc5X3VDtzpAEv+EhWbLSLX1icsPmMBQRIAJEoIgA56siNC9GUSD4+Ca7Mx+jv/hA1wZRTXdxxQxABIgAEViIQG1OqukWVkPzGyFQIPhhGO7wLvob9fmm1cigKA2Mmu6mjWRlRIAIEIFxruJ89XJOhTLBv5w+3r0ntcvxNd3dG84GEAEi8OoQqM1JNd2rA+oAHT71viHnXnYHwDBrYtiVmyWwFP/vP18zOxRkwGjzvePM9uHI5em9cNm63rxX5dLW9d4rXrmHx9Ksxe9W81Uvmmv7UYrfG6/kb+W98fZixx28PYIblMOgMXEskUPt2ULHlAgQASJwbQS8OYjz1bVRv018EvyFOHuDQ0J6l7KsrZT5IwJEgAjcCgE7B6FezldA4mWlJPgLjicGi7fahU6Hh0xS/ogAESACt0Rgmn/MbUFpA3S6PZBxvtKoHCtPgl94vHDSazdPJnpvVaz9mCcCSxE4vfOHbEm+ND7tXxYC3tzkyaTXnK9e1rGX3vizxcvr52Y9ksHh/Yq7+JKDF4QyItCBgEfmngyhRGf/RGdlKMOP6fERKE0/nK+Of2x7erArgn/++ONwevMhfKb26f23w+ntp/VftfvyYbF/rP/b4fylDF1pwIhHadCUoy3XCC4PH9O3/jbFzDZHMHzz4/D46zDoeqzZ0cq6LxefZ9XOPw+PP52G878KRvKuiXfbfJYZ5KxT1Cqy2q+ufxrOskD4qfWFyUZfaw2g7moI3Hu+ulrHGLgLgfrI7wqxndGmE+8VCb40aDyCb6ITSPTb4fRG/8VFjue7J4IP5Ih2O4uxeDzRr7xPme+bwqLq10/Dg8R//3kGRebv1D0Mn4ez+Dq6Tc+zWcuU4F/nKjE+/XwaHv6WFmvKc5bVxK3zYlgn6Lq+5TvIh6dI8LPjcRSBzFWbzldH6TjbGRDYFcEPipTDJOxM7N3HTcXq9ukwDAOmMGKgK6jr0QPR5yToOViC3xQzW2Eg2LFNFk8pT8fneXh8a4jY9CcQskO2ocpQT7xSgCaE4//20/AoV3KmeqIWOlBjiK1txrof5YqQV6fqy8XnGRrspELgxd17IM7lu3dLyF7Zk0nzRI4/W9ZypysdIu7gO0C6uQnmJK9i6FbNV15AynaHwL4IvgVPmLixI5zv+sJkjR2l3r19+TD84Y+GPDMCGnd7wTcnGjQJsf/wx++G05vvzGX8z8P5j98N0OWkEslPLvunXadTR9Ye1CrpSJ6qX/oSvbYs5Z8fH4bT6WF4BCOWDC+Q56Qb25y10yHxVJ3grzAR25GwZ+Q97syz2yh6ISL6kdTzNqXabpJrXH5//tvDcPp5+cceLHlLX0DOng76Wgo8rH9oIxYFblvH3T1s3tUWNKiF6a0RCEReqLSmK7hQfCAEDkTwn4ezs0ubpkhLkFKedm9CIDkpy+T/Bx0vHDRDNDiQGYFEIS7H/x4I+Dt1X/x5+N+336ldZyJoEN6ctIYh7MTH5w9QraTWVsqIo+1q+dsTvMVRynFhlhEzGp0dKwhjavsfL72rxUAws/VF33sSfP3yuxDjugWXR+YgZqQ5gukSPfSt1Pr7i5G4Y0+3GLiDt7hdUt6aeNN8NW8VdHMNJUdH4EAEb6HWk3raJU9WhjSeP/6PId3/CQ+P5QNJx5wiDUMg+PkVg+DrXB34PVsQjASvFxOmbaEmkVmCz+LE9qwheNWT62Rn+ADHtLjBFYy0OEk6ef7AJX5ngSMdsKQfyvoKwNjL+xF8g8Ab9+ZrB8mSs9jWZJ7e2tuyrd8l+FkfSPAWt0vKYW6Rf8wvn6+MslEs+ZbqaoSj+gAIHIrg40SeLtHjCW9cxs5IwpKoJkvJT7v79JKH38PlX7s7HI9iIOCxbuUrO+8//Ld52l/XNV5iz9rmnRiHJXghc3tVIcpy4nYWYRMOUZfIf1LMyDxqUvxYh5TNLRi5uVG6B5/CXyXnEuJU02VE6JGxlaGMKlGWFH+i03Jdhh9Stz8keMBztbRKyJWH59Y0SOri7+UhcBiCD5N1NonLpA4ydsjDEvx4KV2IVnbzlkziKlbupcedfe1Qh4UGSN4j5mxX77TNC+7FyRYK0Unqtm33wt1GNhKtvjoRKvYIWx+veevC8Z3Fme/W555DvMKC46EM7kPwDQJv3JtXzXezlpTFCDKbRwDokZbkVg87EjyQuH2Ky+eWgON8dfv2sMZjIXAsgleTuL0sG8ogiECM8/8iFYn98/D4dr7bk8MWd/Btgs+JI5JcIl1LbhcQvHmgLC5ylhP8de7Bl8g9DoDYVizAWrvpGMu7ypEdV29shWOd6tEm+XHSmnb+6XwaTqfTcJ4e8mj7BIvZzjb3q9+bz229EkgYqdiU8vCHvjeFH1KX4MNCJT1HIP2S+OX/NYBoTJcgUCPyoFsSjLavDoHDEPz0/5rHh7UePn5SO3g5biPhBP2H4enXT8N/qQVBPLLxaXf5b1fZijjsuNNT8PFp+EQaINb0f9XtAkHXbf9bV4Pgw85d33aQvIqv9e8/h8vOaTHRd75eg+DnmMQ+aJLObLJjETFJeNp78AZP/A+CcQGXxdVYBTjmsUM9Wf0duD2dA8E/qP968NtvvzUd6wTeuDffiA6CFrNS3up0WXy0n9VJOf3ilQj4TKl6mj4Q/xhTHraTvpPgE4Jb5bCL9+KJjr+XgUDP/LK0pwci+KVdS/Z2DISVrxWO5kGXXJl7rQjIDtXs4JsD0Fx+F3vt4+6EF+CrydnLQ4YUoVFGauWlMuRMb4uAnZo4X90W/3vVpueKnjbY+cXzebEE3yLqmt4OMA84yl4qAs/D48PKy/MGEgzApQPXhAlFTc6Sr5XFAXqkNqYn92TWj+XrIFCbj6TGmp7z1XWOyd6j9swvL5rgWweIl7daCFHfQqA1yKBvxaH+dSPQQ9Kcr17fOYL5Q1LvB72nE9mLJngMGqx+UQYYkKPMlAjUEMBgsoMNcs+3pvPsKXudCOi5CHnOV6/rXMBcseX88mIJXk4NPVB0Xp82dhBpHfOvGwEMOI1Crww+nj10TImARkDPUTpvbXSZ+eMi4M0NvTL02rOHTtIXTfC6o8jzMheQYGoRwGDxUthCh7KknmyJXtsyTwQ0ApyvNBrHzmOe8FL0DDqUJfVkvfrXR/AaGeaJQGUAYWBJih9kKCMtyUVf08H/GinqRXqNOhjzugjwCuN18b1F9NL4g1xS/CBDGWlJLvqa7tURPABjelwEcEJLusUP8bxYnq5XhniePXTXSu9R57X6wrhE4JYIYOxIusUP8bxYnq5XhniePXSvguC5Csbhfjlp7aRe2kuJVfp59fTKJCZsa3WU6r5Efuv6LmnrXn29/zboybz2t+xqes5XHqK3lWHcblFrbSx69fTKpG2wLdXxKgh+i4PEGPtCACe2bpUn03ov3+NjbWwZca1clyW/1U/H9WK29J4PZT4Cloil7P1Zb+snei3TeevL8v0R8MaQJ2u1tMfH2tgy6rByXZa899sVwcdXkMbXtIZ3kC99vajuobzidaE/XoGqX7eqQx43b17finf2jx2y7/VHP6M8voJ26etxEeNaqT25UUa6pN6Wj9Xbsq4LOkmbv9nHhOIregPW4/cU9LmoYyOv68D4+ftvvw1/P/958fmvY90yj3bLa/8vHvdX/BaAJuVWHnqkwBNlpJDrNL7XP73nX+t0vv5aZG3J/FIE9PhCXqdL4sGv5GP1tqz9oJO050eCVyjdg+BRZ3ove3oHvmraRdlQR2WxUyJ4VCr65QQvZLV9X9AmSb2T3ZNpHy8PH0+n69F638d/h74maR1jWEnwpTaBKDXBfx1fl4v2BuL3jsu4oMB5mLfZLBA9/7FjWBRm/iZ2qEMtMtHuywn+el/ys4Rsy/q4ig5/Wi55+CG1eimT4D1Ubi/DmJEUP08GXSmFzxJ9y6cUy8p3RfDybXXsusOgV5OAbXizrGI1be9oMCPf8HGZbYlxHUEnUNb5b0PwONGRplYlgtcyyXu21kaXYS+p/ZV0nm3yjUSfkVxSppwi+FjP1+Hn7/88vPuntGOOn64T7UrBhgHjR0j9619/GE7nfyh1bNO7v/4y/OmbH4bHX5UqfEpZnXOtczDo1QeRECqMuQ/D+a35eJD0s7LARLufh/Grg2vHvXwL4KfHQeJ4P/kWgHwUZ8nPI2LIkHrxrK5V9mK0ZNzBtxBq6zGOkGoPTyb6klz76jzsJbW/ks6ztb495X0RfKvFYWJJX16zE2jcCSQ9FgthArFfHcsmqTj5xd2LmuhUe2zsvG7tbz9TG3c/Yo/dzUntgGYEHybbtGMGuer6s7rt7mg2Ocb63R145utM2GP/0QYFR8xmx8PiNieo3N/sCjMCEN8Pw9//LWT05yEcl0w/Yik66N8As2dFkrHGgF2Gizle7z9Pg1YGVrA3sYUsMej0sci+/Dd1MMbPjhN0GWZyrn4YZMeN2DArp0/D+SQ7xL8XfSQW/hDn6X08Pr8FTC3Bwwpppf1iohYm8MDXHM9f0vk+6VoEPxlelqkT3vIv+VlSltZZmVcWmf5Dr7StzkM/hI8Vwfc8zL9UPP/C39IFy1QXM7MxYiGxYwj6khx6L4WPpPJDGba2DPml6YEI/vNw1pN0RtDj7kWTuOgnUphPWPNJX6AUO0tUpQkN0FsCHYlramsiMpBsIPpRH9oxtVNi5vGmRYFrb/sVy7GemMcl15Qu7V8kU7QdvY6TvIplj0cJyzHA88cPaheZ91mOw7tAsH8ZJznTz7GuSIxfh8e3+hO9MZbsgjGY7LF+eq8XMyl2GGQjAf787zgQA/5vPw241G0Xi/PjJx00MUG4//5leNDn10iU0o/+30jw56fZJIEY1cni109hB4/+wSdPU/tzeSxZPEWazumIf7a4uQXBmy/52XYv/ZKfJWAQto0rZU9n/WEHf08PXST6OcGHS/fqc731Bc0UjRkHgeoYGe1rNjWdU10QwQeptvNkWl/Kww+ptTsQwdumyyQEgnEmlYzg7aU/sYevjqtjKnmYiM1lR6hnxGYXBLFt8g366afaZgkilNVCBQQzXVgcSUFW99Y3xFexY32x/hlBT42x7dWKmJc2WH+pO5fZY1DAch4+SEJfJoyE4H8YNAnpNiQyiSvhcDl6WiTFdtQI3jZBx55hOh5f7LLFNiMvdyETCTJeak+1yf3vP/31axIEsv1L2MEnYX+uNKglQlHXQfAB3wlPtCf2yb3Kpc5JLFAzjMbxkxaZeoGF+JeldQJv3JuvVA3yrqXWHbZWrsuwkXT28xYrjowEP0OuW1AcHyZCya4kN+7dxTXxxEf/vBjO2aVd9pUPE88bdQl+AcFnlxVlwplNYNLXCimFiX6sW/vOCNUSpiW+HNNAKFmf8slPk0/uaRcto3bWnusQ/PxYRGzSxF7BUpo6m/T1LjwRPE5aIUcsKCJmEafffov3raEDwVQJXh/LEfvJP+jS4i/0c7qEH+tKRIVzMdnHoxCvQFiCl1hC8NPAvCPB5/fg05mlsU1Sm4tkH4+1Pb9t2fqO561axM4tlkoal98bT9bXanMJWDl4eo+8tQx5FSbPOmTu7epJ8DlsS0qYV3Tq+UNvdSW5testI56kPT/YW1srPwzBzyceTSDOpFIgOpmUJNY0oWcI6ZiZIiuESR8kHwghJ+X8Mq7TNhUt9AuxlBxZqctvq7+Dn8eL9ZdihHqyHRhqTqnXBk+WPCRXwzIShG5TaLfawcvVGdnB44TF7jeU//mXeF9eyFku5X//i3qwKva3SPDjwiItRMwtiNnCQx/beey8zyitI3j0VaeI6KUtO+i1b+0efDgG06JZe83z0/Gf4YVFj30WRcVonG/Ksi/bIPBLiNASeG8ZdkhtR0ryYEeCt3BdpYzx4aWoEDqUkZbk0F+S9sQu2Vj5sQheEaFMMPphtVAGQWDSUfYCuExgDx8/D49v9aStD0WNlJJdTqKWrCyhxrImlBTJJ2mtnyZSLUR+7GeKHduSymJo2wNnlTYmXLcNZqeroo3ZGpamnTheOH7O4iARfNxFo4/2hNb9FV1cbKmrA6GutOP+TRYL36SrA25fxx5JvHA74Jt4WT3En3c8LG7kGQK7gw/nzfe/jPfz/zGcwwKlHGveN6ks3YOXkm8TGwUd2hnK9jmAsf1LyH32/MUYIyb18x3HJ7tllfn7hafzaTidTsN59uRZ4/K7R5Z+Fa7UEnFv2drZ4FW922a5SnEazv+KkcItiXenxf8rwLaD5YiAHisYL6KB3MNJ23n6lr/1QV06tTYowwZlpJBLKr/DEDweXMLl0YePn9Q9eOlKJI2o/zA8yURuCH6ymYhkhCWQldp5hMu2iQTi5Kf1doGg61ZkEsLXJ7x8sTC2RyU1wglmIEd7qXmKUSb4eb+kj+ib6ZMXf4YbfKVyz7+E6Yfh8eOPQ5r0xTfZSjTgEE5gvYMPJGl28RqTt5+GJxVb/GWxEHb+svt/+2l41FdJtO/YZ2CCwRNw00/ZT+eZ6rPSYzEykVvQyZPsstO/HsHjFJB2x4XJ+D8Spn4BY9XuSad34FYPP9Sg0/n5bs8zfeVGe1bzT+dA8A+P09Mo0dwlwxSpfm8+2fXkQMqSIl/yW6MHaSN+TNXDdnKlAk/o//w0iD2foi8dgXVyjHHt7cm0Xudhi1TrWnnto/OeX02vdQcieK+blL02BOSeuzw1n0hTECgvYjQ+cuKXfhgUuFKg7WRxIYsP7Q97bafzNb3W6bz2R/5SPeIcPhUid3bw9cvvsuttvxGuhQ1I1dqV5GInutqvpa/5Unc9BGS8rf3VfDGOkXp1aP+anfjW9FpXPwu9VlBGBG6IAE5WpLgykBH8uOvOZAvaKLHjLy4UsgfhxisRdteZ2uNXVNNbnS3riDWd2EGvU+1//Pzz8PhQujx/vd6BvHuI2LPxZLq1Lb22Zf56COhxI/lr/Gxc1Fmrq2VT02sdCb6GMnX7RGB2a8Du6PubrQdD8MIlenWJ3ZI7os98oVDEq0RT1vrZ8mQ4xtFl5OGDFHKmRIAI7AeB0vgsyXXLaza9OhK8RpT5F4MABoCX6k5Cr2WSL8m1Xcumphed/nm2nkz7ME8EiMB9EMDY9FLdIui1TPIlubZr2dT0opMfCV4jyvzhEcBJjxNcd8jTQabtJA+5Fwe2sEHZpjW9jQtbyFG2MVkmAkTgfghgXGKc6pZ4Osi0neQh9+LAFjYo27SmR1wSvEWN5UMh4J3kngydsjpbhp2kNZ3Wi13p58XwZPCHrhYTtkyJABG4LgIYj7oWTwa91dky7CSt6bRe7Eo/L4aWkeBLyFG+SwRw8iL1GrlEt8R2aV1ij/iS6rIXizIiQATui4AerxiztkWwsXIpW50ta5+aDnYtG+gl9eonwQNJprtEQJ/ApZPYNhw+Vi5lq7Nl7VPTwa7HRtcr9vwRASKwDwQwfpFKq3Tea2VNb3W2rOPVdLDrsdFtFnv9I8FrNJg/BAI9J33JxsptWQNQ08Guxwa2R09L/7WrJD96f9n+14lAz5gu2Vi5LWtEazrY9djA1ktJ8B4qlO0agZ6T3rPxZNLRkhy6Ghjw1WnN/ug6j8w9GfopOvsnOitDGX5MicC9EMBYrtXv2XgyiVGSQ9dTD2JIuuS3K4KPr7SMrzsNbw+bXgHa36XgZ15z6nnj1adRF19wEl+VGl/LWfq/z16slmyLfrXqeE16nOy1PsOmlGpf2GgZ8qLzfvBB6tnMZdc9z/L6Gu9ob3ygJY9VL4GcdQoPkdV+LX3NF692xfvZi7Yb9rVYBxUvBoGeMQ2bUqrBgI2WIS867wcfpJ5Nj6w++noibGizBREek+DHiR/vAc/elW/fA65e6jK+8CW9wW2MoxdG2Uth5u8Qz98Trt8lLwe21q4hfcgltHvj2OZd9mnBNbZJvYgmfn8g1R/6ZPTACANGvqr2ALzVl+twOmcxNJ7je/HxTQR5l715O3oMAdyzYzm2Pci2X0ii7SGtklqD/LNA9d12i6Br+prONMEtkuBdWCjcAAHME6VQJT3kkuof5C2Z1m+R3xXBhy9/jRNmmGCzyXGL7qYY+Q4+fcwEpAZCSB4X5GSyL/ZrJHDd1y8fxnetR0JI5Ja3QTB6eKs+fStvYZMySCe8lc0Q3/QxGRB0IvWwOIIviGxqlyGka8a275Yf3y6nj0k2YAKZpn4EXD4+ly+Nif03P4TP0QJRxJM04DB+9Q16pOG8LGIEK8Hqx+H8Xn9AJ+rSeRePre4TvLdI5R3txZ2tvNf9p0d/YVKp3BKyV/ZkElLk+LNlLa9Uv15VXeysD0vPl4sA5oNaD2s2VoeypPJDuRZ/C92+CL7WI0WS0SxOoo+/jk4jCUxfk5vFGndP066t/J31mesoiJ+sVF93KhkukFvCyFwNiWa66fO3n4bztHj4MDx++TQ8jCQeiGoiaPGOJB1JxVk86Pp0fqxYt/WaseMnXhNhS/W2Pj1AEmnGhtYJXvodFz06xtjFIXwvvUDuOX6jR8DJb2vAK8MftVw5bXxhrf6BlnLbLHmLJcjZ00FfS1Fb7j//SEzeZtFjweB/TAa7+6l9KxY0aBvT14eANzdYFFo2nh4ySW/xezkED7ScCVdUliAsKcC9lm5P8A7JZg3AoiTtwrUaRPb0XvTPw+P7T8Pz1P/om3aIiIWFjVkgqUviwccuqMIuGZ+TvWbsYbDEGMqyMFM7ZwyU+G3ynGCBy2SjQRvxCZ+nlZhyKf/7X6bdbKz7U/hiHS7DpysoFjMJbGQBp9ge2w/djGvmczI0NTXI31hnxYks1X11EDPSzGFcAIgM+lYa/VsEj1rmdkEjO/Z3aiHOHTwAY9qJgDt3GN+tbEzYTYuvg+An0kvYrSH45L1VLhJlIhA/7kRwb0DO0W7qw5cPw8P7D8P54/OQCC+RcFjcjL6JdEBMifiF2HXMQKgBOxB77gN7IULpwzaxFcFjUSHE7hxDGWDyeVeL34QX7sPrXfQYM/mM/R9tIlZqQTX2HwuloFfxcvuEuRyhhId/XK8jLZDeWFnY2f78tKpqS84SpCbz9NbelmPD5n3wFy1zu3CL7Sdze4IEv+p4v3anFoG39HvAjwR/16MQCSGRTaMxIFtFRtEXxCv+kpcdZCJuHX8icLtjD1UrggK56nv2E8leM/ZIjGbHrp/PAErhcvo3PwzTbRooVCrfj//5+z+H77kHsfRLXQmwsoRPCpLLBF9Z8MS/8xfgPSf0exB8ncA9Qkz9bOU8MrYylBELZUnxJzot1+XoN28nCR6IMr0VAj0E3mNzq/Z69ZDgPVRuKAs7QEs4lfoDaYz24oudZXJJZB9iq91m/gCht7hIvvFKgNrJSgWKHK8Z27sH75Gl7N5P53+krhdyme+0SFHGql+Z7WgifdWLJOUZr5iE45EWPSD/lBocswBbFhpPx1+4k7WkLC2HzObRK+iRluS5ngQPnJjeD4G9k3cPMsci+Gk3icnUmTi9CXzcrYIMwyRuLnf3gLX9PfhhvKRuCGR6it62auy32sGjT8lSkfS4C59sQjndr444JAxDeVpsjHWZ8kR014yNqwvT4kT6ZBYzv34a/jQ+CS8Dsfgbr3pMGNgn9G052CdM3IUOKrO2kI+pt7j2sdoAAA29SURBVFgwJk7xeXh8OA2nk//wmOOQRFUCb5B/ilLMgYSRimEpjyDQ96bRTwg+XWbHA3MPf7P/IXG+EBB/2e2fcBsiPHNwGk58yA6HhGknAiD46vzSGeteZscheDwol10aTRMxSDvtmnDfeIR2JKSgf/853B+dyKoT/asQvNQ9ktDUdhCbbjMuC0M3ElMiLnRCEbyIshiJ3GGd4TaR+aQtPGw26q8ZGyQ/HW+0SdK00MEgTFos/nAZPZ0jySYuGID37DzI+pX7Z3hNC84UWefWEfwwPD8+DKfTaTgvvFXuX8YeW3TBw3USAQRdy1udLou/jmF1Us5+sljBZf2fnwJpTwSvdbB5pxdEcYEQ/c/Dk/SdBJ/By0IfAvP5pc9vL1aHIvi9gMZ2EIGrIvB0Xr6DbxB4lfw7OqPJ2ctDhhQhUUZq5aUy5EyJABFYjwAJfj129CQCGyPwNJxPKy/Pb9wSHU6Ts+RrZfGDHqmOpfVaXrLVNswTASKwDAES/DK8aE0EiAARIAJE4BAIkOAPcZjYSCJABIgAESACyxAgwS/Di9ZEgAgQASJABA6BAAn+EIeJjSQCRIAIEAEisAwBEvwyvGhNBIgAESACROAQCJDgD3GY2EgiQASIABEgAssQIMEvw4vWd0Sg979Stew8fa/M677nq+1aerHtsUFMz9aTwR5pyaYk135iU/uD7VFSr8+erNSfJbalGGvla+pe47O2ffBbUqdn68kQu5T2+FgbKZf+SvWU5DZ2ye5WchL8rZBmPYsQ8AZKr0wq8mxrck8nMbw/2xGvLi3Teeury5fatfxL+pIcbbP6Vhl+e01t+9HOkhx6my61t/69ZVtPq+zFtT6ezTVkvfWW7EryUlt77T07LdN51OXJoEPaYwPbW6S7Ivj4GtD4OtXwMZPZq1NvAcn2dVyzX5fFjq9sDa9qnb2zfSEOjTepDdX3pPt12cHSUxabJX9+zfkCQdfr5SFDipgoI9VykS35g6+kOl4rBvyW+GhbW19PGXVukq44b2r1en0rYYg4JX1NDt8tUq/NNq62qbWrpLPxlpZLcWtyXYfY4VfzWWKn4yA2Uh0HMknho2U6X/KDTUsPuyy94quUE6pZjfcpXEZW+dfOFvcgENz8Xe2L4zgOF/fLiQlRNbZ9x/1swbQdwddfhbr+Qyd6wJTywGKrVNcjMW1Z1yM6/Gm59rP+tmz9bBn2qAdpya4mRyxt48msHnWWUm2/WT4sGvU75vsj4wM1538lH91PnYeFJxNdSQ4/my6yz96rP++rjWXLtm6vvMbHixMW6ep8nz7ocwFG0jb9Z+td2val9lKfrt/mS+2xdl7Z+tbK2QeSaoYLdbsieP050kBc04dVOnslHwmZkVin7xUJ/uJ+1bqg+tzCrP6JV/ORmlqdM5183OM8FL+NsnCF6g2Wmkw3p2SnbSQvdvZXk3k6+Ftdqww/m1o/q0fZs9MynRcfKes/xEFq7SFHavWtMvwuS+OicPrATHcw+D1mX6Sz7rYPovdk1k+Xl9pr35jPx01clOTjSOpY8jevI+/X5W1GDcDZfuEP+pj21ufZaZnO5zXkpV477aV9SnltX8tr/5rdXLd+EzSPlSTzWS7p9pfLvvKlPrFqd6r48lr2tS/zlbFpIZB/WQxfGDu9SV8RmxHnbDFgYmf19sEYvyA2X8H3efdZzfrR59a0ChMTPs/pWNd3947DApEdULYsoSBDqmWoSutKMmsjZfvn+Vo/1G99S2XERGrjtcqeX6kuGwttRYyesrZdnV95aV7Oxbhrj1+U0zt4tAV9rGEAnfaBrJXCZ3HaccVC6l7ys/a2vCSWtbXjuoWL1ttYtl2tsvVH2fpBjtRrg/Yp5eGvU20LuSeDrpmuPOdrcZedLbVIV9d17DDVbtY25/njh+HxV0gjIWefCZ2RNmyH8GnZk76aYGy3IM7rE3zs8/zzsqmf63IykVYWJmHSyncl6+rxveyAsmXxggypltk8ytpWZPiJ3OpsWWy1TOd1HOSR9tiJDf5QD8pIEU+nolv7Q9xaujZ2yc+SR8muLPcJHn0o++XHDnYefr0yxGimDYL36qvFRF9baS1GWTcf9177emS6fVKfLiNv2wH5klTHED/8ajE8G8gk1XG8srZt5+eYtn3qFqmXdbsdaNX94lJrKgRvXWakbEhb27dsg37Frl3XcbW8vuoxXbXYsLbGqrO1u7+0Jd4A8was1KNtdR5t8PysDLZIoUfZS2EjKX46v0SGWOJjY+hyKY+6Lkl17EvilH23uFw5J3i0G2mpfk9/iaxUTy6Pfdb3tXO9T3zSrlrbrK5VtnXacryNMC4yzVU7G1t8e2RiAzukqFeXdR56nYoef1ru5XWsnjxiaFuRtcrw60u3OO/zmtKMk8v3WQok/O0QL6M7D8TVCD7zHWNUduUagBbBi224vz3eGsiuDOhA984HsndwW92u1gm5fkUqA6f3TzffDjjRQYZUy1q+Lb1uI2y1DHnokELek2ofyYuP/VmZLts6EMPKUUZslJek8L0snZPz8njlGNIf+fX0C/X22MIGPkvS8JDVT49D6Y62brONCx3kuqzzom+VEaMnDWSv2iyxe/8QH+1BCrmkVmbLni1skGobndf6njx8tS1kOm3pta2Xv/zKVR51PlPk+t2W3F1zkeDnu/8e0kbnl9gOw7wuxLl/2nGbY0kjW5ffG7v7JVWVbO2AsmXxgwyplum4Wu/ZlPSQI9UxvThby2y9tmzbU6q/Jtc6xEfqxb9M1lo49kRvE3wpitevS2SleiAP5F55SFXXrfPib8uIidTqW2X4daVm/NvYEmOtzPrZsm6f1pXy2t62S3xKfzU/q7NxPX1dtsV5n9dwWIIPT6bby+Jhl54ejktdjaQ73X/Gbl7v4EdinmySc7wHP13ejrFOtu7J3rm/P+nKmevfgx+fJZj6UW5Lr6a+2tz+ZPXapQe06GsDVdvqPOJaWW/Z2iEeUk+/lczGsWW0waYlux65ttF5W8cl5fq51RO5j+C99m8tq7V2CbkjDtqHFHIvtTatshejJAttV5fpbWzxWyOzPras22N1rTJ8tV1P3vODTKc6lpb35eWcrTzP1BckszoOwet7yeFSuEfkI4k5T9HHHX+6vP/48cche3BOYMnq0PH1U/I/Do9fPg0PE8FrnXPpP4O7XLgKwWf9+Xb9fyF0m904Gc3q3g2xgdAOKFuWKnplujnwkRR5rdf5NXrE7Ul1XZIv1Qc5Us8POqSeTUtmfW3Z+q8qy9Wfyq62GDP4zXdk+ml6295WWeoSm96/YtusIowRJ+5ImrZd2r2mq9nBT/dF29fy2f13wUORu/jpmK28rQftKsmtHvFL9lru2ep4Xt7zkZja1qujpNe2xfwVrngeh+CLqFBxDwRaD89dsgPD4OpNdf+9AdYrkzioU8esyaGz9rrcW/+WdjqW1yfIvBRthw5lpCK3v5KttesvxytAy/8ffLsGr/3ay9NfItOxL81rnHW+N67Xj17flp0Xe0uZF8u2aYlNj62OD3ukWnd5/jpXPOcj9fKWMgIRuBkCdrDpsuTxhwah3LKDvU21H3SeDDpJW3rYrrETH8/Pk6GeWptafjVfHX+TfNjhbnvJstZ+YNmDQS3OJn1XQVrtaulVKPdc0fqt82uwRH9sW3pitWysHnXVUmnHWj/bh1LZ3u4o2S2Vk+CXIkZ7IkAEbofAFS5b3q7xrIkIdCAgC1n1vxE6PLpNSPDdUNGQCBABIkAEiMBxEOgm+K//+XqcXq1sqfQRfytDFN22xu+1xSsCaxRb42LCF4tb17t1vGLDVyq2bt/W8VZ266pu0kf8bV3R1vi9tni9x2NrXK5dbzfB9zaEdkSACBABIkAEiMD9ESDB3/8YsAVEgAgQASJABDZHgAS/OaQMSASIABEgAkTg/giQ4O9/DNgCIkAEiAARIAKbI0CC3xxSBiQCRIAIEAEicH8EZgQfX5l6Gk4P5S8b3b/ZbAERIAJEgAgQASJQQ2BG8DB+Op+Gh8fSxwthxZQIEAEiQASIABHYIwJFgh+ezsPp/LTHNrNNRIAIEAEiQASIQAMBEnwDIKqJABEgAkSACBwRgW6Cv9cbfPYOai8ue7fbGufe/vbW2xuv16633l67revdOt7W/di6fVvH6+3v3u16cdm73dY49/a3t97eeL12vfX22q2tt0zw8gL803ngRfreQ0A7IkAEiAARIAL7QaBM8NLGQPIn3ovfz/FiS4gAESACRIAIdCFQJnh5yI7/Va4LRBoRASJABIgAEdgbAnWC51P0eztebA8RIAJEgAgQgS4ESPBdMNGICBABIkAEiMCxECDBH+t4sbVEgAgQASJABLoQKBI832TXhR+NiAARIAJEgAjsEoEZwU/voud/kdvlAWOjiAARIAJEgAj0IDAj+B4n2hABIkAEiAARIAL7RuDU+4ace9ntG77+1t0Lv956e3vSG29ru723b+v+3ivea8O5t797t7vX+dJbby9+vfG2ttt7+9b2lzv43iNLOyJABIgAESACB0KABH+gg8WmEgEiQASIABHoRYAE34sU7YgAESACRIAIHAgBEvyBDhabSgSIABEgAkSgFwESfC9StCMCRIAIEAEicCAESPAHOlhsKhEgAkSACBCBXgRI8L1I0Y4IEAEiQASIwIEQIMEf6GCxqUSACBABIkAEehH4f4Cg6IIcX+3mAAAAAElFTkSuQmCC;" vertex="1" parent="1">
          <mxGeometry x="-754" y="1180" width="504" height="139" as="geometry" />
        </mxCell>
        <mxCell id="juF5vXDWfetMW0yKtIsb-57" value="" style="shape=image;verticalLabelPosition=bottom;labelBackgroundColor=default;verticalAlign=top;aspect=fixed;imageAspect=0;image=data:image/png,iVBORw0KGgoAAAANSUhEUgAAAj8AAADNCAYAAABXaREMAAAgAElEQVR4Ae19TcssyZVe6R+MbPDChhFeGePVcOcXCIwXNtQYvJmtMC0t2ng3jBY92HdTXjRmBL4/oFe1mY0uGi54JTDoFQxDi/4DFyFrXsa9sReiZ6MOcyLzyTxx8sRHZmVWZVU9Ce89EecrIp7IjHjeqHpvHoK6Pv76t6rG4hYIfJtJ+u23IVib1EXPiwgQASJwCwRyyw/Xq1vMBttcE4GDTkbyo9HYppxbTKS13IKyTU+YlQgQASJQRoDrVRkfWu8XAZKfK8+dLCa5BcUjP1fuHpsjAkSACAwIcL0aoGDhwRAg+bnyhMbFJMN+YMuYr9xTNkcEiMCzI4A1ycMBNq5XHjrU7R0Bkp8bzFBcNDLtlmyZEKqJABEgApshUFqTSrbNOsTERGAFBEh+GkFc+yHHR1yS116wWT3rRIAIEIEWBLhetaBEn2dGgOSncfbjYuIwlUsWmVxsrq3GrtKNCBCBJ0cgt4bk1pwWuHKxubZactKHCNwKAZKfGcgXH/7CF5lnNDG4Slu8iAARIAJLEeB6tRQ5xj0DAiQ/M2cZH0lZchIXGqucmZvuRIAIEIE1EeB6tSaazPVICJD8zJzNEsmJtpn56E4EiAAR2AoBrldbIcu8944Ayc+CGcRvU16o2HgRAQ+Bb775xlNTRwQ2RYDr1abw7iY515d5U0Hy04CX5TP8baoBNLpMEJi7OIn/3JhJo1Q8HQJcr55uyuOA564Vz76+kPxknpNIcDI2UZfsdvEppKGJCGQRwOI0d1HLJqThYREorUcy6JKd69XD3hbFgT37+kLyk7k9WhYEfsSVAY/qZgRqCxDszQnp+JQIcL16ymmvDhrrh0jvgt2zPbqO5Cczw/o3JZTtAgN9JgXVRCBBAAuNXYigT5z7Ssnm+VP3nAjotQhlrlfPdS9greD60jbv25Gf13M4Hg7hcDiG82tbZ/bmpRcRXdb9tAuMtrH83AhgMdIotOoQ4/nDRkkENAJ6jdJl66PrLN8vAt7a0KrDqD1/2B5dbkR+XsP5eAjHe2U9hVnnR10FcJ7chIXEk4AGNtRFero5du3LMhHQCHC90mjcdxnrhCcxMthQF+np5ti17yOVNyI/L+F0xyc+pQnmSU8Jnee05RYX6EXigg51yJxe7CUb4reQaBdyizaYc1sEuF5ti+81sueeP+hF4oIOdcicXuwlG+K3kGgXcos2SjlJfkro0PaQCOBhE7nGhXxeLs/WqkM+zx+2reQt2txqLMxLBK6JAJ4dkWtcyOfl8mytOuTz/GHbSt6iTTsWkh+LiFPnb08OKHeuWvPhk1y5y2unVSc54VtqI9f2Jfprt3dJXxmbIsD1KsXjFjU8t2u0XXoWvXZaddI3+JbaWGMMNse127PtS30b8hO/7HwKL16L1BGBHSCAh153xdNpu1duibE+to68Vq/rUl7r0nm9nDW7F0MdESACIwLeM+Tpxgi/1BJjfWwdma1e16W81qXzejlrdi9mC93K5Ee+63MIh+M53OkfeG2BMXPuEAH9AKKs5ZwuIy4XY+22ruNgE7n2pXOj7LVRsnn+1BEBIpAioJ8hlLVMvcs1xOW8rN3WdRxsIte+dG6UvTZKNs9/K93K5KfvJk9+tpov5l0RATyEInF5OthyEjFz7LWYXK5L9LpNXbY5tQ1lLa0/60SACEwR8J4ZTzeNTDWISbVjzbN7ujFim5JuU5dta9qGspbWf6v6NuQnPO5fe201Ecy7DQL6oZKyvmDTOinn9NYPdfjb/DqXtdk6ci2Vug+53FoPf6892LQ//GBDnZIIPDMCeB4gNRaeTuw5vY7VZfiLtFfO5vna2Dl13U4ut9bD32sDNu0PP9hQ31KS/GyJLnPfFIHag5Sz5/SlwSBGpFyoI8bWoV9DLsldioFNpL1gs3rWicCzIVB7FnL2nL6EH2JEyoU6Ymwd+jXkktylGNhE2gs2q9+iTvKzBarMeXMEWh6ikk/JlhscYiC1n6fT9lwZcZCen9iWXLmcOT3aqNnhR0kEHhWBlmeg5FOy5TBDDKT283TanisjDtLzE9uSK5czp0cbNTv8LpUbkZ/uf3g+8c+9Lp0fxi9EoPUByvnl9Au7M/lNrSWP9EFfXp88nY4plUuxS22l9mgjAo+CQOn50GPM+eX0OnZOeUk+idGXl8PT6ZhSuRS71FZqb65tI/ITQniAd3vNBZP++0EAD5eWXu9gt7ac3vq11pFPZMsFf+tr9bZu/Uv1UmzNVspLGxF4dATwfGjpjRl2a8vprV9rHflEtlzwt75Wb+vWv1QvxdZspbxr2bYjP2v1kHmIwEIE8IB5EilhQx0yp4f9EtmSO+dj9bqOspalftb8YNc5PJ22s0wEngUBPAueBAawoQ6Z08N+iWzJnfOxel1HWctSP2t+sOscnk7b1yyT/KyJJnPtFgE8VJDoqK1DL1JstasUb2Phq6X1QR0+qENCL1IuW4eftmmdLSPe6nW8bcvzpY4IPDMCeI4ggYWtQy8Sz5XW2XIpPueLmFJ++JRyiA1+Xi7YbA5dL/nAhtyo6/gtyyQ/W6LL3LtDwHvAPF2u4/CFzPl5eh2jyzVfa9exKIu0F2xWr+tzfLw2dC6WicCzI+A9T54uhxN8IXN+nl7H6HLN19p1LMoi7QWb1ev6HB+vDZ1r7TLJz9qIMt+uEbjkASvF4iGH9EDQ8SU/iS3ZtU2Xc22KT+6qxefiqCcCRGCKQOlZm3qnmlIsnlPINLKr6fiSn3iX7Nqmy7k2xSd31eJzcdfQk/xcA2W2cTME8PBBbtER+/C3tFXzKdmtzdb1GEs28YNdSx3PMhEgAnkE9HMj5S0umxdtltqq+ZTs1mbrut2STfxg11LH37JM8nNL9Nn23SOAh9oOJKfXfiWfObaar24TZcRAQk9JBIjAfhDIPZ85ve55yWeOrear20QZMZDQ70mS/OxpNtiX3SCAh9aTupOwa52Uc3rtV/Mp2cWmL8/X0+kYlokAEbgNAng2Pal7BLvWSTmn1341n5JdbPryfD2djtl7+aHIz+v7z8Lhzbsg/7fiy+efhMOnH5a/Xf6rd7Pju/Y/Caev9jvtgsvx/evQwVUxG7L2BcHwzWfh/HUIuh3rtqc6Hmj78EsfYfv4Vz8e7rOfn34QDj/66eQ+g6+XB+OFD+pWluw2L3yhR93mZJ0IEIHbIYDnEs+p7olng077SRl6Lw984YO6lSW7zQtf6FG3Oe+pTvKTm617IT+RYHwSDm/0T0cAvaHtifxEgop+W6L69YdwhA3y8y/VkL4MJ+jfpIRucEpydCQMtqHtP5qSl0huRK/yg9DKQ99CfqSd2gIBu8jcBR9t93Sww1bKCV9KIkAEtkUAz6NuxdPBbm22Dj+RJZu2i1/u8nJ4OsTDVsoJ373LhyI/QRGWeNKQbJYzp0Llmhl5G/dIgvKkB52y5GdVzNAIZCQffZ8snlIf5uc1nD/9RNVDCBJrCRHyhs5/PMHqiBAISnSLeKSER/Ty0Eby8qOfho/9ohCJ0NCXEO3/7q8+Dq3pQnz4/+Yvh1PBmOv0S+0ylLFQDAqnUPOBXaRcqDupqCICRODGCOD5hPS6M8c2x3duW+KP/CJ13cv1aLrHIj+12Ykb4nhCkmyW8kaO+LHZaB8+NotxhlgkOn0KMd1wpVs2d9q2jrcf13UbvfgPpxX9R0nJcJP+aEtPLNQpxkgatF++/Ho+hsPhGM7jp2V554WWiI8mOyXy44w1Jbsy5m4e9MPdPeBfhrd/9IPw9m/Ub0OapIUG8qN+k0J+b9glG/xbfMQXfiJ5EQEisA8E9HOJZxO6XA9LdmuzdZ2zZINfi4/4wk/ks1xPRH6+DCf123088ei/HxQn226oUh824+nJQrrZ4nYRP4f8mM0V3p20pxg9WRn6OpIXkBZ7UuH2v2/E+kodedJ+5Gu7JD/D3PT91vPV433WZHbwF/Lz4/DFb/RDns6bzK2c/HgLARYJoGXr0Iss2eDX4gNfSiJABPaPQMsznfOxelvXoy/Z4NfiA99nk09EfuzU6g2vIxjJaYzeTHFykxASh+QEnVO1FzfjzBehLemSsIQsWTIUgv6oamilmqfzXEJ+hja2Knj49Lrxezf65E1w1nh29YGsRiw0yUsxjF9SVh9VRYKoSGsktvKdH3zvp5/33EKS0wtcYitdiNWy5E8bESAC+0YAz3Kpl56Pp5McOT1sLe0gh0heHQJPRX66TU59rDVseHXykxAS2ZiHkwR9K2XIj7j0G3LczHWs6HVdfB3ykxAz3STKd0t+OuJSO42KhGRyUoe5fBdeZPwgpx6mSvfNN7+MH32BWJ2+kj5ocjUuON988zF88aMfhMPpl8MiZBcQLCyYCi2tL2yIgYSekggQgftGoOWZhk9OagTgo3Uoi827EAPp+Ty77mnIz2TzTE5pGshP/yVbISGSy9+sC+RH3WmRhIHweKQl0Tl9U7mGYhLTaxMS1en2dfLTEZ+BtAyDcQrOWLRXMieeryI/EpcsCuKP+eiTanu8d8zpj9j1pf2h93SwURIBIvC4CNSe/ZwdepH6gr6m03aWywg8F/lRG5z9qCPWcXIQN0/7xWOQni/D+dP0lGCEuI38xM106EtHAEYy1ZEdW1908hMJ3vjxUGw392fh4yAmpW2+8zOD+PTEM0eSUjyl+z6GI6aK/MS59j7C7H1+89P4J/cWf7sYoY5F6+dvD+FwOIST/KdTvIgAEXgqBLAelAZd8rE21EXKhXopP21lBJ6G/ISeCOCjjuP7D+bLyf1mHP8q6l14cU4DhhwgScA2nrrgIxjIcUMF6UDb+I8YET7kxV9kJfkrJz9u24qcafvnXxZOrcbe2NIW5GeKSYcbSIa1a+ICcjPgmeCF3uv51N//6f/ybvhOj8IqhnZ4x9zR58fxP2lEVi29BQi6b37+NpKf45Z/Iqc7wzIRIAK7QQDrQKlDNR/PDp1IXpch8ETk5zKgGP1YCGARKY3qIp/Xczjy5KcEL21E4GERuGjtUKi05FHuLM5AgORnBlh0fSwEagtLze6j8RrOR37k5WNDLRF4HgRq60fN/jxI3WakJD+3wZ2t7gCBlsWnxWcHQ2EXiAAR2BkCLWtHi8/OhvUw3SH5eZip5EDmIsCFZy5i9CcCRKAVAa4vrUjdxo/k5za4s9UdIIDFSSQvIkAEiMCaCHB9WRPN9XOR/KyPKTPeEQJYoO6oy+wqESACd4IA15f9ThTJz37nhj0jAkSACBABIkAENkCA5GcDUJmSCBABIkAEiAAR2C8CJD/7nRv2jAgQASJABIgAEdgAAZKfDUBlSiJABIgAESACRGC/CDwU+eleidC9riB5eegS/M2LMFtS4JUMeEVDS8ytfbp3nHWvlkhfIbF2z+xrOvrXSMRXU9j3m13e9qr3gunOlrlNU6wSASJABIjABgiQ/ORAvRfyo9/dFd8NNr5TLDc0Ty8kaC75Adkb3rEl7Q8vbLWt7In8qPd3SZ8n7wZL3wtm38VG8mPnlnUiQASIwH0h8FDkJyjCEjeoyaY2Y3JUrhlR13c1/dQb85zOLCE/yB/bzJKewSucPx3fMC/asU1LjBBzgVS42HtB6iPRs6dO077E0zF9LxVyX9BjhhIBIkAEiMCVEHgs8lMDTTYtvDn9TboRS2hHHPBWdnWKEePM278TnT4p8E9ebO70ozEdr9qN4xk347gJ29MdtRFH96RfoinljhHxn5GIjLpYivmASWFsLvkxbTuYm9Ym1ZeTvCfrFF4mlvUUKbmRPqfjtORpvZaZiQgQASJABG6BwBORny/Dyf72/kYRGksaElLRbeKasPgb4nTjjJP69Ydw1G0lM92Rm/EkoquPH8X09Tfjx1LJZp30sztNGT96quUeO+KSn9hvRQQsRn14xGJCfvy2NYZj6/nS9clPjyHmK2IwJcr5HtNCBIgAESACe0fgiciPnQpNVLqNOtmYDalIyY74K1IwpNY5B2UIpQ3UIxQJWer6NpKhEPTHe7GsTrMmftjE0Z0kN5T6I6hRJ2MeSZnoHZxwYmbJj8EvFzu2dqNSxN+Zy6iXEy/HdqOuslkiQASIABFYB4GnIj/xxEQThWFjczZ1u3lr0iBlu9nH+ciQH7ENm6n5WMu2I766rQzhGKZfx8c2zGmW7WeSe8iivn+T6vTHhCgnJPGeyU/EYnqqE+8T4NbPW0oCR4xYIgJEgAgQgftD4GnITzy5SU5BNFFpID+KhExPRDDxOid0UzndXBVhEfeExDh90yk1+en7OGzUSZ4+yNMlXz4ek7sfhY3moRSxBVmANumXKCvjQNy1ZE98BqzQbtSb054MZgihJAJEgAgQgftC4LnIj9qgu1OgcZOLdXwnqN8Yx+/OdJPakZ4vw/lTQ1aGOW8jPylZkJjx+zwgCeOmXCENlmQkG3Ut99Bx9+SnI2EjRqN3WkrH09sMiejwnp6ypJmmtU2+85MjPtJ8b9OnW7Hv6t6Z9nKq6fp9CKctv6k9bZYaIkAEiAARaEDgaciP/aun4/sP5q96OqLQfbTzLrzIJjjZ8HofkCQAHAkH/iIKciQNkRwkH7dZ8qTbtv/vzEzy05+wjN/9KeU2tr6PI/HCKRTGJHLs+3Rc6Ud62i45hURoUgH4SnIL8gMiho/xOjnOV/IRpWAyuQ9KPe5tL6dwOBzC8fza4EwXIkAEiAARuCYCT0R+rgkr23p6BF7P4Xjgyc/T3wcEgAgQgV0iQPKzy2lhp+4XgddwPsr/TUTic79zyJ4TASLw6AiQ/Dz6DHN8RIAIEAEiQASIQIIAyU8CBytEgAgQASJABIjAoyNA8vPoM8zxEQEiQASIABEgAgkCJD8JHKwQASJABIgAESACj44Ayc+jzzDHRwSIABEgAkSACCQIkPwkcLBCBIgAESACRIAIPDoCJD+PPsMcHxEgAkSACBABIpAgQPKTwMEKESACRIAIEAEi8OgIZMnPx999XHXsa+fzOte9TqF7/cKS9zFJzu7VB+pVB15DkxeBdq+gOPzlX4ePv/vr8Gff/9OQvCIik6NVHcf1/bdBXhO1dFy2rbXnY+/57Phz9bXHkWvH6tva7e+z+HqV7tUkufusLZ/txfXqa/dv7XzXQ6K9JRkjftqj2jzXxu/Z8rWhHOL8tfqu6bf3+VhzrJKrZbxZ8rN2Z66R7+bkp2FTWoJDfVz9poj3hyXvHpu+v2t4v1b/TrKhjveC6XdZJe8tm5LCrm9499f43q9unKV+2feGrZw7pOO2JCF5v5ceb/9i0/S9X877vRK/St91/gRP+x638cWqQ/s6FvOz0X225N5kDBEgAkTgHhF4KPITX0jZbxZxU05IwLrTI5un3lDHerfhj4RihXZlw8yOq9/k9Vi/ete/QLTri+6n7o1gdPz0s3Ec8WWuovsQ4us44wY/buyahMU8cSMfCY89lYr1oV/mpGLL3D1JGMbdExXMSRwHxojTtKGfGqGunI4DpG3ExUZYHKx9rNv5EYx0XmvvTv66cW1wn40dY4kIEAEi8NAIPBb5KU2VIhCdm9lo+g2y+4173NDHlN1mM/xG/iYlP6NfvrTFG8rtRp60bghGYgshRPIjb7cfiNW7cP7qQzj2b26fbPr9aUpHIqYbc9Dt6XLfsO7rlrm7t7Knczi215EwEKHYtdjX1H/EytwnkVhpgjJ6DrkUsTLWSVX6lZK0tB+JfRJNBREgAkSACCxBgOTnawNbZiMcN8/Of8mmtD75cQhIMhwQNn+z7sjPa3j5XOyv4fz5h/A6jL+LHUkCcmGztqSgIxVCDmOMJZvxlEg+HpPNfcvcHak7qJOcSLrkI8FISmy/BTBP1wEZY1WujuC9C+f3n4WBCCuy0/l/COdP8VEg8Eompq/YdnuMkS9i5s+dl406IkAEiAARaEOA5KeF/AyEYAR1CfkZo9cqdZvlcHKQSTts/ua0ahjDV+/C8fN34fT+NWBz1wQlEr8+diQD2LhHUiSkR+eMZCNiB9KTxsBfSISMYZ3civyAcAmZUHMYx6MITTc+j2SgvwrYPueIeT/+Pt8kVz/+kUT2/XO/n9W1M85XegqkesEiESACRIAIXIAAyc8TkJ/h/gARURt1t4nrTV7K4+kMiAlyDORGfaF43Ng7IhDrIB79R2gxfiAgI2EaSYQiThflVuQCJyjSuPRnqMsYx5OZ01cYM0bZyUhChpjeluSZ6kZ8xlyeDta0jZRIgQSN+CKKkggQASJABC5BgOTnrsnP/D9915utbMrTjXUkQmLXHx+F5OOqbqPW5CX5+CgSHXOaoojDlrm97/zEcavTnuShkb5akpN8v0l5DwRO6dS4vHZK5Gc8acMXqdPTHj1fqkUWiQARIAJE4AIEnov8DKcQOHkwm7MA6W1uZiOMG5L5CKllDtb/zg/6a75XMvy1l+1VerJQIz8diVAESTb5AUOcsIwYpht139ZAKgxZirk2yo2To4HsdCc9U6IH/MYxALF0LNCKNOOwdUv6bF2nsn9pFjHRfUnny4Rmqq/hfDyEw+EYzvFP9jJuVBMBIkAEnhiB5yE/2Gj6jzu6jzrGjQaEZvgSa/RTv4X3m3W0f/5l/5dS83aXTciP3Lxxgx0/xhlOa3Sf8THPQAi6jXVKCMaTn/hcJDkUHv1Dk+A2EB08Uf3m3bednhLhpAP9Xjk3CNAw3+gTSFu+XeA5xQY5OjKFe6U8rvEek+gEL+nbMB9d7podPSjJ1/MxHA6HcJL/FZMXESACRIAITBDIkp+W/yFxkq2gWDtfoam7MrXisne/tUFvHW9ru635Wv1a2231W7Xdl1M4/JN/fZOTn9ZxtPrdBL/WRu/ArxXnvfutDXXreFvbbc3X6tfabqvf2u2unW/tcbT0L0t+WjtDPyJABPaCwEs4HfiR115mg/0gAkRgvwiQ/Ox3btgzIkAEiAARIAJEYAMESH42AJUpiQARIAJEgAgQgf0iQPKz37lhz4gAESACRIAIEIENECD52QBUpiQCRIAIEAEiQAT2iwDJz37nhj0jAkSACBABIkAENkCA5GcDUJmSCBABIkAEiAAR2C8CJD/7nRv2jAgQgZUQOLw9hNrPSk1N0ki7S66lcUvaQsySNufGeP6eDn2CzPnk9IjLyVycp/d0Xt6aX83u5aRuGwSSp/Ljr3+7TSvMSgSIABG4IQK1Tcezi671pzQ0L3fJH7bWuNY+evmsrlZH37S0MdrmlT1/T4dYsbX+IKZF1trUOXLtax8pezm1TpdtLOvXRSBLflr+h0Tp6p78ulcDdK9JiC/O1K9bkNc06Pp1cS60lnvNxBgSx/L9Pw32Deujx/jahD/7249anS1382ZeZeF4t85vDG3AuDVfs9/fvo24dK+aSF8lgddU2FdIDPr46ov0tRot7cb77Ptvg7w9YnKfGQxb8kkI/Ir38OCXvjZkMr7BL+1M8uqM/rUaaDf1nNaqfvE1KB3+egzTTJ2mmq8PdP1+dQqHn5yDfrnM6Pcazj85hNOv0paHzeuU30h1xJhPa/3NTXsM7czcsJfG6bZrZW/jhQ7jRV3n0rpDAT/xG36UXy6X6HW7Q2yfR8dJWfdD27S+lg++4odyKXfJz4uHDhL9RF3wa7kwjprvs/nV8IC9BZdkJu795EcvupNNqWFjBnBzZbKpxA3VbMLFhHXyg3AZ0+Q9Ur0Rfci/jwpZtKyTH+1dLWuM7fvGFrwIttqeeeHsxB99MO/PGvyiPSU/g61QKN5nhbgWU0vu6HMBkY/xOUxaOun5zCQ/Xoo2nU9uhliHGIkNm8/gZwo1O3K0+OnUc/0RuzQO8Z60OWt1L4fV2RzWruvia3/E7uXI6Ww86rodXbZ5dD1Xbo3XflJGX3Re+EAHCT3l7RB4KPIT30LebwqTBV5vzCvjPdmM1EZQb2od8lNvx/PYmvxoEti9DDRH3rzeVXULycuQd2m8upcm99mQfGGhIXeJBLe0unqfpVGNpRpDS39m+byew9Gc+uj4ly+mpz5i1xtTrqzz2DI2LS1Rtr6o1+zws9KL83SIK9ngI9L6SX3Oj86Fss6py7Brae1oW/ugbH1F7+lKes+mc+TKXpzW6TjR68vaanUdy/J1EXgs8lPCrl+QX95/NnxMYjfiuCn0bwE/vNEbtyQ2HzW8GU8MJuSn90X+yWajN4ret3vLfOFN4/1HLMg5DrUjFe7HPtEp3+8QT04+C+evPoQjxm1PFAQ32CaYjB+3DT6Ij2NMMUxwGjBQ/UdsP7h4eldoO5JdNQ8jJv3HUX3sFLPec+iDjpSywWzBKUn3ZvXjBi8X7fqWG1P5Hu7GObkfh+GruRDszHykucf7fwi/QkHIzfFn+gMv1agQo7en+HGk0l5UlM1Lb2C6LImtXTemfeFnpfZHWceVdC02+Ij08s6xa18v39z8JX/PJrrcj+2b1z+r023kysir7TYP6rZvXqzNAx/K6yPwXORHFnRsZHFTVwv41x/C6f24qCYbtWyHQpoQa+bJ+mLzxAY1iU02XWy0I1GIm77TVvk3ftm4xhzo4qRtGKLEZgccuvrw0ZklMBYzr44N08YCw8QuZA99Ttu2mMZ6T3S6MoiiknMxS+ZhBCbFv0w2xqi0tD75wVyp8UZyB/y605fSPYwe5u6J4v1l5trOD3JvKivkxiNGdkNqqcsY4GfHk9u8rD4Xj3zWX+s9m6ezMWizJBFjZSm/9ZV6qQ1t07G2DV3XZeTXsTldTW/7ouu27OWCj+0LfMWuL1uHH3w8O2yU10Ugmbl7/85PETpZvLHxRkfZTNTGYYPNxqg3X+tqNwLrG+t6Y05yd5vrQDgkudlo0F5xc8Ipztfw7qTtS2qdYqDbkFgQuD5bOH/6Sej6muk3MLbkJ9YRi49JVD052UqJ0LTtfhQZnPQY9Xi0PpaTeYBV2gYZ7HWTewe+t5AzyJg7vjyRF6zSZ2Qcn9iSezRzv40R65def3YMhy/ka+be9RJOb9tP2hzmncoAACAASURBVJZuQi1x8IG0va3pYReZ+9E54a91c8u5drzc0EGirZa6+OgfxIrU8Shr39YyciEH6rqtnA4+LW3BFxIxqHsSPrpvnh912yNA8jOQhW5TGT6+ib9Vp5tg3ByiPv3icUcw9G/kadxs8pPZtIobeWEzyvV7+NhrwKD7uAiER8dpXNrJj8bEbJ6ZMXa3/JSU4TQt2YC3ID+xX2m/49hB6rZ/JistlMhP/R6W5JP7cWgxjR+xTvXjvVD45WHIuVahTG7KxCjdWKVHrZuP3qxyZT1CnVeXcz7Qa19d9uzQQXr+sLVIxEPqGKvTdV2WmDXrtVy6j17bVod8kDk78mo/6LT07KLDD3xR1xI2ytsiQPLTb/xxo9cbXHVzHglQ3Ex0rJnTyWaT5O42lnGj6U9+nHxLyc/Yne5EBeSmhfyMvmOWrlTpdxxjYXNMMLC5vZMfR7cZ+UnJq+3dbesd7t68tN7Dk/vRG1CcHxBWZ669mC11mb/i6pqs/AVYZmPWG5KUvSunh2/JDpvI0g9yQSIOdZGeDvaSDT45qWN1udamZ6/F1+y6j9pXl+HTotM+KEPa/mu9tc2pIw8k+guZ08NOeT0Ekif+mT/2ihvH8NFUt9gf7Mcfw7ykG1AT+RnITLeJj7ntxpLmHppMPhbSWpQlb4FsRDebexqTEKxILvI5E8z6zXL42OQi8jP9/3NcjLcgP/iy83AvAN95cv3v/KB9O4fQ95gN/e78xvts9GsiP/EkEeQHX2y/kBS+nMLhcAiHU+6jq7GPaalCborEqMtkNx1bT9sbazW/kj1ny+nRqmf3dCV/2ErSywkd5Jx4GzO3rttCLKTYpJz7Qaz1t/qa3frPrev8iNWyZte+LG+LAMkPPvLB5t1/rHV6L38BhcUeG4n6OGTYZPqNYSA33oTpePx1VT53+ls9yJJqW/+fOZEApLbxS8S63d5H9bt28hNHMsmPfotV9+1deBEMgcOF5EeyR3LVz4e3iee+G5X2a8QGuMbNf8gLux7XFDfEerPr6W5BftL/vPGTUL2HBYPhftBz2WFixzzBDXPtAeDqXsJJyM8x/Q8KXVetXPBFZx0uZbvp2Lr1R73mV7LnbDl9qc1STMmGnJDwhYRey5Kt5Ic4kfhp8dc+KCMX6lbW7OKPPkBCh1w6hy7DDgmbzgOblfC1etRrdvhRbo/A85Cf7bFkC0SACBQReA3n4/yTH++vuIZmKsRI/LDhQGrdkCdTkJjaTyZ0aNfadT+sTeq19mBHbC0f/JBb13VZ59Vl7VMq1/qBnFrm8rXkysVCr3OgrNu2ZcRBwo46ZE4vdrGVrpq9FEvbuggkM/XQH3utixuzEQEiMAOB7iRsPvGZ0YTrajcbbFwlqRPZeG2TcslubbpNm0fXbZy25co6d62sc2hfrUe5ZoefSPEtXdZu68ih9VKe+1PqQ86GNnVbOV/oEYO6SE83x659Wd4WgeRuJfnZFmxmJwJEgAgQASJABG6PAMnP7eeAPSACRIAIEAEiQASuiADJzxXBZlNEgAgQASJABIjA7REg+bn9HLAHT4LAN9988yQj5TCJABG4NgJcX+YhTvIzDy96E4HFCMxdnMR/bszizjGQCBCBu0Zg7lrx7OsLyc9d3+7s/CMjgMVp7qL2yJhwbESACKyDwLOvLyQ/69xHzEIEFiFQW4BgX5ScQUSACDw1Alg/RHoX7J7t0XUkP48+wxzfbhDAQmMXIui9jpZsnj91RIAIPCcCWCu4vrTN/0ORn+6/3+9eUxBfjeD+9/vm1QXDf+/fAlj/CoBJXv1qgPy7sFpa2JdPj1XEqBujfeXB8v7Wcqv2+lePJC9/Xd7w1SKxGOkGW3WI8fxhoyQCROB5EfDWhlYdUPP8YXt0+XTkJxKkCXlpneYc+UG82KfkZ/JOpOGdYYjbq6wRlEv6Xct9f+QHC4kngRRsqIv0dHPs2pdlIkAEHhMBrBOexIhhQ12kp5tj176PVH4o8hNfdNkTm0g4nFOd5K3lq89kgfyovuRPpVbv0MUJR7w6srLm6Us5t27Px/Xiwa2UILe4QC8SF3SoQ+b0Yi/ZEL+FRLuQW7TBnESACJQRyD1/0IvEBR3qkDm92Es2xG8h0S7kFm2Ucj4W+SmNNNq6DTX30U16QpOe4CQ2RWTSJv1N2hKxWE9On/pTELxpfJK/OwU55Ozmzevp+Exs0q7Y+rexI3diT0eXq72cDuFwOIWXnMPO9HjYRK5xIZ+Xy7O16pDP84dtK3mLNrcaC/MSgWsigGdH5BoX8nm5PFurDvk8f9i2krdo047lSciPIQDY6PVHVF9/CKf3rwM+U4LSmSyRGQJiQdpJSZOo05ie6CiCE0+ChvqUoL183n2PqWurG8t4AuO32fnaXLZt4IL8NneXpfbvvZEfGc+aD5/kyl1eO6063c9SG7m2L9Ffu71L+spYIrA3BLxnfGkfS8+i106rTvoD31IbS/tdirt2e15fnoT8YOiWDEDvyPglW5CC0Z4SmVHflXwiEmMGwvVJmJ7MmHbkJKdwAjN+XCStdoQlzdn3K54ImdzJuKb9TXPb8T1OHQ+9HpGn03av3BJjfWwdea1e16W81qXzejlrdi+GOiJABEYEvGfI040RfqklxvrYOjJbva5Lea1L5/Vy1uxezBY6kp8B1f5URJGUg/PF5MXkpz/ZifGa2PR/yTR8pIX2tY/5WEt8E7KT5FBkxyNRJD9xxvUDiLKWw23RUEBcztXabV3HwSZy7UvnRtlro2Tz/KkjAkQgRUA/QyhrmXqXa4jLeVm7res42ESufencKHttlGye/1Y6kp8e2fjRkyYcCUkY4b+U/OCkZvjYKtPO0GJPbAb/EELpdKY7ZeoJkHfyk+ie9+RH8MVDKBKXp4MtJxEzx16LyeW6RK/b1GWbU9tQ1tL6s04EiMAUAe+Z8XTTyFSDmFQ71jy7pxsjtinpNnXZtqZtKGtp/beqk/z0yEbyY753s8XJjzSXnv7Y7+GYqY7kR32PqD8FSk5+dMiE3OhTIvux3zrk52bf+Xk9h+PhEA7Hcxi/raXBSAmOPGD6wgOndVLO6a0f6vC3+XUua7N15FoqdR9yubUe/l57sGl/+MGGOiUReGYE8DxAaiw8ndhzeh2ry/AXaa+czfO1sXPqup1cbq2Hv9cGbNoffrChvqUk+QG6/QkLPn46vf8QjsPHXt5HYp+EA8hST0gQ28mRsExPi+z3dKb5NbmJxEx9HHb+XBGaSdtju93QuraGvqHP0Xjn5Ce8hvMx/5dmtQcpZ8/pcat4EjEi5UIdvrYO/RpySe5SDGwi7QWb1bNOBJ4NgdqzkLPn9CX8ECNSLtQRY+vQryGX5C7FwCbSXrBZ/Rb1JyM/W0DInLdEIJ46OSc/LQ9Ryadky40XMZDaz9Npe66MOEjPT2xLrlzOnB5t1OzwoyQCj4pAyzNQ8inZcpghBlL7eTptz5URB+n5iW3JlcuZ06ONmh1+l0qSn0sRZPxtEHg5hUPhI6/WByjnl9MvHeySfBKjLy+Hp9MxpXIpdqmt1B5tROBRECg9H3qMOb+cXsfOKS/JJzH68nJ4Oh1TKpdil9pK7c21kfzMRYz+d4EAHi4tvY7Dbm05vfVrrSOfyJYL/tbX6m3d+pfqpdiarZSXNiLw6Ajg+dDSGzPs1pbTW7/WOvKJbLngb32t3tatf6leiq3ZSnnXspH8rIUk8+wOATxgnkRnYUMdMqeH/RLZkjvnY/W6jrKWpX7W/GDXOTydtrNMBJ4FATwLngQGsKEOmdPDfolsyZ3zsXpdR1nLUj9rfrDrHJ5O29csk/ysiSZz7RYBPFSQ6KitQy9SbLWrFG9j4aul9UEdPqhDQi9SLluHn7ZpnS0j3up1vG3L86WOCDwzAniOIIGFrUMvEs+V1tlyKT7ni5hSfviUcogNfl4u2GwOXS/5wIbcqOv4LcskP1uiy9y7Q8B7wDxdruPwhcz5eXodo8s1X2vXsSiLtBdsVq/rc3y8NnQulonAsyPgPU+eLocTfCFzfp5ex+hyzdfadSzKIu0Fm9Xr+hwfrw2da+0yyc/aiDLfrhG45AErxeIhh/RA0PElP4kt2bVNl3Ntik/uqsXn4qgnAkRgikDpWZt6p5pSLJ5TyDSyq+n4kp94l+zapsu5NsUnd9Xic3HX0JP8XANltnEzBPDwQW7REfvwt7RV8ynZrc3W9RhLNvGDXUsdzzIRIAJ5BPRzI+UtLpsXbZbaqvmU7NZm67rdkk38YNdSx9+yTPJzS/TZ9t0jgIfaDiSn134lnzm2mq9uE2XEQEJPSQSIwH4QyD2fOb3ueclnjq3mq9tEGTGQ0O9JkvzsaTbYl90ggIfWk7qTsGudlHN67VfzKdnFpi/P19PpGJaJABG4DQJ4Nj2pewS71kk5p9d+NZ+SXWz68nw9nY7Ze/mhyI9+qefkRaV7n4lC/7Yc12W51Ws6nBewFoa0WxMeaPvwS4c9G3R2QNB7eeALH9StLNltXvhCj7rNyToRIAK3QwDPJZ5T3RPPBp32kzL0Xh74wgd1K0t2mxe+0KNuc95TneRHz5a8J0u/2V3bauW4+fdvU6/5zrRfRlDKjbXk7nw+CfrN8l3W+yc/3kPs6YCitdk6/ESWbNoufrnLy+HpEA9bKSd8KYkAEdgWATyPuhVPB7u12Tr8RJZs2i5+ucvL4ekQD1spJ3z3Lh+K/ARFXuKGnbzEs2EqVHyDd+qyIfm5eFxpT9OaGvMUM7wF/kM4vfHIT2fvSNH0JalpQ/uo6Yc39wDDx+uxtdm6jinZ4FfzgV2kXKgjnpIIEIH9IIDnE9Lr2RzbHN+5bYk/8ovUdS/Xo+kei/zUZkc2erwd/Y16M7p5o/voo09yzJvXhxOi7vRjjPmkb2N8u/qEVEyIksk9vE2+NqDR/no+hsPhGM6vo+7SkvR7JDYe+bm0he3j9cPd+oAjxuudtdm6jinZ4NfiI77wE8mLCBCBfSCgn0s8m9DleliyW5ut65wlG/xafMQXfiKf5Xoi8tNwMqFOQewN8Pr+XTh/DS1ORBTTmBAa+IZQIz8T+xjaXNqC/IyNdwRv+rHX6HFPJTzopT7nfKze1nXOkg1+LT7wpSQCRGD/CLQ80zkfq7d1PfqSDX4tPvB9Nvlk5Eed9ngzXSA/1n1CWC4lPwtOe2yftquT/Ai2uYUkp0dMaV4Qq2XJnzYiQAT2jQCe5VIvPR9PJzlyetha2kEOkbw6BJ6I/IQQko+39Eda/e1QIj9JbP/Rlv5O0QXkR1qPf53WfyR3fK9OlHZxpz4v+dGLhi7raYFe61DOLTaIgYQ/JREgAveNQMszDZ+c1AjAR+tQFpt3IQbS83l23XORHzXb8eTGnrZkyU+3+WtSsubJj+pWCGHaVmq/Re2xyI8gWFsUcnboReoL+ppO21kmAkTgMRHw1gM90pwdepH6gr6m03aWywg8LfmJf0FlyU88vRm/qDxCZzZ/nALpk5+etHjfi4lEafIFaefkKTbofJ9o7Ei2tNvv/Lyew/FwCIfjOezpPMtbTCy4JR9rQ12kXKjbnKwTASLw+Ai0PP8lH2tDXaRcqD8+ktuN8HnIj5zqqL/0OrzxSE7/5eTBbyQo3UkR/pLrXTi//ywcEvITQkeo4KPz67/m+iycv/oQjgPx0jbn47TGud+E/Eww6/rnEbx8N1/D+XgIh8MpvOSdrm5pWTxqPp4dOpG8iAAReE4EsA6URl/z8ezQieR1GQLPQ34uw4nRFyDwcnq8kx/AgcUIdUoiQASIQMu6sJYP0V6GAMnPMtwY1YLAyykcdviRF7peW3xqduShJAJEgAhYBGrrR81u87G+LgL3QX7+54cQ/tX3QvjeH4Twh98N4Q9F8ocY8B7gPcB7gPfAxveA7Dv/8p+F8D/++6zdt4XctPjMapTOzQjsn/wI8fnePyLZIdnjPcB7gPcA74Eb3gPfDeH0X5o3VxKbZqhu4rh/8vMv/ukNb/aNf6PgQsa55T3Ae4D3wP3cA/KLeOMF8iOS1/4Q2D/50QvDf/uvIfyfv98fiuzR3SKABepuB8COEwEisC0CL/8rJWczWuP6MgOsK7vun/zE7/n0JzD/7/9eGR42RwSIABEgAk+PwPBd0+8+PRSPAsD+yY8++XkU1DkOIkAEiAARuB8EuA/dz1w19pTkpxEouhEBIvCcCBzeHkLtZy1kpB17eTrrI/WaX82OnGv7IW9Otran45fE6PjZZZKf2ZDtPSB50j7++rf76y9vuv3NCXtEBJ4IgdpG69lF1/pjobT5cnlqcWLXuXTZxup6q5/Nb3PoflvbnLr2RXlOHxFzkeQ+dBF8ewx+KPKjX1Ya35I+vE/rWtCbV1WY1190b27Xr73o+pW8OsPEXKvni9rBO87i60DGV4Eg13Zvqu9wLr1mo6Xt3Hyg/76U97xN59D3bdCal+lueg/H15V0fdftNPRyY5f+uYn3/qUv9n0N558cwulXmS7Lu+beznvVit7Ec+VMa4l6yYatY2pl2CHROOqQ0HsSPpCej+jE7v3AX8frMmLh59WtzmunptP5VymT/KwC456SkPysOBtxQykQrtpmG+Nnk586Ebh0iCASWbIRSdCU/KBdiT++T19r2m2+eA+ayDmEon3MXtu6X/PalchHJj/tuALDdeSK5OdXp3D4Sf4lui9fHMLxZ+m9WBuD3bytf80u/tisbWypbvPauo5Ffs8HOkgdp8vWbuvat1bWsbmy5NC2Wk7Yl8QgdrEk+VkM3V4DH4r8xBeL9uRjGZG4bJpKG21L5mV93nrDks3+XXiRU4McMVtKfjRRVKcSdazax3zpnEz7si352fQe1vNkTpy6cbbjOsXlMs04T5f1QchN9tQnvITTzFMfGZVstrWf0uixWWuJshfn2aCDbImzvrauc+Rsc/Tat1QWW+uP7iPKudywbyJJfjaB9ZZJH4v8lJDsN2994pCcRmAz0B/lJJt9dxw/vBleb9yx3W7RTnKiPzrn8DZ3GEeZJz9p22kbtc2is/v97omN7p8dF3CJJx7d6c63IQT9E77+EP7kjxec/CRtpfhNsNAbd8CYNS5+++OmOuIs/T3Gj+rkxMmLM5glPtLmZ+H8lcqRjCOESGCG/NMTLX0Pxnmx8aqrXvH1fAyHwzGc5x1geKkGneA03CND39WJHe4Djd3wfGA+hnRhMn/x/hnbSO/hMe6iUuUjrdefHcPhi5eLmpgTjA0eMXrTFp21Qwd/SC8ONsQgFyTsOlaXYUe8rttyS5z1QR3S5kS9ZocfpPW3dfhpqdcqKS+6SH4WwbbnoOciP7KoY8GOi7jamGRxj4t+vxkm9nRjDv3m2+XSG/C4uLsfp8Sc3mbb3SLTDUP0tu2uvfEjqOnGo2+41/fvwvlraPxcIwGwuUMYycNrOP+nH4ax3S5nXFhkXDcgPxrjuHljbjHcoPuvlChm5sOfBwRhvjGPBrPkvgERgm+mvgPy042ucC81PB/63kgx9O877Q90L5Hlj7Tk1GceYZSNde6P9B8xdiy5jRp6SMTl8uTasPHw0/lQhg0xaMuTc3x1PsTpNnUZvlpXKnt983SlHHG9WsKASH5KsN6l7bnIT7LJmIU+Lu6KDA2nC86GJVM92TjtAu/cD5OY1CfdMHqbxCT9Dua3ajOONOWklrYhG7cesyULqf31/V+M5FFl/rYyrpFAjUGxH2pcsa5OWNJ+WrydMcf5UySjb8pre+hFpt+2L4N/LKSYiEq3IbHpqYbuqy73WaXfCoe0rWvXnP6hC6XnQz8rvX8yf9V7GI1cIivkpvJdoDktz920kbs1ztvQrQ45IWFH3ZPwEVm6avZSLGw6hy7DLlL0uR/tB18tYbe5bd3jOZEAIUGrJPlpRepu/JKn4KH/1H2yyXQL/bBRTexqDj3bZOM0+VT4UJzEDJZYSDYMmOKmo0+U+vJwylHYsCRHbNPED7HljVx//0RSRZLjnfBUxqXJAYbVEQzdr5S4TLBI2nDGnNjRSkpMRm1fysSIVfqMj4GGeySGlTHTcYgX2Z1yOP327q1JR6+lcPqHpov9nMYl81e9h9HIcln+SKvyF2CVZu2Gauu5cPGr/XixtfyeXbeDnFqHMmwl6eUv+Xs2nUOX4QsdJPQirU7XdbnmWyI533qsSHfClkl+LCJ3X3968jMcvZcW97h4p5tz970Ores2gHSjNPdHYbMVz2TDQGipX9FnuvEgtPvLJPW9jUkb/kb+J+9f43d6Xj7/YfjOH/9wIAFdefrR1/QUbOyBlLLkp3DiMcEiwc4ZcwYnr+2hd0nOQWsKgpHG0McM815szzkhsQTTNH7lqoMrepDBtzNP45L5K8aigUtkhdxUvgtUa9nbcEWnf7wcNs765OxW31qHH2Rre+InMbkfm6fkD1/dB11GrOdnbfDRMpcLROc7b7+j3eM6lij6Cvw9m6sj+XFhuWfl05KfuDirj1nKm5DdALvFHhtedwN4OnNrVDbbZMMYQm3bg6EvTDee0aOLHQhebF9978n5s23ZvDvyI3mnROcXQoiGk6OuJZwI/SLz25RHCOJYa+RnsHfjGL+bZMecx95re8CnMh+dn80tfSl8VCgbvbEP7eFECfhhPoZxas98eYsvPKM1wWv4XhyUIosExmAUMdB5avewbmhBufKRVvm7QPX2chtuLdLGWf+c3epb69avtb0lfl5bWtdSRrvwhYTek9YHdZAZj/zYZQn1Wac/JD/edNy17rnIj/orlnEj7eevuLiLDzZg+7ET5t9sAFDjtCVpW3Lg1KiL0x+RxDI2yJjHtD18jCJGPx6EpyN5+AjnXTi//0xtbv5GHslPjhjEje1d+EUI4e/e/0U8GZITofEH45r2WcYFwlgjP+m48NdVyD0dM/J2sDe0PWc+JnNRID/SAWz+Qxvotxh1396FF8F5R+Qn7d84X2XyYz5e/fRDeEnuMzvu7n7EPdrN2fJ/y+Sm8l2ghmaxwcLV1qG3suZXs0s++IhE2baD+qX21jy6X4ixOvRX90mXdZyNtTZdtzlQP7z9TsCP9pcyiJElO9Bbf7dO8uPCcs/K5yI/MzeZe57YS/uOhUEWDPym1JJzjm9LPvoQgSIClY+0yt8FKmaOxnFzHZdK6GrR4lf7yeVAnLXn9OInttJVsyO2xQ/9sHJODvFFvC0jT02ir5uvVyQ/tam4O3vytDzXF57vbq6u2mGQGJKfq8LOxnaEADZWdAkbdUnCV6SN1zbPrvNaX1v3cns6HWftur3WMvLZXKLXOl1GDKRuCzota3bti4+5Nl+vSH407A9RJvl5iGlcfxBYTCRzKwHSMev3iBmJABEgAj4Ceu3ZZL0i+fGBv2Pt85CfO56kNbuORUIkfrz8soDggh8k9Foqd61mmQgQASKwGAGsK1h7ULcJN1+vSH4s5HdfJ/m5+ym8bABYVGwWu8jE36assg/KqG1K1okAESACFyFws/WK5OeiedtjMMnPHmdloz7lSIr+rQlNa18sOJ4f/CmJABEgAmsioNcgnddbh7TvJusVyY+egocok/w8xDS2DcJbNCQSiwWyoK4XlOg38y+/kI+SCBABIjAXgV2tVyQ/c6dv9/4kP7ufovU6CFJjM0IPsoO69ZM6fDwbdUSACBCBtRDIrUPQYy1C3WsXPp5tlo7kZxZc9+BM8nMPszSjj3jYsSCgjhTy2xR08BlsKFASASJABK6AgF2LUEfTu1mvSH4wJQ8jSX4eZipHUqOH5B0dW9IDf7vwQE9JBIgAEVgbAW+92e16RfKz9vTfPF+W/Hz83cdFneveO3QIh+M5vKoMS/OFO7rpZIz4UUNfpdiCn7uYON/pkQ55+bz41s57+VpjPb+183lteLpHafdW4/Aw9XRr92/tfF6fb62TMeJn7b6sjV9LPm+9ER1+9Bi9fF68jimVvXwl/7X2odntFjvVbly73bXztY+kzbOlf1ny09ZE3uvldAjHs6Y/ed+i5Y7IT3EcVzDmFgN9dFzqRi6+FEMbESACRGAJArn1ZpfrFfehJVO865jNyE94OYXD6eXywctN970/CJF5X57toTN4R8YYcMkmPrmFCPGURIAIEIE1ESitSSWb9OHq6xX3oTWnfhe57oP8gHX/5te7AO1WndAPvJR1Xfrk6dDXnC2nRxwlESACRGAJAnp98tYZT4d2cracHnGbyH/4h+6Xb+xDmzTCpNdGYP/k55//Y3XjfVeV+9Mg3JCUxIb3AO8B3gO8B1a/B8y+c+1dmu1tgsB25Of1HI6HU7j4g68//898mFd/mEkcky8wEl8+Y7wHeA+03AP/4d9ushEz6fUR2I78yFgiATpc/t2fT/+jejANC2+5Yemj8CPxIfHhPcB7gPfAvHvguyH8+39z/R2aLW6GwHbkR77wbP7cfbNRPFBifKYtUl/yBUCrE3vW33wnyIvV+VkmAkSACMxFILv+cL2aCyX9r4zAtuRnjb/2ujIge2kOi4ruT9T1i4olM7Yuccjh2XRelokAESAClyCAtUbniDquVxoSlneEAMnPTibDIyjegiLddX095U7Gxm4QASLwWAh4yw3Xq8ea40cfTZb8tPwPiUVwzP/zc3G+YmP3ayzhoheTkp+MHotRzQ9Ire2HvGvJ1v61ttear9Wvtd1Wv7XbXTvf2uNYu39r52sd7979WnFZw2/L9WptnFvH29pua75Wv9Z2W/3WbnftfGuPo6V/WfLT2pmc32r/w3OugTvWg6jUhqAXkxbfmg/tRIAIEIG5CHC9mosY/e8BgdXJz/BurzX+zP0eEJzRx9ZFBClbyc/cvMhPSQSIABHIITB3XeF6lUOS+j0isDr52eMg99KnJYtJqe+ti00pB21EgAgQAQ8BrlceKtQ9CgIkP1eaySULydyYKw2FzRABIvDgCMxde8R/bsyDQ8jh7RwBkp8rTVDtRX22G3P9bTzrRIAIEIGlCMxdf+b6L+0XmpmIFgAAAphJREFU44jAWgiQ/KyFZCWP/a0IvynJomFtksouJp5PpUmaiQARIAKLELDrDderRTAyaMcIkPysNDnD4tAf/+YWD685jwAhHnm9OOqIABEgAksQwLqipc4DvdahzPUKSFDeMwIkPxvNXm6BkEXFu6zei/fiqCMCRIAIXIqAt94UCZBp0Is3LqwSgV0hQPKzwnRY4oKUdvEoLRBi40UEiAAR2BqB3FLD9Wpr5Jl/TwhkyU/L/5AoA9m73zXALi4mxpgjOcZt0u1HwflW45gAmlHcqn+P0m4G1on62cY7AeCGCm+tkfkQvV2fbB3z5uXQQ4Kf1nnlVj8v1tO15lvbz+uLp1u73WfL52Hq6VpwyZIfLyF1PgJx0fBN3YKibJ6vp1MhLBIBIkAEVkOgtN5Ym61LJzzdap1jIiJwJQRIfhqBlgdeLjz4qGtd55H+C/9U2/2GlbNZX9aJABEgAnMQwPqENQZ1yQGdly9nkxOgnM3LQx0R2DsCJD8LZ0gvJpLCHg/rtNZX21gmAkSACGyNgF2DuF5tjTjz7x0Bkp/KDNlFA+6i1zZbh5/Ikk37sUwEiAARuAQBvSbpPHYNsvWSr7axTAQeBQGSn4Uz6S0eOBq2KXMLkvVjnQgQASKwBQJcr7ZAlTnvGQGSHzN7rUTFW0wkladvzWm6wioRIAJEoIhA69rirUuS2NO35ix2jEYisHMESH68j68anv6SCxYUyJ3fA+weESACd4SAXnviGqMVmXGUXGKODBHKpKOaCNw9AiQ/zhRiMXBMUVWz5+KoJwJEgAisjUBtParZ1+4P8xGBe0AgIT//+7d/H37/+9/fQ79X66MsDN6V04tvyebloo4IEAEisAYCubUnp5c2S7Y1+sQcROAeEfj/vH8mnVIoDygAAAAASUVORK5CYII=;" vertex="1" parent="1">
          <mxGeometry x="360" y="1620" width="575" height="205" as="geometry" />
        </mxCell>
        <mxCell id="juF5vXDWfetMW0yKtIsb-58" value="" style="edgeStyle=orthogonalEdgeStyle;rounded=0;orthogonalLoop=1;jettySize=auto;html=1;fontColor=#000000;" edge="1" parent="1" source="juF5vXDWfetMW0yKtIsb-59" target="juF5vXDWfetMW0yKtIsb-61">
          <mxGeometry relative="1" as="geometry" />
        </mxCell>
        <mxCell id="juF5vXDWfetMW0yKtIsb-59" value="&lt;pre style=&quot;background-color: rgb(255, 255, 255); font-family: Consolas, monospace; font-size: 8.3pt;&quot;&gt;&lt;span style=&quot;color:#008000;font-weight:bold;&quot;&gt;100035782&lt;/span&gt;&lt;/pre&gt;&lt;pre style=&quot;background-color: rgb(255, 255, 255); font-family: Consolas, monospace; font-size: 8.3pt;&quot;&gt;&lt;span style=&quot;font-weight: bold;&quot;&gt;dispatch-case&lt;/span&gt;&lt;/pre&gt;" style="whiteSpace=wrap;html=1;strokeWidth=2;" vertex="1" parent="1">
          <mxGeometry x="1200" y="550" width="120" height="60" as="geometry" />
        </mxCell>
        <mxCell id="juF5vXDWfetMW0yKtIsb-60" value="" style="edgeStyle=orthogonalEdgeStyle;rounded=0;orthogonalLoop=1;jettySize=auto;html=1;fontColor=#000000;dashed=1;" edge="1" parent="1" source="juF5vXDWfetMW0yKtIsb-61" target="juF5vXDWfetMW0yKtIsb-63">
          <mxGeometry relative="1" as="geometry" />
        </mxCell>
        <mxCell id="juF5vXDWfetMW0yKtIsb-61" value="延迟10秒发送到&lt;br&gt;&lt;pre style=&quot;background-color: rgb(255, 255, 255); font-family: Consolas, monospace; font-size: 8.3pt;&quot;&gt;&lt;span style=&quot;color:#008000;font-weight:bold;&quot;&gt;guide.offline.delay.consumer.seconds&lt;/span&gt;&lt;/pre&gt;" style="whiteSpace=wrap;html=1;strokeWidth=2;" vertex="1" parent="1">
          <mxGeometry x="1200" y="690" width="120" height="60" as="geometry" />
        </mxCell>
        <mxCell id="juF5vXDWfetMW0yKtIsb-62" value="" style="edgeStyle=orthogonalEdgeStyle;rounded=0;orthogonalLoop=1;jettySize=auto;html=1;fontColor=#000000;" edge="1" parent="1" source="juF5vXDWfetMW0yKtIsb-63" target="juF5vXDWfetMW0yKtIsb-65">
          <mxGeometry relative="1" as="geometry" />
        </mxCell>
        <mxCell id="juF5vXDWfetMW0yKtIsb-63" value="&lt;pre style=&quot;background-color: rgb(255, 255, 255); font-family: Consolas, monospace; font-size: 8.3pt;&quot;&gt;&lt;span style=&quot;color:#008000;font-weight:bold;&quot;&gt;100035782&lt;/span&gt;&lt;/pre&gt;&lt;pre style=&quot;background-color: rgb(255, 255, 255); font-family: Consolas, monospace; font-size: 8.3pt;&quot;&gt;&lt;span style=&quot;font-weight: bold;&quot;&gt;dispatch-case&lt;/span&gt;&lt;/pre&gt;" style="whiteSpace=wrap;html=1;strokeWidth=2;" vertex="1" parent="1">
          <mxGeometry x="1200" y="830" width="120" height="60" as="geometry" />
        </mxCell>
        <mxCell id="juF5vXDWfetMW0yKtIsb-64" value="Y" style="edgeStyle=orthogonalEdgeStyle;rounded=0;orthogonalLoop=1;jettySize=auto;html=1;fontColor=#000000;" edge="1" parent="1" source="juF5vXDWfetMW0yKtIsb-65" target="juF5vXDWfetMW0yKtIsb-66">
          <mxGeometry relative="1" as="geometry" />
        </mxCell>
        <mxCell id="juF5vXDWfetMW0yKtIsb-65" value="已经被派遣" style="rhombus;whiteSpace=wrap;html=1;strokeWidth=2;" vertex="1" parent="1">
          <mxGeometry x="1220" y="960" width="80" height="80" as="geometry" />
        </mxCell>
        <mxCell id="juF5vXDWfetMW0yKtIsb-66" value="给供应商&lt;br&gt;发送短信和邮件通知" style="whiteSpace=wrap;html=1;strokeWidth=2;" vertex="1" parent="1">
          <mxGeometry x="1200" y="1130" width="120" height="60" as="geometry" />
        </mxCell>
        <mxCell id="juF5vXDWfetMW0yKtIsb-67" value="同步期间出现异常，发送邮件通知" style="whiteSpace=wrap;html=1;strokeWidth=2;" vertex="1" parent="1">
          <mxGeometry y="1520" width="120" height="60" as="geometry" />
        </mxCell>
        <mxCell id="juF5vXDWfetMW0yKtIsb-68" style="edgeStyle=orthogonalEdgeStyle;rounded=0;orthogonalLoop=1;jettySize=auto;html=1;exitX=0.5;exitY=1;exitDx=0;exitDy=0;entryX=0.5;entryY=0;entryDx=0;entryDy=0;" edge="1" parent="1" source="juF5vXDWfetMW0yKtIsb-70">
          <mxGeometry relative="1" as="geometry">
            <mxPoint x="60" y="1520" as="targetPoint" />
          </mxGeometry>
        </mxCell>
        <mxCell id="juF5vXDWfetMW0yKtIsb-69" style="edgeStyle=orthogonalEdgeStyle;rounded=0;orthogonalLoop=1;jettySize=auto;html=1;exitX=0;exitY=0.5;exitDx=0;exitDy=0;dashed=1;" edge="1" parent="1" source="juF5vXDWfetMW0yKtIsb-70">
          <mxGeometry relative="1" as="geometry">
            <mxPoint x="-100" y="1425" as="targetPoint" />
          </mxGeometry>
        </mxCell>
        <mxCell id="juF5vXDWfetMW0yKtIsb-70" value="如果同步失败，设置advisorRole=null，再次同步" style="whiteSpace=wrap;html=1;strokeWidth=2;" vertex="1" parent="1">
          <mxGeometry y="1380" width="120" height="90" as="geometry" />
        </mxCell>
        <mxCell id="juF5vXDWfetMW0yKtIsb-71" value="" style="edgeStyle=orthogonalEdgeStyle;curved=1;rounded=0;orthogonalLoop=1;jettySize=auto;html=1;fontColor=#FF6666;" edge="1" parent="1" source="juF5vXDWfetMW0yKtIsb-72" target="juF5vXDWfetMW0yKtIsb-46">
          <mxGeometry relative="1" as="geometry" />
        </mxCell>
        <mxCell id="juF5vXDWfetMW0yKtIsb-72" value="如果映射关系状态为不可用" style="whiteSpace=wrap;html=1;strokeWidth=2;" vertex="1" parent="1">
          <mxGeometry x="160" y="1820" width="120" height="60" as="geometry" />
        </mxCell>
        <mxCell id="juF5vXDWfetMW0yKtIsb-73" value="" style="edgeStyle=orthogonalEdgeStyle;curved=1;rounded=0;orthogonalLoop=1;jettySize=auto;html=1;fontColor=#FF6666;" edge="1" parent="1" source="juF5vXDWfetMW0yKtIsb-74" target="juF5vXDWfetMW0yKtIsb-77">
          <mxGeometry relative="1" as="geometry" />
        </mxCell>
        <mxCell id="juF5vXDWfetMW0yKtIsb-74" value="查询社会化向导角色状态" style="whiteSpace=wrap;html=1;strokeWidth=2;" vertex="1" parent="1">
          <mxGeometry x="414" y="1970" width="120" height="60" as="geometry" />
        </mxCell>
        <mxCell id="juF5vXDWfetMW0yKtIsb-75" value="更新映射关系表状态" style="whiteSpace=wrap;html=1;strokeWidth=2;" vertex="1" parent="1">
          <mxGeometry x="414" y="2190" width="120" height="60" as="geometry" />
        </mxCell>
        <mxCell id="juF5vXDWfetMW0yKtIsb-76" value="" style="edgeStyle=orthogonalEdgeStyle;curved=1;rounded=0;orthogonalLoop=1;jettySize=auto;html=1;fontColor=#FF6666;" edge="1" parent="1" source="juF5vXDWfetMW0yKtIsb-77" target="juF5vXDWfetMW0yKtIsb-75">
          <mxGeometry relative="1" as="geometry" />
        </mxCell>
        <mxCell id="juF5vXDWfetMW0yKtIsb-77" value="角色状态不为注销状态" style="rhombus;whiteSpace=wrap;html=1;strokeWidth=2;" vertex="1" parent="1">
          <mxGeometry x="434" y="2070" width="80" height="80" as="geometry" />
        </mxCell>
        <mxCell id="juF5vXDWfetMW0yKtIsb-78" value="" style="edgeStyle=orthogonalEdgeStyle;curved=1;rounded=0;orthogonalLoop=1;jettySize=auto;html=1;fontColor=#FF6666;" edge="1" parent="1" source="juF5vXDWfetMW0yKtIsb-79" target="juF5vXDWfetMW0yKtIsb-37">
          <mxGeometry relative="1" as="geometry" />
        </mxCell>
        <mxCell id="juF5vXDWfetMW0yKtIsb-79" value="更新大向导和小向导关系" style="whiteSpace=wrap;html=1;strokeWidth=2;" vertex="1" parent="1">
          <mxGeometry y="1100" width="120" height="60" as="geometry" />
        </mxCell>
        <mxCell id="juF5vXDWfetMW0yKtIsb-80" value="同时触发基础信息同步和上下线同步" style="whiteSpace=wrap;html=1;strokeWidth=2;" vertex="1" parent="1">
          <mxGeometry x="-620" y="400" width="120" height="60" as="geometry" />
        </mxCell>
      </root>
    </mxGraphModel>
  </diagram>
</mxfile>
